G04*
G04 #@! TF.GenerationSoftware,Altium Limited,Altium Designer,24.0.1 (36)*
G04*
G04 Layer_Color=32896*
%FSLAX44Y44*%
%MOMM*%
G71*
G04*
G04 #@! TF.SameCoordinates,BFD44B55-2052-4A58-B096-8A348341E0BB*
G04*
G04*
G04 #@! TF.FilePolarity,Positive*
G04*
G01*
G75*
%ADD10C,0.2500*%
%ADD11C,0.2000*%
%ADD14C,0.2540*%
D10*
X118125Y147875D02*
G03*
X118125Y147875I-1250J0D01*
G01*
D11*
X139622Y171375D02*
G03*
X138622Y170375I0J-1000D01*
G01*
X167622D02*
G03*
X166622Y171375I-1000J0D01*
G01*
X105175Y156375D02*
G03*
X108622Y157753I0J5000D01*
G01*
X166622Y171375D02*
G03*
X165622Y170375I0J-1000D01*
G01*
X140622D02*
G03*
X139622Y171375I-1000J0D01*
G01*
X115175Y170375D02*
G03*
X111079Y168243I0J-5000D01*
G01*
X195768Y168384D02*
G03*
X191775Y170375I-3993J-3009D01*
G01*
X140622Y170375D02*
X165622D01*
X198725Y270375D02*
X201425D01*
X89375Y267175D02*
Y270375D01*
X88175Y267175D02*
X89375D01*
Y270375D02*
X91225D01*
X139025D02*
X171725D01*
X206475Y267175D02*
Y270375D01*
X207675Y175375D02*
Y267175D01*
X201425Y270375D02*
X206475D01*
X91225D02*
X112025D01*
X88175Y266375D02*
Y267175D01*
X167622Y170375D02*
X191775D01*
X206475Y267175D02*
X207675D01*
X115175Y170375D02*
X138622D01*
X88175Y229375D02*
Y248375D01*
X88235Y170875D02*
Y211375D01*
X104025Y156375D02*
X105175D01*
D14*
X65031Y37537D02*
Y27540D01*
X70029D01*
X71695Y29206D01*
Y30872D01*
X70029Y32538D01*
X65031D01*
X70029D01*
X71695Y34204D01*
Y35871D01*
X70029Y37537D01*
X65031D01*
X76694Y27540D02*
X80026D01*
X81692Y29206D01*
Y32538D01*
X80026Y34204D01*
X76694D01*
X75027Y32538D01*
Y29206D01*
X76694Y27540D01*
X86690Y35871D02*
Y34204D01*
X85024D01*
X88357D01*
X86690D01*
Y29206D01*
X88357Y27540D01*
X95021Y35871D02*
Y34204D01*
X93355D01*
X96687D01*
X95021D01*
Y29206D01*
X96687Y27540D01*
X103352D02*
X106684D01*
X108350Y29206D01*
Y32538D01*
X106684Y34204D01*
X103352D01*
X101685Y32538D01*
Y29206D01*
X103352Y27540D01*
X111682D02*
Y34204D01*
X113349D01*
X115015Y32538D01*
Y27540D01*
Y32538D01*
X116681Y34204D01*
X118347Y32538D01*
Y27540D01*
M02*
