G04*
G04 #@! TF.GenerationSoftware,Altium Limited,Altium Designer,24.0.1 (36)*
G04*
G04 Layer_Physical_Order=3*
G04 Layer_Color=128*
%FSLAX44Y44*%
%MOMM*%
G71*
G04*
G04 #@! TF.SameCoordinates,BFD44B55-2052-4A58-B096-8A348341E0BB*
G04*
G04*
G04 #@! TF.FilePolarity,Negative*
G04*
G01*
G75*
%ADD42C,0.7000*%
%ADD48C,1.0160*%
%ADD49C,1.0000*%
%ADD50C,1.3000*%
D42*
X222614Y182827D02*
D03*
X140525Y241254D02*
D03*
X100125Y145110D02*
D03*
X79275Y115702D02*
D03*
X124872Y170375D02*
D03*
X120743Y137642D02*
D03*
X133025Y124264D02*
D03*
X122675Y122790D02*
D03*
X112025Y136907D02*
D03*
X146597Y36500D02*
D03*
Y44478D02*
D03*
Y52793D02*
D03*
Y60539D02*
D03*
X136875Y36500D02*
D03*
Y44478D02*
D03*
X137175Y52793D02*
D03*
Y60539D02*
D03*
X210919Y115500D02*
D03*
X150393Y147875D02*
D03*
X140875Y181750D02*
D03*
X167143Y215244D02*
D03*
X186875Y170375D02*
D03*
X167622D02*
D03*
X205310Y215644D02*
D03*
X186254Y213000D02*
D03*
X219918Y224361D02*
D03*
X-22000Y136360D02*
D03*
X56895Y193000D02*
D03*
X102192Y218000D02*
D03*
X118125Y203089D02*
D03*
X152893Y208000D02*
D03*
X112875Y287725D02*
D03*
X83275Y145110D02*
D03*
X147827Y190502D02*
D03*
D48*
X294000Y230000D02*
Y256610D01*
X285049Y265560D02*
X294000Y256610D01*
X246843Y265560D02*
X285049D01*
X209904Y313000D02*
X246843Y265560D01*
X83940Y313000D02*
X209904D01*
X47000Y265560D02*
X83940Y313000D01*
X8950Y265560D02*
X47000D01*
X0Y256610D02*
X8950Y265560D01*
X0Y230000D02*
Y256610D01*
X-20000Y210000D02*
X0Y230000D01*
X-64000Y210000D02*
X-20000Y210000D01*
X-64000Y210000D02*
X-64000Y99000D01*
X-20000Y99000D01*
X0Y79000D01*
Y50890D02*
Y79000D01*
Y50890D02*
X8890Y42000D01*
X27000D01*
X69000Y-5000D01*
X224904D01*
X266903Y42000D01*
X285110Y42000D01*
X294000Y50890D01*
Y79000D01*
X314000Y99000D01*
X358000D01*
Y210000D01*
X314000D02*
X358000D01*
X314000Y210000D02*
Y210000D01*
X294000Y230000D02*
X314000Y210000D01*
D49*
X348000Y110090D02*
D03*
Y122790D02*
D03*
Y135490D02*
D03*
Y148190D02*
D03*
Y160890D02*
D03*
Y173590D02*
D03*
Y198990D02*
D03*
X-54000Y198910D02*
D03*
Y186210D02*
D03*
Y173510D02*
D03*
Y160810D02*
D03*
Y148110D02*
D03*
Y135410D02*
D03*
Y110010D02*
D03*
X102590Y5000D02*
D03*
X115290D02*
D03*
X127990D02*
D03*
X140690D02*
D03*
X153390D02*
D03*
X166090D02*
D03*
X191490D02*
D03*
X191410Y303000D02*
D03*
X178710D02*
D03*
X166010D02*
D03*
X153310D02*
D03*
X140610D02*
D03*
X127910D02*
D03*
X102510D02*
D03*
D50*
X36939Y104361D02*
D03*
Y84361D02*
D03*
Y164361D02*
D03*
Y124361D02*
D03*
Y144361D02*
D03*
Y224361D02*
D03*
Y184361D02*
D03*
Y204361D02*
D03*
Y244361D02*
D03*
X256903Y104361D02*
D03*
Y64361D02*
D03*
Y84361D02*
D03*
Y164361D02*
D03*
Y124361D02*
D03*
Y144361D02*
D03*
Y224361D02*
D03*
Y184361D02*
D03*
Y204361D02*
D03*
Y244361D02*
D03*
M02*
