G04*
G04 #@! TF.GenerationSoftware,Altium Limited,Altium Designer,24.0.1 (36)*
G04*
G04 Layer_Color=8388736*
%FSLAX44Y44*%
%MOMM*%
G71*
G04*
G04 #@! TF.SameCoordinates,BFD44B55-2052-4A58-B096-8A348341E0BB*
G04*
G04*
G04 #@! TF.FilePolarity,Positive*
G04*
G01*
G75*
%ADD11C,0.2000*%
%ADD66C,0.0500*%
D11*
X150393Y277225D02*
X172393D01*
X150393D02*
Y288225D01*
X172393D01*
Y277225D02*
Y288225D01*
X207284Y34461D02*
Y59543D01*
X164702D02*
X207284D01*
X164702Y34461D02*
Y59543D01*
Y34461D02*
X207284D01*
X153875Y61793D02*
X169875D01*
Y89793D01*
X153875D02*
X169875D01*
X153875Y61793D02*
Y89793D01*
X212169Y90241D02*
X219669D01*
X212169Y76241D02*
Y90241D01*
Y76241D02*
X219669D01*
Y90241D01*
X211522Y48543D02*
X222522D01*
Y70543D01*
X211522D02*
X222522D01*
X211522Y48543D02*
Y70543D01*
X163143Y133360D02*
Y140860D01*
X149143D02*
X163143D01*
X149143Y133360D02*
Y140860D01*
Y133360D02*
X163143D01*
X76525Y70741D02*
X87525D01*
Y95741D01*
X76525D02*
X87525D01*
X76525Y70741D02*
Y95741D01*
X97090Y70521D02*
X108090D01*
Y95521D01*
X97090D02*
X108090D01*
X97090Y70521D02*
Y95521D01*
X160143Y254281D02*
Y261781D01*
Y254281D02*
X174143D01*
Y261781D01*
X160143D02*
X174143D01*
X322500Y173375D02*
X333500D01*
X322500Y151375D02*
Y173375D01*
Y151375D02*
X333500D01*
Y173375D01*
X-40002Y137110D02*
X-29002D01*
Y159110D01*
X-40002D02*
X-29002D01*
X-40002Y137110D02*
Y159110D01*
X157597Y15500D02*
Y26500D01*
X135597D02*
X157597D01*
X135597Y15500D02*
Y26500D01*
Y15500D02*
X157597D01*
X81122Y252031D02*
X136122D01*
X81122Y173969D02*
Y252031D01*
Y173969D02*
X136122D01*
Y252031D01*
X120525Y250531D02*
Y258031D01*
Y250531D02*
X134525D01*
Y258031D01*
X120525D02*
X134525D01*
D66*
X34399Y154361D02*
X39479D01*
X36939Y151821D02*
Y156901D01*
X2650Y48951D02*
X71230D01*
X2650Y259771D02*
X71230D01*
X2650Y48951D02*
Y259771D01*
X71230Y48951D02*
Y259771D01*
X254363Y154361D02*
X259443D01*
X256903Y151821D02*
Y156901D01*
X222614Y48951D02*
X291194D01*
X222614Y259771D02*
X291194D01*
X222614Y48951D02*
Y259771D01*
X291194Y48951D02*
Y259771D01*
M02*
