G04*
G04 #@! TF.GenerationSoftware,Altium Limited,Altium Designer,24.0.1 (36)*
G04*
G04 Layer_Physical_Order=4*
G04 Layer_Color=16711680*
%FSLAX44Y44*%
%MOMM*%
G71*
G04*
G04 #@! TF.SameCoordinates,BFD44B55-2052-4A58-B096-8A348341E0BB*
G04*
G04*
G04 #@! TF.FilePolarity,Positive*
G04*
G01*
G75*
%ADD11C,0.2000*%
%ADD43C,0.4000*%
%ADD44C,1.0000*%
%ADD45C,1.5000*%
%ADD46C,1.2700*%
%ADD47C,0.6000*%
%ADD52R,1.1700X1.8000*%
%ADD53R,0.7500X1.1000*%
%ADD54R,0.8500X1.1000*%
%ADD55R,1.5500X1.3500*%
%ADD56R,1.2000X1.0000*%
%ADD57R,1.9000X1.3500*%
G36*
X243625Y263055D02*
X243818Y262889D01*
X243959Y262677D01*
X244415Y262372D01*
X244829Y262014D01*
X245071Y261934D01*
X245282Y261793D01*
X245819Y261686D01*
X246339Y261514D01*
X246593Y261532D01*
X246843Y261482D01*
X283360D01*
X289922Y254921D01*
Y230000D01*
X289922Y230000D01*
X290232Y228439D01*
X291116Y227116D01*
X291116Y227116D01*
X311116Y207116D01*
X312439Y206232D01*
X314000Y205922D01*
X344466D01*
X344807Y204652D01*
X344009Y204191D01*
X342799Y202981D01*
X341943Y201499D01*
X341500Y199846D01*
Y198134D01*
X341943Y196481D01*
X342799Y194999D01*
X344009Y193789D01*
X344729Y193373D01*
Y191907D01*
X344009Y191491D01*
X342799Y190281D01*
X341943Y188799D01*
X341539Y187290D01*
X348000D01*
Y185290D01*
X341539D01*
X341943Y183781D01*
X342799Y182299D01*
X344009Y181089D01*
X344729Y180673D01*
Y179207D01*
X344009Y178791D01*
X342799Y177581D01*
X341966Y176139D01*
X314583D01*
X275920Y214802D01*
X275093Y215355D01*
X274118Y215549D01*
X263798D01*
X262867Y216572D01*
X262916Y217646D01*
X264105Y218835D01*
X265290Y220887D01*
X265903Y223176D01*
Y225546D01*
X265290Y227835D01*
X264105Y229887D01*
X262430Y231563D01*
X260377Y232748D01*
X258088Y233361D01*
X255719D01*
X253430Y232748D01*
X251377Y231563D01*
X249702Y229887D01*
X248517Y227835D01*
X247903Y225546D01*
Y223176D01*
X248517Y220887D01*
X249702Y218835D01*
X250891Y217646D01*
X250953Y216300D01*
X250814Y216018D01*
X243954Y209159D01*
X232262D01*
X231286Y208965D01*
X230556Y208477D01*
X190228D01*
X189702Y209669D01*
X190320Y210451D01*
X201583D01*
X202559Y210645D01*
X203386Y211198D01*
X203649Y211461D01*
X204415Y211144D01*
X206205D01*
X207859Y211829D01*
X209125Y213095D01*
X209810Y214749D01*
Y216539D01*
X209125Y218193D01*
X209040Y218278D01*
X209526Y219451D01*
X211744D01*
X212719Y219645D01*
X213546Y220198D01*
X214974Y221626D01*
X216290D01*
X217369Y220546D01*
X219023Y219861D01*
X220814D01*
X222467Y220546D01*
X223733Y221812D01*
X224419Y223466D01*
Y225256D01*
X223733Y226910D01*
X222467Y228176D01*
X220814Y228861D01*
X219023D01*
X217369Y228176D01*
X216104Y226910D01*
X216026Y226724D01*
X213918D01*
X212943Y226530D01*
X212116Y225977D01*
X210688Y224549D01*
X106677D01*
X105701Y224355D01*
X104874Y223802D01*
X103430Y222358D01*
X103087Y222500D01*
X101297D01*
X99642Y221815D01*
X99295Y221467D01*
X98025Y221993D01*
Y226875D01*
X83025D01*
Y213875D01*
X98025D01*
Y214007D01*
X99295Y214533D01*
X99642Y214185D01*
X101297Y213500D01*
X103087D01*
X104741Y214185D01*
X106006Y215451D01*
X106692Y217105D01*
Y218410D01*
X107733Y219451D01*
X163190D01*
X163716Y218181D01*
X163328Y217793D01*
X162643Y216139D01*
Y214349D01*
X163328Y212695D01*
X164594Y211429D01*
X166248Y210744D01*
X168038D01*
X169692Y211429D01*
X170958Y212695D01*
X171643Y214349D01*
Y216139D01*
X170958Y217793D01*
X170569Y218181D01*
X171096Y219451D01*
X201093D01*
X201579Y218278D01*
X201495Y218193D01*
X200810Y216539D01*
Y215831D01*
X200527Y215549D01*
X190068D01*
X190068Y215549D01*
X188803Y216815D01*
X187149Y217500D01*
X185358D01*
X183704Y216815D01*
X182439Y215549D01*
X181754Y213895D01*
Y212105D01*
X182439Y210451D01*
X183142Y209747D01*
X182616Y208477D01*
X157393D01*
Y208895D01*
X156707Y210549D01*
X155442Y211815D01*
X153788Y212500D01*
X151997D01*
X150344Y211815D01*
X149078Y210549D01*
X148393Y208895D01*
Y207105D01*
X149078Y205451D01*
X150344Y204185D01*
X151997Y203500D01*
X153788D01*
X153980Y203580D01*
X153989Y203573D01*
X154964Y203379D01*
X231580D01*
X232556Y203573D01*
X233285Y204061D01*
X245010D01*
X245986Y204255D01*
X246633Y204688D01*
X247281Y204505D01*
X247903Y204103D01*
Y203176D01*
X248517Y200887D01*
X249702Y198835D01*
X250357Y198180D01*
X249831Y196910D01*
X152453D01*
X151478Y196716D01*
X150651Y196164D01*
X149265Y194778D01*
X148722Y195002D01*
X146932D01*
X146932Y195002D01*
X137043Y204891D01*
X136216Y205444D01*
X135241Y205638D01*
X121940D01*
X121940Y205638D01*
X120674Y206904D01*
X119020Y207589D01*
X117230D01*
X115576Y206904D01*
X114310Y205638D01*
X113625Y203984D01*
Y202194D01*
X113625Y202194D01*
X112004Y200572D01*
X105644D01*
X104669Y200378D01*
X103842Y199826D01*
X102373Y198357D01*
X101820Y197530D01*
X101626Y196554D01*
Y169250D01*
X101275Y168125D01*
X100356Y168125D01*
X93275D01*
Y160125D01*
Y152125D01*
X100573D01*
X101275Y152125D01*
X102329Y151603D01*
X102373Y151537D01*
X109476Y144434D01*
Y140722D01*
X109476Y140722D01*
X108210Y139456D01*
X107525Y137802D01*
Y136012D01*
X108210Y134358D01*
X109476Y133092D01*
X111130Y132407D01*
X112920D01*
X114574Y133092D01*
X115840Y134358D01*
X115888Y134474D01*
X115953Y134512D01*
X117346Y134675D01*
X118194Y133827D01*
X118980Y133501D01*
X119278Y132003D01*
X107526Y120251D01*
X82357D01*
X81382Y120057D01*
X81052Y119837D01*
X80170Y120202D01*
X78380D01*
X76726Y119517D01*
X75460Y118251D01*
X74775Y116597D01*
Y114807D01*
X75460Y113153D01*
X76726Y111887D01*
X78380Y111202D01*
X80170D01*
X81824Y111887D01*
X83090Y113153D01*
X83775Y114807D01*
Y115153D01*
X108582D01*
X109557Y115347D01*
X110384Y115900D01*
X116905Y122420D01*
X118175Y121895D01*
X118860Y120241D01*
X120126Y118975D01*
X120126Y118975D01*
Y33123D01*
X118992Y32562D01*
X118901Y32552D01*
X117651Y33802D01*
X116824Y34355D01*
X115849Y34549D01*
X67056D01*
X59444Y42160D01*
Y189185D01*
X59444Y189185D01*
X60710Y190451D01*
X61396Y192105D01*
Y193895D01*
X60710Y195549D01*
X59444Y196815D01*
X57791Y197500D01*
X56000D01*
X54346Y196815D01*
X53081Y195549D01*
X52396Y193895D01*
Y192105D01*
X53081Y190451D01*
X54346Y189185D01*
X54346Y189185D01*
Y41104D01*
X54541Y40129D01*
X55093Y39302D01*
X64198Y30198D01*
X65024Y29645D01*
X66000Y29451D01*
X114793D01*
X125800Y18444D01*
Y11142D01*
X125481Y11057D01*
X123999Y10201D01*
X122789Y8991D01*
X122373Y8271D01*
X120907D01*
X120491Y8991D01*
X119281Y10201D01*
X117799Y11057D01*
X116146Y11500D01*
X114434D01*
X112781Y11057D01*
X111299Y10201D01*
X110089Y8991D01*
X109673Y8271D01*
X108207D01*
X107791Y8991D01*
X106581Y10201D01*
X105099Y11057D01*
X103446Y11500D01*
X101734D01*
X100081Y11057D01*
X98599Y10201D01*
X97389Y8991D01*
X96533Y7509D01*
X96090Y5856D01*
Y4144D01*
X96533Y2491D01*
X97389Y1009D01*
X98049Y348D01*
X97523Y-922D01*
X70825D01*
X30041Y44717D01*
X29948Y44787D01*
X29884Y44884D01*
X29315Y45264D01*
X28770Y45674D01*
X28657Y45703D01*
X28561Y45768D01*
X27891Y45901D01*
X27229Y46072D01*
X27114Y46056D01*
X27000Y46078D01*
X10579D01*
X4078Y52579D01*
Y79000D01*
X4078Y79000D01*
X3768Y80561D01*
X2884Y81884D01*
X-17116Y101884D01*
X-17116Y101884D01*
X-18439Y102768D01*
X-20000Y103078D01*
X-50466Y103078D01*
X-50806Y104348D01*
X-50009Y104809D01*
X-48799Y106019D01*
X-47943Y107501D01*
X-47500Y109154D01*
Y110866D01*
X-47943Y112519D01*
X-48799Y114001D01*
X-50009Y115211D01*
X-50729Y115627D01*
Y117093D01*
X-50009Y117509D01*
X-48799Y118719D01*
X-47943Y120201D01*
X-47539Y121710D01*
X-54000D01*
Y123710D01*
X-47539D01*
X-47943Y125219D01*
X-48799Y126701D01*
X-50009Y127911D01*
X-50729Y128327D01*
Y129793D01*
X-50009Y130209D01*
X-48799Y131419D01*
X-47966Y132861D01*
X-24865D01*
X-24549Y132545D01*
X-22895Y131860D01*
X-21105D01*
X-19451Y132545D01*
X-18185Y133811D01*
X-17500Y135465D01*
Y137255D01*
X-18185Y138909D01*
X-19451Y140175D01*
X-21105Y140860D01*
X-22895D01*
X-24549Y140175D01*
X-25815Y138909D01*
X-26208Y137959D01*
X-47966D01*
X-48799Y139401D01*
X-50009Y140611D01*
X-50729Y141027D01*
Y142493D01*
X-50009Y142909D01*
X-48799Y144119D01*
X-47966Y145561D01*
X-16136D01*
X-15161Y145755D01*
X-14334Y146308D01*
X1171Y161812D01*
X28305D01*
X28553Y160887D01*
X29738Y158835D01*
X31413Y157160D01*
X33466Y155975D01*
X35755Y155361D01*
X38124D01*
X40413Y155975D01*
X42466Y157160D01*
X44141Y158835D01*
X45326Y160887D01*
X45939Y163176D01*
Y165546D01*
X45326Y167835D01*
X44141Y169887D01*
X42466Y171563D01*
X40413Y172748D01*
X38124Y173361D01*
X35755D01*
X33466Y172748D01*
X31413Y171563D01*
X29738Y169887D01*
X28553Y167835D01*
X28305Y166910D01*
X115D01*
X-861Y166716D01*
X-1688Y166164D01*
X-17192Y150659D01*
X-47966D01*
X-48799Y152101D01*
X-50009Y153311D01*
X-50729Y153727D01*
Y155193D01*
X-50009Y155609D01*
X-48799Y156819D01*
X-47943Y158301D01*
X-47500Y159954D01*
Y161666D01*
X-47943Y163319D01*
X-48799Y164801D01*
X-50009Y166011D01*
X-50729Y166427D01*
Y167893D01*
X-50009Y168309D01*
X-48799Y169519D01*
X-47943Y171001D01*
X-47500Y172654D01*
Y174366D01*
X-47943Y176019D01*
X-48799Y177501D01*
X-50009Y178711D01*
X-50729Y179127D01*
Y180593D01*
X-50009Y181009D01*
X-48799Y182219D01*
X-47943Y183701D01*
X-47500Y185354D01*
Y187066D01*
X-47943Y188719D01*
X-48799Y190201D01*
X-50009Y191411D01*
X-50729Y191827D01*
Y193293D01*
X-50009Y193709D01*
X-48799Y194919D01*
X-47943Y196401D01*
X-47500Y198054D01*
Y199766D01*
X-47943Y201419D01*
X-48799Y202901D01*
X-50009Y204111D01*
X-50945Y204652D01*
X-50605Y205922D01*
X-20000Y205922D01*
X-20000Y205922D01*
X-18439Y206232D01*
X-17116Y207116D01*
X2884Y227116D01*
X2884Y227116D01*
X3768Y228439D01*
X4078Y230000D01*
Y254921D01*
X10640Y261482D01*
X47000D01*
X47250Y261532D01*
X47504Y261514D01*
X48024Y261686D01*
X48561Y261793D01*
X48772Y261934D01*
X49014Y262014D01*
X49428Y262372D01*
X49884Y262677D01*
X50025Y262889D01*
X50218Y263055D01*
X85933Y308922D01*
X97443D01*
X97969Y307652D01*
X97309Y306991D01*
X96453Y305509D01*
X96010Y303856D01*
Y302144D01*
X96453Y300491D01*
X97309Y299009D01*
X98519Y297799D01*
X100001Y296943D01*
X101654Y296500D01*
X103366D01*
X105019Y296943D01*
X106501Y297799D01*
X107711Y299009D01*
X108127Y299729D01*
X109593D01*
X110009Y299009D01*
X111219Y297799D01*
X112701Y296943D01*
X114210Y296539D01*
Y303000D01*
X116210D01*
Y296539D01*
X117719Y296943D01*
X119201Y297799D01*
X120411Y299009D01*
X120827Y299729D01*
X122293D01*
X122709Y299009D01*
X123919Y297799D01*
X125401Y296943D01*
X127054Y296500D01*
X128766D01*
X130419Y296943D01*
X131901Y297799D01*
X133111Y299009D01*
X133527Y299729D01*
X134993D01*
X135409Y299009D01*
X136619Y297799D01*
X138101Y296943D01*
X139754Y296500D01*
X141466D01*
X143119Y296943D01*
X144601Y297799D01*
X145811Y299009D01*
X146227Y299729D01*
X147693D01*
X148109Y299009D01*
X149319Y297799D01*
X150801Y296943D01*
X152454Y296500D01*
X154166D01*
X155819Y296943D01*
X157301Y297799D01*
X158511Y299009D01*
X158927Y299729D01*
X160393D01*
X160809Y299009D01*
X162019Y297799D01*
X163461Y296966D01*
Y290774D01*
X116190D01*
X115424Y291540D01*
X113770Y292225D01*
X111980D01*
X110326Y291540D01*
X109060Y290274D01*
X108375Y288620D01*
Y286830D01*
X109060Y285176D01*
X110326Y283910D01*
X111980Y283225D01*
X113770D01*
X115424Y283910D01*
X116690Y285176D01*
X116897Y285676D01*
X164838D01*
X165814Y285870D01*
X166641Y286422D01*
X167812Y287594D01*
X168365Y288421D01*
X168559Y289396D01*
Y296966D01*
X170001Y297799D01*
X171211Y299009D01*
X171627Y299729D01*
X173093D01*
X173509Y299009D01*
X174719Y297799D01*
X176201Y296943D01*
X177854Y296500D01*
X179566D01*
X181219Y296943D01*
X182701Y297799D01*
X183911Y299009D01*
X184327Y299729D01*
X185793D01*
X186209Y299009D01*
X187419Y297799D01*
X188901Y296943D01*
X190554Y296500D01*
X192266D01*
X193919Y296943D01*
X195401Y297799D01*
X196611Y299009D01*
X197467Y300491D01*
X197910Y302144D01*
Y303856D01*
X197467Y305509D01*
X196611Y306991D01*
X195951Y307652D01*
X196477Y308922D01*
X207910D01*
X243625Y263055D01*
D02*
G37*
G36*
X143327Y191398D02*
X143327Y191397D01*
Y189607D01*
X144012Y187953D01*
X145278Y186688D01*
X146932Y186002D01*
X148722D01*
X150376Y186688D01*
X151642Y187953D01*
X152327Y189607D01*
Y190630D01*
X153509Y191812D01*
X249831D01*
X250357Y190542D01*
X249702Y189887D01*
X248517Y187835D01*
X247903Y185546D01*
Y183176D01*
X248517Y180887D01*
X249702Y178835D01*
X251377Y177160D01*
X253430Y175975D01*
X255719Y175361D01*
X258088D01*
X260377Y175975D01*
X262430Y177160D01*
X264105Y178835D01*
X265290Y180887D01*
X265903Y183176D01*
Y185546D01*
X265290Y187835D01*
X264105Y189887D01*
X262916Y191077D01*
X262874Y191331D01*
X263338Y192451D01*
X265848D01*
X299211Y159088D01*
X300038Y158535D01*
X301014Y158341D01*
X341966D01*
X342799Y156899D01*
X344009Y155689D01*
X344729Y155273D01*
Y153807D01*
X344009Y153391D01*
X342799Y152181D01*
X341943Y150699D01*
X341500Y149046D01*
Y147334D01*
X341943Y145681D01*
X342799Y144199D01*
X344009Y142989D01*
X344729Y142573D01*
Y141107D01*
X344009Y140691D01*
X342799Y139481D01*
X341943Y137999D01*
X341500Y136346D01*
Y134634D01*
X341943Y132981D01*
X342799Y131499D01*
X344009Y130289D01*
X344729Y129873D01*
Y128407D01*
X344009Y127991D01*
X342799Y126781D01*
X341943Y125299D01*
X341500Y123646D01*
Y121934D01*
X341943Y120281D01*
X342799Y118799D01*
X344009Y117589D01*
X344729Y117173D01*
Y115707D01*
X344009Y115291D01*
X342799Y114081D01*
X341943Y112599D01*
X341500Y110946D01*
Y109234D01*
X341943Y107581D01*
X342799Y106099D01*
X344009Y104889D01*
X344945Y104348D01*
X344605Y103078D01*
X314000D01*
X314000Y103078D01*
X312439Y102768D01*
X311116Y101884D01*
X291116Y81884D01*
X291116Y81884D01*
X290232Y80561D01*
X289922Y79000D01*
X289922Y79000D01*
Y52579D01*
X283421Y46078D01*
X266904Y46078D01*
X266790Y46056D01*
X266675Y46072D01*
X266013Y45901D01*
X265343Y45768D01*
X265246Y45703D01*
X265134Y45674D01*
X264588Y45264D01*
X264020Y44884D01*
X263955Y44787D01*
X263862Y44717D01*
X223079Y-922D01*
X196557D01*
X196031Y348D01*
X196691Y1009D01*
X197547Y2491D01*
X197990Y4144D01*
Y5856D01*
X197547Y7509D01*
X196691Y8991D01*
X195481Y10201D01*
X193999Y11057D01*
X192346Y11500D01*
X190634D01*
X188981Y11057D01*
X187499Y10201D01*
X186289Y8991D01*
X185873Y8271D01*
X184407D01*
X183991Y8991D01*
X182781Y10201D01*
X181299Y11057D01*
X179790Y11461D01*
Y5000D01*
X177790D01*
Y11461D01*
X176281Y11057D01*
X174799Y10201D01*
X173589Y8991D01*
X173173Y8271D01*
X171707D01*
X171291Y8991D01*
X170081Y10201D01*
X168599Y11057D01*
X166946Y11500D01*
X165234D01*
X163626Y11069D01*
X147048Y27646D01*
X146222Y28199D01*
X145246Y28393D01*
X135531D01*
X130074Y33850D01*
Y116746D01*
X133092Y119764D01*
X133920D01*
X135574Y120449D01*
X136840Y121715D01*
X137525Y123369D01*
Y125160D01*
X136840Y126813D01*
X135574Y128079D01*
X133920Y128764D01*
X132130D01*
X130476Y128079D01*
X129210Y126813D01*
X128525Y125160D01*
Y123668D01*
X128445Y123591D01*
X128027Y123622D01*
X127046Y124002D01*
X127042Y124007D01*
X126490Y125339D01*
X125224Y126605D01*
X123570Y127290D01*
X123045Y128560D01*
X129792Y135308D01*
X130345Y136135D01*
X130539Y137110D01*
Y151875D01*
X146306D01*
Y149769D01*
X145893Y148770D01*
Y146980D01*
X146578Y145326D01*
X147844Y144060D01*
X149497Y143375D01*
X151288D01*
X152942Y144060D01*
X154207Y145326D01*
X154893Y146980D01*
Y148770D01*
X154207Y150424D01*
X154027Y150605D01*
X154553Y151875D01*
X166625D01*
Y152125D01*
X169844D01*
Y145584D01*
X170038Y144608D01*
X170590Y143781D01*
X171064Y143308D01*
X171891Y142755D01*
X172866Y142561D01*
X173842Y142755D01*
X174669Y143308D01*
X175221Y144135D01*
X175415Y145110D01*
X175221Y146085D01*
X174942Y146504D01*
Y152125D01*
X177125D01*
Y151875D01*
X198625D01*
Y152125D01*
X204475D01*
Y162375D01*
Y172625D01*
X198375D01*
Y165875D01*
X190535D01*
X190009Y167145D01*
X190690Y167826D01*
X191375Y169480D01*
Y171270D01*
X190690Y172924D01*
X189424Y174190D01*
X187770Y174875D01*
X185980D01*
X184326Y174190D01*
X183060Y172924D01*
X182919Y172583D01*
X182312Y172177D01*
X181073Y170938D01*
X180520Y170111D01*
X180326Y169136D01*
Y165875D01*
X177125D01*
Y165625D01*
X172875D01*
Y158875D01*
X170875D01*
Y165905D01*
X170506Y166895D01*
X171437Y167826D01*
X172122Y169480D01*
Y171270D01*
X171437Y172924D01*
X170171Y174190D01*
X168517Y174875D01*
X166727D01*
X165073Y174190D01*
X163807Y172924D01*
X163122Y171270D01*
Y169480D01*
X163122Y169480D01*
X161577Y167935D01*
X161024Y167108D01*
X160830Y166132D01*
Y165875D01*
X148854D01*
X148368Y167048D01*
X162314Y180995D01*
X209956D01*
X210302Y180294D01*
X210441Y179725D01*
X209970Y179020D01*
X209776Y178044D01*
Y176556D01*
X208523Y175302D01*
X207970Y174475D01*
X207776Y173500D01*
Y172625D01*
X206475D01*
Y163375D01*
X212575D01*
Y166092D01*
X212680Y166250D01*
X212874Y167225D01*
Y172444D01*
X214127Y173698D01*
X214680Y174524D01*
X214874Y175500D01*
Y178044D01*
X214680Y179020D01*
X214209Y179725D01*
X214348Y180294D01*
X214694Y180995D01*
X218501D01*
X218799Y180278D01*
X220065Y179012D01*
X220065Y179012D01*
Y171895D01*
X220259Y170920D01*
X220811Y170093D01*
X228345Y162559D01*
X229172Y162006D01*
X230147Y161812D01*
X248269D01*
X248517Y160887D01*
X249702Y158835D01*
X251377Y157160D01*
X253430Y155975D01*
X255719Y155361D01*
X258088D01*
X260377Y155975D01*
X262430Y157160D01*
X264105Y158835D01*
X265290Y160887D01*
X265903Y163176D01*
Y165546D01*
X265290Y167835D01*
X264105Y169887D01*
X262430Y171563D01*
X260377Y172748D01*
X258088Y173361D01*
X255719D01*
X253430Y172748D01*
X251377Y171563D01*
X249702Y169887D01*
X248517Y167835D01*
X248269Y166910D01*
X231203D01*
X225163Y172951D01*
Y179012D01*
X225163Y179012D01*
X226428Y180278D01*
X227113Y181932D01*
Y183722D01*
X226428Y185376D01*
X225163Y186642D01*
X223509Y187327D01*
X221718D01*
X220065Y186642D01*
X219516Y186093D01*
X161259D01*
X160283Y185899D01*
X159456Y185347D01*
X141323Y167213D01*
X140770Y166386D01*
X140668Y165875D01*
X128532D01*
X128006Y167145D01*
X128687Y167826D01*
X129372Y169480D01*
Y171270D01*
X128687Y172924D01*
X127421Y174190D01*
X125767Y174875D01*
X123977D01*
X122323Y174190D01*
X121057Y172924D01*
X121057Y172924D01*
X113211D01*
X112236Y172730D01*
X111409Y172177D01*
X107897Y168666D01*
X106724Y169152D01*
Y195474D01*
X113060D01*
X114035Y195668D01*
X114862Y196221D01*
X117230Y198589D01*
X117230Y198589D01*
X119020D01*
X120674Y199274D01*
X121940Y200540D01*
X121940Y200540D01*
X134185D01*
X143327Y191398D01*
D02*
G37*
G36*
X311725Y171788D02*
X312552Y171235D01*
X313528Y171041D01*
X341966D01*
X342799Y169599D01*
X344009Y168389D01*
X344729Y167973D01*
Y166507D01*
X344009Y166091D01*
X342799Y164881D01*
X341966Y163439D01*
X302069D01*
X268706Y196802D01*
X267879Y197355D01*
X266903Y197549D01*
X264478D01*
X263992Y198722D01*
X264105Y198835D01*
X265290Y200887D01*
X265903Y203176D01*
Y205546D01*
X265290Y207835D01*
X264513Y209181D01*
X265246Y210451D01*
X273062D01*
X311725Y171788D01*
D02*
G37*
%LPC*%
G36*
X196225Y275375D02*
X174225D01*
Y258875D01*
X196225D01*
Y275375D01*
D02*
G37*
G36*
X136525D02*
X114525D01*
Y258875D01*
X136525D01*
Y275375D01*
D02*
G37*
G36*
X98025Y263875D02*
X83025D01*
Y250875D01*
X98025D01*
Y263875D01*
D02*
G37*
G36*
X141420Y245754D02*
X139630D01*
X137976Y245069D01*
X136710Y243803D01*
X136025Y242149D01*
Y240359D01*
X136710Y238705D01*
X137976Y237439D01*
X139630Y236754D01*
X141420D01*
X143074Y237439D01*
X144340Y238705D01*
X145025Y240359D01*
Y242149D01*
X144340Y243803D01*
X143074Y245069D01*
X141420Y245754D01*
D02*
G37*
G36*
X258088Y253361D02*
X255719D01*
X253430Y252748D01*
X251377Y251563D01*
X249702Y249887D01*
X248517Y247835D01*
X247903Y245546D01*
Y243176D01*
X248517Y240887D01*
X249702Y238835D01*
X251377Y237160D01*
X253430Y235975D01*
X255719Y235361D01*
X258088D01*
X260377Y235975D01*
X262430Y237160D01*
X264105Y238835D01*
X265290Y240887D01*
X265903Y243176D01*
Y245546D01*
X265290Y247835D01*
X264105Y249887D01*
X262430Y251563D01*
X260377Y252748D01*
X258088Y253361D01*
D02*
G37*
G36*
X38124D02*
X35755D01*
X33466Y252748D01*
X31413Y251563D01*
X29738Y249887D01*
X28553Y247835D01*
X27940Y245546D01*
Y243176D01*
X28553Y240887D01*
X29738Y238835D01*
X31413Y237160D01*
X33466Y235975D01*
X35755Y235361D01*
X38124D01*
X40413Y235975D01*
X42466Y237160D01*
X44141Y238835D01*
X45326Y240887D01*
X45939Y243176D01*
Y245546D01*
X45326Y247835D01*
X44141Y249887D01*
X42466Y251563D01*
X40413Y252748D01*
X38124Y253361D01*
D02*
G37*
G36*
Y233361D02*
X35755D01*
X33466Y232748D01*
X31413Y231563D01*
X29738Y229887D01*
X28553Y227835D01*
X27940Y225546D01*
Y223176D01*
X28553Y220887D01*
X29738Y218835D01*
X31413Y217160D01*
X33466Y215975D01*
X35755Y215361D01*
X38124D01*
X40413Y215975D01*
X42466Y217160D01*
X44141Y218835D01*
X45326Y220887D01*
X45939Y223176D01*
Y225546D01*
X45326Y227835D01*
X44141Y229887D01*
X42466Y231563D01*
X40413Y232748D01*
X38124Y233361D01*
D02*
G37*
G36*
Y213361D02*
X35755D01*
X33466Y212748D01*
X31413Y211563D01*
X29738Y209887D01*
X28553Y207835D01*
X27940Y205546D01*
Y203176D01*
X28553Y200887D01*
X29738Y198835D01*
X31413Y197160D01*
X33466Y195975D01*
X35755Y195361D01*
X38124D01*
X40413Y195975D01*
X42466Y197160D01*
X44141Y198835D01*
X45326Y200887D01*
X45939Y203176D01*
Y205546D01*
X45326Y207835D01*
X44141Y209887D01*
X42466Y211563D01*
X40413Y212748D01*
X38124Y213361D01*
D02*
G37*
G36*
Y193361D02*
X35755D01*
X33466Y192748D01*
X31413Y191563D01*
X29738Y189887D01*
X28553Y187835D01*
X27940Y185546D01*
Y183176D01*
X28553Y180887D01*
X29738Y178835D01*
X31413Y177160D01*
X33466Y175975D01*
X35755Y175361D01*
X38124D01*
X40413Y175975D01*
X42466Y177160D01*
X44141Y178835D01*
X45326Y180887D01*
X45939Y183176D01*
Y185546D01*
X45326Y187835D01*
X44141Y189887D01*
X42466Y191563D01*
X40413Y192748D01*
X38124Y193361D01*
D02*
G37*
G36*
X91275Y168125D02*
X83275D01*
Y162674D01*
X78275D01*
X77300Y162480D01*
X76473Y161927D01*
X75723Y161177D01*
X75170Y160350D01*
X74976Y159375D01*
X75170Y158400D01*
X75723Y157573D01*
X76550Y157020D01*
X77525Y156826D01*
X78500Y157020D01*
X79327Y157573D01*
X79331Y157576D01*
X83275D01*
Y152125D01*
X91275D01*
Y160125D01*
Y168125D01*
D02*
G37*
G36*
X101020Y149610D02*
X99230D01*
X97576Y148925D01*
X96310Y147659D01*
X96310Y147659D01*
X87090D01*
X87090Y147659D01*
X85824Y148925D01*
X84170Y149610D01*
X82380D01*
X80726Y148925D01*
X79460Y147659D01*
X78775Y146005D01*
Y144215D01*
X79460Y142561D01*
X80726Y141295D01*
X82380Y140610D01*
X84170D01*
X85824Y141295D01*
X87090Y142561D01*
X87090Y142561D01*
X96310D01*
X96310Y142561D01*
X97576Y141295D01*
X99230Y140610D01*
X101020D01*
X102674Y141295D01*
X103940Y142561D01*
X104625Y144215D01*
Y146005D01*
X103940Y147659D01*
X102674Y148925D01*
X101020Y149610D01*
D02*
G37*
G36*
X38124Y153361D02*
X35755D01*
X33466Y152748D01*
X31413Y151563D01*
X29738Y149887D01*
X28553Y147835D01*
X27940Y145546D01*
Y143176D01*
X28553Y140887D01*
X29738Y138835D01*
X31413Y137160D01*
X33466Y135975D01*
X35755Y135361D01*
X38124D01*
X40413Y135975D01*
X42466Y137160D01*
X44141Y138835D01*
X45326Y140887D01*
X45939Y143176D01*
Y145546D01*
X45326Y147835D01*
X44141Y149887D01*
X42466Y151563D01*
X40413Y152748D01*
X38124Y153361D01*
D02*
G37*
G36*
Y133361D02*
X35755D01*
X33466Y132748D01*
X31413Y131563D01*
X29738Y129887D01*
X28553Y127835D01*
X27940Y125546D01*
Y123176D01*
X28553Y120887D01*
X29738Y118835D01*
X31413Y117160D01*
X33466Y115975D01*
X35755Y115361D01*
X38124D01*
X40413Y115975D01*
X42466Y117160D01*
X44141Y118835D01*
X45326Y120887D01*
X45939Y123176D01*
Y125546D01*
X45326Y127835D01*
X44141Y129887D01*
X42466Y131563D01*
X40413Y132748D01*
X38124Y133361D01*
D02*
G37*
G36*
Y113361D02*
X35755D01*
X33466Y112748D01*
X31413Y111563D01*
X29738Y109887D01*
X28553Y107835D01*
X27940Y105546D01*
Y103176D01*
X28553Y100887D01*
X29738Y98835D01*
X31413Y97160D01*
X33466Y95975D01*
X35755Y95361D01*
X38124D01*
X40413Y95975D01*
X42466Y97160D01*
X44141Y98835D01*
X45326Y100887D01*
X45939Y103176D01*
Y105546D01*
X45326Y107835D01*
X44141Y109887D01*
X42466Y111563D01*
X40413Y112748D01*
X38124Y113361D01*
D02*
G37*
G36*
Y93361D02*
X35755D01*
X33466Y92748D01*
X31413Y91563D01*
X29738Y89888D01*
X28553Y87835D01*
X27940Y85546D01*
Y83176D01*
X28553Y80887D01*
X29738Y78835D01*
X31413Y77160D01*
X33466Y75975D01*
X35755Y75361D01*
X38124D01*
X40413Y75975D01*
X42466Y77160D01*
X44141Y78835D01*
X45326Y80887D01*
X45939Y83176D01*
Y85546D01*
X45326Y87835D01*
X44141Y89888D01*
X42466Y91563D01*
X40413Y92748D01*
X38124Y93361D01*
D02*
G37*
G36*
Y73361D02*
X37940D01*
Y65361D01*
X45939D01*
Y65546D01*
X45326Y67835D01*
X44141Y69887D01*
X42466Y71563D01*
X40413Y72748D01*
X38124Y73361D01*
D02*
G37*
G36*
X35940D02*
X35755D01*
X33466Y72748D01*
X31413Y71563D01*
X29738Y69887D01*
X28553Y67835D01*
X27940Y65546D01*
Y65361D01*
X35940D01*
Y73361D01*
D02*
G37*
G36*
X45939Y63361D02*
X37940D01*
Y55361D01*
X38124D01*
X40413Y55975D01*
X42466Y57160D01*
X44141Y58835D01*
X45326Y60887D01*
X45939Y63176D01*
Y63361D01*
D02*
G37*
G36*
X35940D02*
X27940D01*
Y63176D01*
X28553Y60887D01*
X29738Y58835D01*
X31413Y57160D01*
X33466Y55975D01*
X35755Y55361D01*
X35940D01*
Y63361D01*
D02*
G37*
G36*
X141770Y186250D02*
X139980D01*
X138326Y185565D01*
X137060Y184299D01*
X136375Y182645D01*
Y180855D01*
X137060Y179201D01*
X138326Y177935D01*
X139980Y177250D01*
X141770D01*
X143424Y177935D01*
X144690Y179201D01*
X145375Y180855D01*
Y182645D01*
X144690Y184299D01*
X143424Y185565D01*
X141770Y186250D01*
D02*
G37*
G36*
X212575Y161375D02*
X206475D01*
Y152125D01*
X212575D01*
Y161375D01*
D02*
G37*
G36*
X258088Y153361D02*
X255719D01*
X253430Y152748D01*
X251377Y151563D01*
X249702Y149887D01*
X248517Y147835D01*
X247903Y145546D01*
Y143176D01*
X248517Y140887D01*
X249702Y138835D01*
X251377Y137160D01*
X253430Y135975D01*
X255719Y135361D01*
X258088D01*
X260377Y135975D01*
X262430Y137160D01*
X264105Y138835D01*
X265290Y140887D01*
X265903Y143176D01*
Y145546D01*
X265290Y147835D01*
X264105Y149887D01*
X262430Y151563D01*
X260377Y152748D01*
X258088Y153361D01*
D02*
G37*
G36*
Y133361D02*
X255719D01*
X253430Y132748D01*
X251377Y131563D01*
X249702Y129887D01*
X248517Y127835D01*
X247903Y125546D01*
Y123176D01*
X248517Y120887D01*
X249702Y118835D01*
X251377Y117160D01*
X253430Y115975D01*
X255719Y115361D01*
X258088D01*
X260377Y115975D01*
X262430Y117160D01*
X264105Y118835D01*
X265290Y120887D01*
X265903Y123176D01*
Y125546D01*
X265290Y127835D01*
X264105Y129887D01*
X262430Y131563D01*
X260377Y132748D01*
X258088Y133361D01*
D02*
G37*
G36*
X211814Y120000D02*
X210023D01*
X208370Y119315D01*
X207104Y118049D01*
X206419Y116395D01*
Y114605D01*
X207104Y112951D01*
X208370Y111685D01*
X210023Y111000D01*
X211814D01*
X213468Y111685D01*
X214734Y112951D01*
X215418Y114605D01*
Y116395D01*
X214734Y118049D01*
X213468Y119315D01*
X211814Y120000D01*
D02*
G37*
G36*
X258088Y113361D02*
X255719D01*
X253430Y112748D01*
X251377Y111563D01*
X249702Y109887D01*
X248517Y107835D01*
X247903Y105546D01*
Y103176D01*
X248517Y100887D01*
X249702Y98835D01*
X251377Y97160D01*
X253430Y95975D01*
X255719Y95361D01*
X258088D01*
X260377Y95975D01*
X262430Y97160D01*
X264105Y98835D01*
X265290Y100887D01*
X265903Y103176D01*
Y105546D01*
X265290Y107835D01*
X264105Y109887D01*
X262430Y111563D01*
X260377Y112748D01*
X258088Y113361D01*
D02*
G37*
G36*
Y93361D02*
X255719D01*
X253430Y92748D01*
X251377Y91563D01*
X249702Y89888D01*
X248517Y87835D01*
X247903Y85546D01*
Y83176D01*
X248517Y80887D01*
X249702Y78835D01*
X251377Y77160D01*
X253430Y75975D01*
X255719Y75361D01*
X258088D01*
X260377Y75975D01*
X262430Y77160D01*
X264105Y78835D01*
X265290Y80887D01*
X265903Y83176D01*
Y85546D01*
X265290Y87835D01*
X264105Y89888D01*
X262430Y91563D01*
X260377Y92748D01*
X258088Y93361D01*
D02*
G37*
G36*
X147492Y65038D02*
X145702D01*
X144048Y64353D01*
X142782Y63088D01*
X142573Y62583D01*
X141199D01*
X140990Y63088D01*
X139724Y64353D01*
X138070Y65038D01*
X136280D01*
X134626Y64353D01*
X133360Y63088D01*
X132675Y61434D01*
Y59643D01*
X133360Y57990D01*
X133854Y57495D01*
X134576Y56666D01*
X133854Y55836D01*
X133360Y55342D01*
X132675Y53688D01*
Y51898D01*
X133360Y50244D01*
X134050Y49554D01*
X134293Y48444D01*
X133989Y47956D01*
X133060Y47027D01*
X132375Y45373D01*
Y43583D01*
X133060Y41929D01*
X133671Y41319D01*
X134212Y40489D01*
X133671Y39660D01*
X133060Y39049D01*
X132375Y37395D01*
Y35605D01*
X133060Y33951D01*
X134326Y32685D01*
X135980Y32000D01*
X137770D01*
X139424Y32685D01*
X140690Y33951D01*
X141049Y34817D01*
X142423D01*
X142782Y33951D01*
X144048Y32685D01*
X145702Y32000D01*
X147492D01*
X149146Y32685D01*
X150412Y33951D01*
X151097Y35605D01*
Y37395D01*
X150412Y39049D01*
X149802Y39660D01*
X149260Y40489D01*
X149802Y41319D01*
X150412Y41929D01*
X151097Y43583D01*
Y45373D01*
X150412Y47027D01*
X149634Y47806D01*
X149289Y48636D01*
X149634Y49465D01*
X150412Y50244D01*
X151097Y51898D01*
Y53688D01*
X150412Y55342D01*
X149918Y55836D01*
X149197Y56666D01*
X149918Y57495D01*
X150412Y57990D01*
X151097Y59643D01*
Y61434D01*
X150412Y63088D01*
X149146Y64353D01*
X147492Y65038D01*
D02*
G37*
G36*
X258088Y73361D02*
X255719D01*
X253430Y72748D01*
X251377Y71563D01*
X249702Y69887D01*
X248517Y67835D01*
X247903Y65546D01*
Y63176D01*
X248517Y60887D01*
X249702Y58835D01*
X251377Y57160D01*
X253430Y55975D01*
X255719Y55361D01*
X258088D01*
X260377Y55975D01*
X262430Y57160D01*
X264105Y58835D01*
X265290Y60887D01*
X265903Y63176D01*
Y65546D01*
X265290Y67835D01*
X264105Y69887D01*
X262430Y71563D01*
X260377Y72748D01*
X258088Y73361D01*
D02*
G37*
%LPD*%
D11*
X222614Y171895D02*
X230147Y164361D01*
X222614Y171895D02*
Y182827D01*
X161259Y183544D02*
X221896D01*
X222614Y182827D01*
X143125Y165410D02*
X161259Y183544D01*
X212325Y175500D02*
Y178044D01*
X210325Y167225D02*
Y173500D01*
X212325Y175500D01*
X205475Y162375D02*
X210325Y167225D01*
X136046Y22344D02*
X153390Y5000D01*
X122675Y32694D02*
Y122790D01*
X133025Y22344D02*
X136046D01*
X122675Y32694D02*
X133025Y22344D01*
X127525Y32794D02*
X134475Y25844D01*
X127525Y32794D02*
Y117602D01*
X134475Y25844D02*
X145246D01*
X166090Y5000D01*
X107675Y154789D02*
Y164839D01*
X113211Y170375D02*
X124872D01*
X107675Y164839D02*
X113211Y170375D01*
X107675Y154789D02*
X119978Y142486D01*
X104175Y153340D02*
Y196554D01*
Y153340D02*
X112025Y145490D01*
X104175Y196554D02*
X105644Y198023D01*
X113060D01*
X118125Y203089D01*
X119978Y138407D02*
Y142486D01*
Y138407D02*
X120743Y137642D01*
X112025Y136907D02*
Y145490D01*
X83275Y145110D02*
X100125D01*
X80357Y115702D02*
X82357Y117702D01*
X108582D01*
X79275Y115702D02*
X80357D01*
X108582Y117702D02*
X127990Y137110D01*
Y158760D01*
X127425Y117702D02*
X133025Y123302D01*
Y124264D01*
X127425Y117702D02*
X127525Y117602D01*
X127875Y158875D02*
X127990Y158760D01*
X115849Y32000D02*
X128349Y19500D01*
Y5358D02*
Y19500D01*
X66000Y32000D02*
X115849D01*
X77525Y159375D02*
X78275Y160125D01*
X92275D01*
X171875Y158875D02*
X172393Y158357D01*
Y145584D02*
Y158357D01*
Y145584D02*
X172866Y145110D01*
X205303Y162204D02*
X205475Y162375D01*
X102192Y218000D02*
X102677D01*
X106677Y222000D01*
X211744D01*
X143125Y164375D02*
Y165410D01*
X138875Y158875D02*
Y160125D01*
X143125Y164375D01*
X184114Y170375D02*
X186875D01*
X182875Y158875D02*
Y169136D01*
X184114Y170375D01*
X163379Y161379D02*
Y166132D01*
X160875Y158875D02*
X163379Y161379D01*
Y166132D02*
X167622Y170375D01*
X211744Y222000D02*
X213918Y224175D01*
X219732D01*
X219918Y224361D01*
X201583Y213000D02*
X204227Y215644D01*
X205310D01*
X186254Y213000D02*
X201583D01*
X152453Y194361D02*
X261046D01*
X147827Y190502D02*
X148595D01*
X152453Y194361D01*
X154964Y205928D02*
X231580D01*
X152893Y208000D02*
X154964Y205928D01*
X232262Y206610D02*
X245010D01*
X231580Y205928D02*
X232262Y206610D01*
X245010D02*
X252761Y214361D01*
X230147Y164361D02*
X256903D01*
X-54000Y135410D02*
X-22950D01*
X-22000Y136360D01*
X-16136Y148110D02*
X115Y164361D01*
X36939D01*
X-54000Y148110D02*
X-16136D01*
X127990Y5000D02*
X128349Y5358D01*
X56895Y41104D02*
X66000Y32000D01*
X56895Y41104D02*
Y193000D01*
X261684Y195000D02*
X266903D01*
X261046Y194361D02*
X261684Y195000D01*
X301014Y160890D02*
X348000D01*
X266903Y195000D02*
X301014Y160890D01*
X118125Y203089D02*
X135241D01*
X262407Y213000D02*
X274118D01*
X261046Y214361D02*
X262407Y213000D01*
X252761Y214361D02*
X261046D01*
X313528Y173590D02*
X348000D01*
X274118Y213000D02*
X313528Y173590D01*
X166010Y289396D02*
Y303000D01*
X164838Y288225D02*
X166010Y289396D01*
X113375Y288225D02*
X164838D01*
X112875Y287725D02*
X113375Y288225D01*
X135241Y203089D02*
X147827Y190502D01*
D43*
X149875Y148393D02*
X150393Y147875D01*
X149875Y148393D02*
Y158875D01*
D44*
X348000Y110090D02*
D03*
Y122790D02*
D03*
Y135490D02*
D03*
Y148190D02*
D03*
Y160890D02*
D03*
Y173590D02*
D03*
Y186290D02*
D03*
Y198990D02*
D03*
X-54000Y198910D02*
D03*
Y186210D02*
D03*
Y173510D02*
D03*
Y160810D02*
D03*
Y148110D02*
D03*
Y135410D02*
D03*
Y122710D02*
D03*
Y110010D02*
D03*
X102590Y5000D02*
D03*
X115290D02*
D03*
X127990D02*
D03*
X140690D02*
D03*
X153390D02*
D03*
X166090D02*
D03*
X178790D02*
D03*
X191490D02*
D03*
X191410Y303000D02*
D03*
X178710D02*
D03*
X166010D02*
D03*
X153310D02*
D03*
X140610D02*
D03*
X127910D02*
D03*
X115210D02*
D03*
X102510D02*
D03*
D45*
X36939Y104361D02*
D03*
Y64361D02*
D03*
Y84361D02*
D03*
Y164361D02*
D03*
Y124361D02*
D03*
Y144361D02*
D03*
Y224361D02*
D03*
Y184361D02*
D03*
Y204361D02*
D03*
Y244361D02*
D03*
X256903Y104361D02*
D03*
Y64361D02*
D03*
Y84361D02*
D03*
Y164361D02*
D03*
Y124361D02*
D03*
Y144361D02*
D03*
Y224361D02*
D03*
Y184361D02*
D03*
Y204361D02*
D03*
Y244361D02*
D03*
D46*
X60454Y218010D02*
D03*
X233941Y124000D02*
D03*
X229291Y247319D02*
D03*
X139559Y101629D02*
D03*
X208740Y21758D02*
D03*
X110958Y43685D02*
D03*
X68875Y270135D02*
D03*
X-16136Y194730D02*
D03*
X-5000Y142028D02*
D03*
Y114605D02*
D03*
D47*
X77525Y241254D02*
D03*
X222614Y182827D02*
D03*
X212325Y178044D02*
D03*
X161143Y115000D02*
D03*
X148595Y85293D02*
D03*
X156143Y260075D02*
D03*
X227195Y87611D02*
D03*
X163379Y20896D02*
D03*
X140525Y241254D02*
D03*
X100125Y145110D02*
D03*
X79275Y115702D02*
D03*
X124872Y170375D02*
D03*
X120743Y137642D02*
D03*
X133025Y124264D02*
D03*
X122675Y122790D02*
D03*
X112025Y136907D02*
D03*
X146597Y36500D02*
D03*
Y44478D02*
D03*
Y52793D02*
D03*
Y60539D02*
D03*
X136875Y36500D02*
D03*
Y44478D02*
D03*
X137175Y52793D02*
D03*
Y60539D02*
D03*
X76475Y12620D02*
D03*
X228315Y53041D02*
D03*
X210919Y115500D02*
D03*
X77525Y159375D02*
D03*
X172393Y145584D02*
D03*
X150393Y147875D02*
D03*
X140875Y181750D02*
D03*
X178385Y282621D02*
D03*
X167143Y215244D02*
D03*
X127119Y214361D02*
D03*
X186875Y170375D02*
D03*
X167622D02*
D03*
X205310Y215644D02*
D03*
X186254Y213000D02*
D03*
X219918Y224361D02*
D03*
X-22000Y136360D02*
D03*
X56895Y193000D02*
D03*
X102192Y218000D02*
D03*
X118125Y203089D02*
D03*
X152893Y208000D02*
D03*
X112875Y287725D02*
D03*
X83275Y145110D02*
D03*
X147827Y190502D02*
D03*
D52*
X205475Y162375D02*
D03*
D53*
X193375Y158875D02*
D03*
D54*
X182875D02*
D03*
X171875D02*
D03*
X160875D02*
D03*
X149875D02*
D03*
X138875D02*
D03*
X127875D02*
D03*
X116875D02*
D03*
D55*
X92275Y160125D02*
D03*
D56*
X90525Y257375D02*
D03*
Y220375D02*
D03*
D57*
X125525Y267125D02*
D03*
X185225D02*
D03*
M02*
