G04*
G04 #@! TF.GenerationSoftware,Altium Limited,Altium Designer,24.0.1 (36)*
G04*
G04 Layer_Color=32768*
%FSLAX44Y44*%
%MOMM*%
G71*
G04*
G04 #@! TF.SameCoordinates,BFD44B55-2052-4A58-B096-8A348341E0BB*
G04*
G04*
G04 #@! TF.FilePolarity,Positive*
G04*
G01*
G75*
%ADD11C,0.2000*%
G36*
X152903Y282717D02*
X152978D01*
X153062Y282700D01*
X153153Y282683D01*
X153261Y282667D01*
X153378Y282633D01*
X153503Y282600D01*
X153636Y282550D01*
X153770Y282492D01*
X153903Y282425D01*
X154036Y282342D01*
X154170Y282242D01*
X154295Y282133D01*
X154420Y282008D01*
X154428Y282000D01*
X154445Y281975D01*
X154478Y281933D01*
X154520Y281867D01*
X154561Y281792D01*
X154611Y281692D01*
X154670Y281575D01*
X154728Y281442D01*
X154786Y281284D01*
X154844Y281109D01*
X154894Y280909D01*
X154936Y280700D01*
X154978Y280459D01*
X155011Y280201D01*
X155028Y279926D01*
X155036Y279626D01*
Y279617D01*
Y279601D01*
Y279576D01*
Y279542D01*
Y279501D01*
X155028Y279451D01*
Y279326D01*
X155011Y279167D01*
X155003Y278993D01*
X154978Y278801D01*
X154953Y278593D01*
X154911Y278376D01*
X154869Y278151D01*
X154811Y277926D01*
X154745Y277701D01*
X154670Y277485D01*
X154578Y277285D01*
X154469Y277093D01*
X154353Y276926D01*
X154345Y276918D01*
X154328Y276893D01*
X154295Y276860D01*
X154245Y276810D01*
X154186Y276751D01*
X154111Y276693D01*
X154020Y276626D01*
X153928Y276551D01*
X153820Y276485D01*
X153695Y276418D01*
X153561Y276360D01*
X153420Y276302D01*
X153261Y276252D01*
X153095Y276218D01*
X152920Y276193D01*
X152737Y276185D01*
X152662D01*
X152612Y276193D01*
X152545Y276202D01*
X152470Y276210D01*
X152387Y276218D01*
X152295Y276235D01*
X152104Y276285D01*
X151895Y276360D01*
X151787Y276410D01*
X151687Y276468D01*
X151587Y276535D01*
X151495Y276610D01*
X151487Y276618D01*
X151470Y276626D01*
X151454Y276651D01*
X151420Y276685D01*
X151379Y276735D01*
X151337Y276785D01*
X151287Y276843D01*
X151237Y276918D01*
X151187Y276993D01*
X151137Y277085D01*
X151095Y277176D01*
X151045Y277285D01*
X150962Y277510D01*
X150937Y277643D01*
X150912Y277776D01*
X151695Y277834D01*
Y277826D01*
X151704Y277818D01*
Y277793D01*
X151712Y277759D01*
X151737Y277676D01*
X151770Y277576D01*
X151812Y277468D01*
X151870Y277360D01*
X151929Y277260D01*
X151995Y277168D01*
X152012Y277151D01*
X152053Y277118D01*
X152120Y277060D01*
X152212Y277001D01*
X152328Y276943D01*
X152462Y276885D01*
X152620Y276851D01*
X152787Y276835D01*
X152853D01*
X152920Y276843D01*
X153012Y276860D01*
X153112Y276885D01*
X153228Y276926D01*
X153336Y276976D01*
X153453Y277051D01*
X153470Y277060D01*
X153511Y277101D01*
X153578Y277160D01*
X153661Y277251D01*
X153753Y277360D01*
X153853Y277493D01*
X153945Y277651D01*
X154036Y277834D01*
Y277843D01*
X154045Y277859D01*
X154053Y277885D01*
X154070Y277926D01*
X154086Y277985D01*
X154103Y278051D01*
X154120Y278126D01*
X154145Y278209D01*
X154161Y278309D01*
X154178Y278426D01*
X154195Y278543D01*
X154211Y278676D01*
X154228Y278818D01*
X154245Y278976D01*
X154253Y279142D01*
Y279309D01*
X154236Y279301D01*
X154203Y279242D01*
X154145Y279167D01*
X154061Y279076D01*
X153961Y278967D01*
X153845Y278868D01*
X153711Y278759D01*
X153561Y278676D01*
X153553D01*
X153545Y278668D01*
X153520Y278659D01*
X153486Y278643D01*
X153412Y278609D01*
X153303Y278568D01*
X153170Y278526D01*
X153028Y278493D01*
X152870Y278468D01*
X152703Y278459D01*
X152628D01*
X152570Y278468D01*
X152503Y278476D01*
X152420Y278493D01*
X152337Y278509D01*
X152237Y278534D01*
X152137Y278559D01*
X152029Y278601D01*
X151920Y278651D01*
X151804Y278701D01*
X151687Y278776D01*
X151579Y278851D01*
X151470Y278943D01*
X151362Y279042D01*
X151354Y279051D01*
X151337Y279067D01*
X151312Y279101D01*
X151270Y279151D01*
X151229Y279209D01*
X151187Y279276D01*
X151137Y279359D01*
X151079Y279451D01*
X151029Y279551D01*
X150979Y279667D01*
X150937Y279784D01*
X150887Y279917D01*
X150854Y280067D01*
X150829Y280217D01*
X150812Y280375D01*
X150804Y280542D01*
Y280550D01*
Y280567D01*
Y280600D01*
Y280642D01*
X150812Y280700D01*
X150821Y280759D01*
X150837Y280909D01*
X150871Y281075D01*
X150912Y281267D01*
X150979Y281459D01*
X151070Y281658D01*
Y281667D01*
X151079Y281684D01*
X151095Y281709D01*
X151120Y281742D01*
X151179Y281833D01*
X151254Y281950D01*
X151362Y282075D01*
X151479Y282208D01*
X151620Y282333D01*
X151787Y282450D01*
X151795D01*
X151804Y282458D01*
X151829Y282475D01*
X151862Y282492D01*
X151912Y282517D01*
X151962Y282533D01*
X152087Y282583D01*
X152237Y282642D01*
X152412Y282683D01*
X152603Y282717D01*
X152812Y282725D01*
X152853D01*
X152903Y282717D01*
D02*
G37*
G36*
X158552D02*
X158635Y282708D01*
X158743Y282700D01*
X158852Y282692D01*
X158977Y282675D01*
X159243Y282625D01*
X159527Y282550D01*
X159668Y282500D01*
X159810Y282442D01*
X159943Y282383D01*
X160068Y282308D01*
X160076Y282300D01*
X160093Y282292D01*
X160126Y282267D01*
X160176Y282225D01*
X160226Y282183D01*
X160293Y282133D01*
X160360Y282067D01*
X160435Y281992D01*
X160518Y281917D01*
X160593Y281825D01*
X160676Y281725D01*
X160760Y281609D01*
X160843Y281492D01*
X160918Y281367D01*
X160993Y281225D01*
X161059Y281084D01*
Y281075D01*
X161076Y281050D01*
X161093Y281000D01*
X161110Y280942D01*
X161134Y280867D01*
X161168Y280784D01*
X161193Y280684D01*
X161226Y280567D01*
X161259Y280442D01*
X161285Y280309D01*
X161318Y280167D01*
X161343Y280026D01*
X161376Y279701D01*
X161393Y279367D01*
Y279359D01*
Y279326D01*
Y279268D01*
X161384Y279201D01*
Y279109D01*
X161376Y279009D01*
X161359Y278901D01*
X161343Y278776D01*
X161326Y278643D01*
X161301Y278501D01*
X161234Y278209D01*
X161143Y277918D01*
X161084Y277768D01*
X161018Y277626D01*
X161010Y277618D01*
X161001Y277593D01*
X160976Y277551D01*
X160943Y277501D01*
X160910Y277443D01*
X160860Y277368D01*
X160801Y277293D01*
X160735Y277201D01*
X160585Y277018D01*
X160393Y276835D01*
X160176Y276651D01*
X160051Y276568D01*
X159927Y276493D01*
X159918Y276485D01*
X159893Y276476D01*
X159852Y276460D01*
X159802Y276435D01*
X159735Y276402D01*
X159660Y276368D01*
X159568Y276335D01*
X159468Y276293D01*
X159352Y276260D01*
X159235Y276227D01*
X158968Y276160D01*
X158677Y276118D01*
X158527Y276102D01*
X158277D01*
X158210Y276110D01*
X158127Y276118D01*
X158027Y276127D01*
X157919Y276143D01*
X157802Y276160D01*
X157552Y276218D01*
X157419Y276260D01*
X157277Y276310D01*
X157144Y276368D01*
X157011Y276427D01*
X156877Y276510D01*
X156752Y276593D01*
X156744Y276602D01*
X156727Y276618D01*
X156686Y276643D01*
X156644Y276685D01*
X156594Y276735D01*
X156527Y276793D01*
X156461Y276868D01*
X156386Y276951D01*
X156311Y277043D01*
X156236Y277143D01*
X156161Y277260D01*
X156086Y277376D01*
X156011Y277510D01*
X155944Y277651D01*
X155878Y277810D01*
X155828Y277968D01*
X156661Y278168D01*
Y278159D01*
X156669Y278134D01*
X156686Y278101D01*
X156702Y278051D01*
X156727Y277993D01*
X156752Y277926D01*
X156827Y277776D01*
X156919Y277610D01*
X157027Y277443D01*
X157161Y277285D01*
X157235Y277218D01*
X157310Y277151D01*
X157319D01*
X157327Y277135D01*
X157352Y277118D01*
X157386Y277101D01*
X157427Y277076D01*
X157477Y277051D01*
X157602Y276985D01*
X157760Y276926D01*
X157944Y276876D01*
X158152Y276843D01*
X158385Y276826D01*
X158460D01*
X158510Y276835D01*
X158568D01*
X158644Y276843D01*
X158727Y276860D01*
X158818Y276868D01*
X159010Y276910D01*
X159218Y276976D01*
X159427Y277068D01*
X159527Y277118D01*
X159627Y277185D01*
X159635D01*
X159651Y277201D01*
X159677Y277218D01*
X159710Y277251D01*
X159793Y277326D01*
X159893Y277435D01*
X160010Y277568D01*
X160126Y277735D01*
X160235Y277918D01*
X160318Y278134D01*
Y278143D01*
X160326Y278159D01*
X160335Y278193D01*
X160351Y278234D01*
X160368Y278293D01*
X160385Y278359D01*
X160401Y278434D01*
X160418Y278509D01*
X160451Y278701D01*
X160485Y278909D01*
X160510Y279134D01*
X160518Y279367D01*
Y279376D01*
Y279401D01*
Y279442D01*
Y279501D01*
X160510Y279576D01*
X160501Y279659D01*
Y279751D01*
X160485Y279851D01*
X160460Y280076D01*
X160418Y280309D01*
X160360Y280559D01*
X160285Y280792D01*
Y280800D01*
X160276Y280817D01*
X160260Y280850D01*
X160235Y280892D01*
X160210Y280942D01*
X160185Y281000D01*
X160101Y281134D01*
X159993Y281284D01*
X159868Y281434D01*
X159718Y281575D01*
X159543Y281700D01*
X159535D01*
X159518Y281717D01*
X159493Y281725D01*
X159452Y281750D01*
X159410Y281767D01*
X159352Y281792D01*
X159218Y281850D01*
X159052Y281908D01*
X158868Y281950D01*
X158668Y281983D01*
X158452Y282000D01*
X158385D01*
X158335Y281992D01*
X158269Y281983D01*
X158202Y281975D01*
X158119Y281967D01*
X158035Y281950D01*
X157844Y281900D01*
X157644Y281825D01*
X157535Y281784D01*
X157435Y281725D01*
X157336Y281667D01*
X157244Y281592D01*
X157235Y281583D01*
X157219Y281575D01*
X157194Y281550D01*
X157161Y281517D01*
X157127Y281475D01*
X157077Y281417D01*
X157027Y281359D01*
X156977Y281284D01*
X156919Y281209D01*
X156861Y281117D01*
X156811Y281017D01*
X156752Y280909D01*
X156702Y280784D01*
X156652Y280659D01*
X156611Y280525D01*
X156569Y280375D01*
X155719Y280592D01*
Y280600D01*
X155736Y280634D01*
X155752Y280692D01*
X155769Y280767D01*
X155802Y280850D01*
X155844Y280950D01*
X155886Y281059D01*
X155944Y281184D01*
X156003Y281309D01*
X156077Y281442D01*
X156152Y281567D01*
X156244Y281700D01*
X156336Y281833D01*
X156444Y281958D01*
X156561Y282075D01*
X156686Y282183D01*
X156694Y282192D01*
X156719Y282208D01*
X156752Y282233D01*
X156811Y282267D01*
X156877Y282308D01*
X156961Y282358D01*
X157052Y282400D01*
X157152Y282450D01*
X157277Y282508D01*
X157402Y282550D01*
X157544Y282600D01*
X157694Y282642D01*
X157852Y282675D01*
X158019Y282700D01*
X158194Y282717D01*
X158377Y282725D01*
X158477D01*
X158552Y282717D01*
D02*
G37*
G36*
X185993Y40595D02*
X185143D01*
Y46244D01*
X181994D01*
Y47002D01*
X185993D01*
Y40595D01*
D02*
G37*
G36*
X179128Y41995D02*
X179144Y42003D01*
X179178Y42036D01*
X179244Y42095D01*
X179328Y42161D01*
X179436Y42245D01*
X179569Y42336D01*
X179711Y42436D01*
X179878Y42536D01*
X179886D01*
X179894Y42545D01*
X179919Y42561D01*
X179953Y42578D01*
X180044Y42628D01*
X180153Y42686D01*
X180278Y42753D01*
X180419Y42819D01*
X180561Y42886D01*
X180702Y42944D01*
Y42178D01*
X180694D01*
X180669Y42161D01*
X180636Y42145D01*
X180594Y42120D01*
X180536Y42095D01*
X180469Y42053D01*
X180311Y41970D01*
X180136Y41861D01*
X179936Y41728D01*
X179744Y41586D01*
X179553Y41428D01*
X179544Y41420D01*
X179528Y41412D01*
X179503Y41387D01*
X179469Y41353D01*
X179386Y41270D01*
X179278Y41153D01*
X179170Y41028D01*
X179053Y40878D01*
X178945Y40728D01*
X178853Y40570D01*
X178345D01*
Y47002D01*
X179128D01*
Y41995D01*
D02*
G37*
G36*
X160017Y86373D02*
X160092Y86365D01*
X160175Y86348D01*
X160267Y86332D01*
X160367Y86307D01*
X160476Y86273D01*
X160592Y86232D01*
X160709Y86182D01*
X160834Y86123D01*
X160950Y86048D01*
X161075Y85965D01*
X161192Y85873D01*
X161300Y85765D01*
X161309Y85757D01*
X161325Y85740D01*
X161350Y85707D01*
X161392Y85657D01*
X161434Y85598D01*
X161483Y85524D01*
X161534Y85440D01*
X161583Y85349D01*
X161642Y85240D01*
X161692Y85124D01*
X161742Y84999D01*
X161784Y84857D01*
X161825Y84715D01*
X161850Y84557D01*
X161867Y84399D01*
X161875Y84224D01*
Y84141D01*
X161867Y84082D01*
X161859Y84016D01*
X161850Y83932D01*
X161833Y83832D01*
X161808Y83732D01*
X161750Y83516D01*
X161709Y83399D01*
X161667Y83282D01*
X161609Y83157D01*
X161542Y83041D01*
X161467Y82933D01*
X161375Y82824D01*
X161367Y82816D01*
X161350Y82799D01*
X161325Y82774D01*
X161284Y82732D01*
X161234Y82691D01*
X161175Y82641D01*
X161100Y82591D01*
X161025Y82533D01*
X160934Y82483D01*
X160834Y82424D01*
X160725Y82374D01*
X160609Y82324D01*
X160484Y82274D01*
X160359Y82241D01*
X160217Y82208D01*
X160067Y82191D01*
X159959Y82974D01*
X159967D01*
X159992Y82983D01*
X160026Y82991D01*
X160067Y82999D01*
X160126Y83016D01*
X160184Y83032D01*
X160334Y83082D01*
X160492Y83141D01*
X160650Y83224D01*
X160809Y83316D01*
X160875Y83366D01*
X160934Y83424D01*
X160942Y83441D01*
X160975Y83482D01*
X161025Y83549D01*
X161075Y83649D01*
X161134Y83766D01*
X161175Y83899D01*
X161209Y84057D01*
X161225Y84224D01*
Y84282D01*
X161217Y84316D01*
Y84365D01*
X161209Y84424D01*
X161175Y84549D01*
X161134Y84699D01*
X161067Y84857D01*
X160967Y85015D01*
X160909Y85090D01*
X160842Y85165D01*
X160834Y85174D01*
X160825Y85182D01*
X160800Y85199D01*
X160775Y85224D01*
X160692Y85290D01*
X160575Y85357D01*
X160442Y85423D01*
X160275Y85490D01*
X160092Y85532D01*
X159992Y85548D01*
X159892D01*
X159884D01*
X159867D01*
X159842D01*
X159801Y85540D01*
X159759D01*
X159701Y85532D01*
X159576Y85507D01*
X159434Y85465D01*
X159284Y85399D01*
X159143Y85307D01*
X159067Y85257D01*
X159001Y85190D01*
X158984Y85174D01*
X158942Y85124D01*
X158892Y85049D01*
X158826Y84949D01*
X158759Y84815D01*
X158709Y84665D01*
X158668Y84490D01*
X158651Y84291D01*
Y84199D01*
X158659Y84141D01*
X158668Y84057D01*
X158684Y83957D01*
X158709Y83849D01*
X158734Y83732D01*
X158043Y83824D01*
Y83841D01*
X158051Y83866D01*
X158059Y83907D01*
Y83999D01*
X158051Y84032D01*
X158043Y84132D01*
X158026Y84249D01*
X157993Y84390D01*
X157951Y84540D01*
X157885Y84699D01*
X157801Y84849D01*
Y84857D01*
X157785Y84865D01*
X157751Y84915D01*
X157684Y84982D01*
X157601Y85057D01*
X157485Y85132D01*
X157343Y85190D01*
X157176Y85240D01*
X157085Y85248D01*
X156985Y85257D01*
X156976D01*
X156968D01*
X156910Y85248D01*
X156835Y85240D01*
X156735Y85224D01*
X156627Y85182D01*
X156510Y85132D01*
X156385Y85057D01*
X156277Y84957D01*
X156260Y84940D01*
X156227Y84907D01*
X156185Y84840D01*
X156127Y84757D01*
X156077Y84649D01*
X156027Y84515D01*
X155993Y84374D01*
X155985Y84207D01*
Y84165D01*
X155993Y84132D01*
X156002Y84040D01*
X156018Y83932D01*
X156060Y83816D01*
X156110Y83682D01*
X156177Y83557D01*
X156277Y83432D01*
X156293Y83416D01*
X156327Y83382D01*
X156393Y83332D01*
X156493Y83274D01*
X156610Y83207D01*
X156760Y83141D01*
X156935Y83091D01*
X157135Y83049D01*
X156993Y82266D01*
X156985D01*
X156960Y82274D01*
X156918Y82283D01*
X156860Y82299D01*
X156801Y82316D01*
X156718Y82341D01*
X156635Y82366D01*
X156543Y82399D01*
X156351Y82491D01*
X156152Y82599D01*
X155952Y82741D01*
X155860Y82824D01*
X155777Y82916D01*
X155768Y82924D01*
X155760Y82941D01*
X155735Y82966D01*
X155710Y83007D01*
X155677Y83057D01*
X155635Y83116D01*
X155593Y83191D01*
X155552Y83266D01*
X155518Y83357D01*
X155477Y83449D01*
X155402Y83666D01*
X155352Y83916D01*
X155344Y84049D01*
X155335Y84191D01*
Y84282D01*
X155344Y84324D01*
Y84382D01*
X155360Y84507D01*
X155393Y84657D01*
X155427Y84815D01*
X155485Y84982D01*
X155560Y85149D01*
Y85157D01*
X155568Y85165D01*
X155585Y85190D01*
X155602Y85224D01*
X155652Y85299D01*
X155718Y85399D01*
X155810Y85507D01*
X155918Y85624D01*
X156035Y85732D01*
X156177Y85823D01*
X156185D01*
X156193Y85832D01*
X156243Y85865D01*
X156327Y85898D01*
X156426Y85948D01*
X156552Y85990D01*
X156693Y86032D01*
X156843Y86057D01*
X157001Y86065D01*
X157010D01*
X157018D01*
X157068D01*
X157151Y86057D01*
X157251Y86040D01*
X157368Y86007D01*
X157493Y85973D01*
X157626Y85915D01*
X157760Y85840D01*
X157776Y85832D01*
X157818Y85798D01*
X157876Y85748D01*
X157951Y85673D01*
X158043Y85582D01*
X158134Y85465D01*
X158218Y85332D01*
X158301Y85182D01*
Y85190D01*
X158309Y85207D01*
X158318Y85240D01*
X158326Y85274D01*
X158343Y85323D01*
X158368Y85382D01*
X158418Y85507D01*
X158493Y85648D01*
X158593Y85790D01*
X158709Y85940D01*
X158851Y86065D01*
X158859D01*
X158868Y86082D01*
X158892Y86098D01*
X158926Y86115D01*
X158968Y86140D01*
X159009Y86165D01*
X159134Y86223D01*
X159284Y86282D01*
X159459Y86332D01*
X159651Y86365D01*
X159876Y86382D01*
X159884D01*
X159909D01*
X159959D01*
X160017Y86373D01*
D02*
G37*
G36*
X159784Y81449D02*
X159842Y81433D01*
X159917Y81416D01*
X160001Y81383D01*
X160101Y81341D01*
X160209Y81300D01*
X160334Y81241D01*
X160459Y81183D01*
X160592Y81108D01*
X160717Y81033D01*
X160850Y80941D01*
X160984Y80850D01*
X161109Y80741D01*
X161225Y80625D01*
X161334Y80500D01*
X161342Y80491D01*
X161359Y80466D01*
X161384Y80433D01*
X161417Y80375D01*
X161459Y80308D01*
X161509Y80225D01*
X161550Y80133D01*
X161600Y80033D01*
X161658Y79908D01*
X161700Y79783D01*
X161750Y79642D01*
X161792Y79492D01*
X161825Y79333D01*
X161850Y79167D01*
X161867Y78992D01*
X161875Y78808D01*
Y78709D01*
X161867Y78634D01*
X161859Y78550D01*
X161850Y78442D01*
X161842Y78334D01*
X161825Y78209D01*
X161775Y77942D01*
X161700Y77659D01*
X161650Y77517D01*
X161592Y77376D01*
X161534Y77242D01*
X161459Y77117D01*
X161450Y77109D01*
X161442Y77092D01*
X161417Y77059D01*
X161375Y77009D01*
X161334Y76959D01*
X161284Y76892D01*
X161217Y76826D01*
X161142Y76751D01*
X161067Y76667D01*
X160975Y76592D01*
X160875Y76509D01*
X160759Y76426D01*
X160642Y76343D01*
X160517Y76267D01*
X160375Y76192D01*
X160234Y76126D01*
X160226D01*
X160201Y76109D01*
X160151Y76093D01*
X160092Y76076D01*
X160017Y76051D01*
X159934Y76018D01*
X159834Y75993D01*
X159717Y75959D01*
X159592Y75926D01*
X159459Y75901D01*
X159317Y75868D01*
X159176Y75843D01*
X158851Y75809D01*
X158518Y75793D01*
X158509D01*
X158476D01*
X158418D01*
X158351Y75801D01*
X158259D01*
X158159Y75809D01*
X158051Y75826D01*
X157926Y75843D01*
X157793Y75859D01*
X157651Y75884D01*
X157360Y75951D01*
X157068Y76043D01*
X156918Y76101D01*
X156776Y76167D01*
X156768Y76176D01*
X156743Y76184D01*
X156701Y76209D01*
X156651Y76242D01*
X156593Y76276D01*
X156518Y76326D01*
X156443Y76384D01*
X156351Y76451D01*
X156168Y76601D01*
X155985Y76792D01*
X155802Y77009D01*
X155718Y77134D01*
X155643Y77259D01*
X155635Y77267D01*
X155627Y77292D01*
X155610Y77334D01*
X155585Y77384D01*
X155552Y77450D01*
X155518Y77526D01*
X155485Y77617D01*
X155443Y77717D01*
X155410Y77834D01*
X155377Y77950D01*
X155310Y78217D01*
X155268Y78509D01*
X155252Y78659D01*
Y78909D01*
X155260Y78975D01*
X155268Y79058D01*
X155277Y79158D01*
X155294Y79267D01*
X155310Y79383D01*
X155368Y79633D01*
X155410Y79767D01*
X155460Y79908D01*
X155518Y80042D01*
X155577Y80175D01*
X155660Y80308D01*
X155743Y80433D01*
X155752Y80441D01*
X155768Y80458D01*
X155793Y80500D01*
X155835Y80541D01*
X155885Y80591D01*
X155943Y80658D01*
X156018Y80725D01*
X156102Y80800D01*
X156193Y80875D01*
X156293Y80950D01*
X156410Y81025D01*
X156526Y81100D01*
X156660Y81175D01*
X156801Y81241D01*
X156960Y81308D01*
X157118Y81358D01*
X157318Y80525D01*
X157310D01*
X157285Y80516D01*
X157251Y80500D01*
X157201Y80483D01*
X157143Y80458D01*
X157076Y80433D01*
X156926Y80358D01*
X156760Y80267D01*
X156593Y80158D01*
X156435Y80025D01*
X156368Y79950D01*
X156301Y79875D01*
Y79867D01*
X156285Y79858D01*
X156268Y79833D01*
X156252Y79800D01*
X156227Y79758D01*
X156202Y79708D01*
X156135Y79583D01*
X156077Y79425D01*
X156027Y79242D01*
X155993Y79033D01*
X155977Y78800D01*
Y78725D01*
X155985Y78675D01*
Y78617D01*
X155993Y78542D01*
X156010Y78459D01*
X156018Y78367D01*
X156060Y78175D01*
X156127Y77967D01*
X156218Y77759D01*
X156268Y77659D01*
X156335Y77559D01*
Y77551D01*
X156351Y77534D01*
X156368Y77509D01*
X156402Y77476D01*
X156476Y77392D01*
X156585Y77292D01*
X156718Y77176D01*
X156885Y77059D01*
X157068Y76951D01*
X157285Y76867D01*
X157293D01*
X157310Y76859D01*
X157343Y76851D01*
X157385Y76834D01*
X157443Y76817D01*
X157510Y76801D01*
X157584Y76784D01*
X157660Y76767D01*
X157851Y76734D01*
X158059Y76701D01*
X158284Y76676D01*
X158518Y76667D01*
X158526D01*
X158551D01*
X158593D01*
X158651D01*
X158726Y76676D01*
X158809Y76684D01*
X158901D01*
X159001Y76701D01*
X159226Y76726D01*
X159459Y76767D01*
X159709Y76826D01*
X159942Y76901D01*
X159951D01*
X159967Y76909D01*
X160001Y76926D01*
X160042Y76951D01*
X160092Y76976D01*
X160151Y77001D01*
X160284Y77084D01*
X160434Y77192D01*
X160584Y77317D01*
X160725Y77467D01*
X160850Y77642D01*
Y77650D01*
X160867Y77667D01*
X160875Y77692D01*
X160900Y77734D01*
X160917Y77776D01*
X160942Y77834D01*
X161000Y77967D01*
X161059Y78134D01*
X161100Y78317D01*
X161134Y78517D01*
X161150Y78734D01*
Y78800D01*
X161142Y78850D01*
X161134Y78917D01*
X161125Y78983D01*
X161117Y79067D01*
X161100Y79150D01*
X161050Y79342D01*
X160975Y79542D01*
X160934Y79650D01*
X160875Y79750D01*
X160817Y79850D01*
X160742Y79942D01*
X160734Y79950D01*
X160725Y79967D01*
X160700Y79992D01*
X160667Y80025D01*
X160625Y80058D01*
X160567Y80108D01*
X160509Y80158D01*
X160434Y80208D01*
X160359Y80267D01*
X160267Y80325D01*
X160167Y80375D01*
X160059Y80433D01*
X159934Y80483D01*
X159809Y80533D01*
X159676Y80575D01*
X159526Y80616D01*
X159742Y81466D01*
X159751D01*
X159784Y81449D01*
D02*
G37*
G36*
X219443Y83233D02*
X219534D01*
X219634Y83225D01*
X219743Y83208D01*
X219867Y83191D01*
X220001Y83175D01*
X220142Y83150D01*
X220434Y83083D01*
X220725Y82992D01*
X220875Y82933D01*
X221017Y82866D01*
X221026Y82858D01*
X221050Y82850D01*
X221092Y82825D01*
X221142Y82792D01*
X221200Y82758D01*
X221275Y82708D01*
X221350Y82650D01*
X221442Y82583D01*
X221625Y82433D01*
X221809Y82242D01*
X221992Y82025D01*
X222075Y81900D01*
X222150Y81775D01*
X222159Y81767D01*
X222167Y81742D01*
X222183Y81700D01*
X222208Y81650D01*
X222242Y81583D01*
X222275Y81509D01*
X222309Y81417D01*
X222350Y81317D01*
X222383Y81200D01*
X222417Y81084D01*
X222483Y80817D01*
X222525Y80525D01*
X222542Y80375D01*
Y80126D01*
X222533Y80059D01*
X222525Y79976D01*
X222517Y79876D01*
X222500Y79767D01*
X222483Y79651D01*
X222425Y79401D01*
X222383Y79267D01*
X222334Y79126D01*
X222275Y78993D01*
X222217Y78859D01*
X222134Y78726D01*
X222050Y78601D01*
X222042Y78593D01*
X222025Y78576D01*
X222000Y78534D01*
X221959Y78493D01*
X221909Y78443D01*
X221850Y78376D01*
X221775Y78309D01*
X221692Y78234D01*
X221600Y78159D01*
X221500Y78084D01*
X221384Y78009D01*
X221267Y77934D01*
X221134Y77860D01*
X220992Y77793D01*
X220834Y77726D01*
X220676Y77676D01*
X220476Y78509D01*
X220484D01*
X220509Y78518D01*
X220542Y78534D01*
X220592Y78551D01*
X220651Y78576D01*
X220717Y78601D01*
X220867Y78676D01*
X221034Y78768D01*
X221200Y78876D01*
X221359Y79009D01*
X221425Y79084D01*
X221492Y79159D01*
Y79167D01*
X221509Y79176D01*
X221525Y79201D01*
X221542Y79234D01*
X221567Y79276D01*
X221592Y79326D01*
X221659Y79451D01*
X221717Y79609D01*
X221767Y79792D01*
X221800Y80001D01*
X221817Y80234D01*
Y80309D01*
X221809Y80359D01*
Y80417D01*
X221800Y80492D01*
X221784Y80575D01*
X221775Y80667D01*
X221734Y80859D01*
X221667Y81067D01*
X221575Y81275D01*
X221525Y81375D01*
X221459Y81475D01*
Y81483D01*
X221442Y81500D01*
X221425Y81525D01*
X221392Y81559D01*
X221317Y81642D01*
X221209Y81742D01*
X221075Y81858D01*
X220909Y81975D01*
X220725Y82083D01*
X220509Y82167D01*
X220501D01*
X220484Y82175D01*
X220451Y82183D01*
X220409Y82200D01*
X220351Y82217D01*
X220284Y82233D01*
X220209Y82250D01*
X220134Y82267D01*
X219942Y82300D01*
X219734Y82333D01*
X219509Y82358D01*
X219276Y82367D01*
X219268D01*
X219243D01*
X219201D01*
X219143D01*
X219068Y82358D01*
X218984Y82350D01*
X218893D01*
X218793Y82333D01*
X218568Y82308D01*
X218335Y82267D01*
X218085Y82208D01*
X217851Y82133D01*
X217843D01*
X217826Y82125D01*
X217793Y82108D01*
X217751Y82083D01*
X217701Y82058D01*
X217643Y82033D01*
X217510Y81950D01*
X217360Y81842D01*
X217210Y81717D01*
X217068Y81567D01*
X216943Y81392D01*
Y81384D01*
X216926Y81367D01*
X216918Y81342D01*
X216893Y81300D01*
X216877Y81259D01*
X216852Y81200D01*
X216793Y81067D01*
X216735Y80900D01*
X216693Y80717D01*
X216660Y80517D01*
X216643Y80301D01*
Y80234D01*
X216652Y80184D01*
X216660Y80117D01*
X216668Y80051D01*
X216677Y79967D01*
X216693Y79884D01*
X216743Y79692D01*
X216818Y79492D01*
X216860Y79384D01*
X216918Y79284D01*
X216977Y79184D01*
X217052Y79092D01*
X217060Y79084D01*
X217068Y79068D01*
X217093Y79043D01*
X217127Y79009D01*
X217168Y78976D01*
X217226Y78926D01*
X217285Y78876D01*
X217360Y78826D01*
X217435Y78768D01*
X217526Y78709D01*
X217626Y78659D01*
X217735Y78601D01*
X217860Y78551D01*
X217985Y78501D01*
X218118Y78459D01*
X218268Y78418D01*
X218051Y77568D01*
X218043D01*
X218010Y77585D01*
X217951Y77601D01*
X217876Y77618D01*
X217793Y77651D01*
X217693Y77693D01*
X217585Y77734D01*
X217460Y77793D01*
X217335Y77851D01*
X217201Y77926D01*
X217076Y78001D01*
X216943Y78093D01*
X216810Y78184D01*
X216685Y78293D01*
X216568Y78409D01*
X216460Y78534D01*
X216452Y78543D01*
X216435Y78568D01*
X216410Y78601D01*
X216377Y78659D01*
X216335Y78726D01*
X216285Y78809D01*
X216243Y78901D01*
X216193Y79001D01*
X216135Y79126D01*
X216093Y79251D01*
X216043Y79392D01*
X216002Y79542D01*
X215968Y79701D01*
X215943Y79867D01*
X215927Y80042D01*
X215918Y80225D01*
Y80325D01*
X215927Y80400D01*
X215935Y80484D01*
X215943Y80592D01*
X215952Y80700D01*
X215968Y80825D01*
X216018Y81092D01*
X216093Y81375D01*
X216143Y81517D01*
X216202Y81658D01*
X216260Y81792D01*
X216335Y81917D01*
X216343Y81925D01*
X216352Y81942D01*
X216377Y81975D01*
X216418Y82025D01*
X216460Y82075D01*
X216510Y82142D01*
X216577Y82208D01*
X216652Y82283D01*
X216727Y82367D01*
X216818Y82442D01*
X216918Y82525D01*
X217035Y82608D01*
X217152Y82692D01*
X217276Y82767D01*
X217418Y82842D01*
X217560Y82908D01*
X217568D01*
X217593Y82925D01*
X217643Y82942D01*
X217701Y82958D01*
X217776Y82983D01*
X217860Y83017D01*
X217960Y83041D01*
X218076Y83075D01*
X218201Y83108D01*
X218335Y83133D01*
X218476Y83166D01*
X218618Y83191D01*
X218943Y83225D01*
X219276Y83241D01*
X219284D01*
X219318D01*
X219376D01*
X219443Y83233D01*
D02*
G37*
G36*
X216202Y76951D02*
X216285Y76943D01*
X216377Y76926D01*
X216468Y76901D01*
X216568Y76868D01*
X216577D01*
X216585Y76860D01*
X216610Y76851D01*
X216643Y76835D01*
X216727Y76801D01*
X216835Y76743D01*
X216968Y76668D01*
X217110Y76585D01*
X217260Y76476D01*
X217418Y76351D01*
X217426Y76343D01*
X217435Y76335D01*
X217460Y76310D01*
X217493Y76285D01*
X217585Y76202D01*
X217701Y76085D01*
X217843Y75943D01*
X218010Y75768D01*
X218193Y75560D01*
X218393Y75318D01*
X218401Y75310D01*
X218435Y75277D01*
X218476Y75219D01*
X218534Y75152D01*
X218609Y75068D01*
X218693Y74969D01*
X218784Y74860D01*
X218884Y74752D01*
X219101Y74519D01*
X219326Y74285D01*
X219443Y74177D01*
X219551Y74077D01*
X219651Y73986D01*
X219751Y73910D01*
X219759Y73902D01*
X219776Y73894D01*
X219801Y73877D01*
X219834Y73852D01*
X219884Y73827D01*
X219934Y73794D01*
X220059Y73719D01*
X220201Y73652D01*
X220359Y73594D01*
X220534Y73552D01*
X220617Y73536D01*
X220700D01*
X220709D01*
X220725D01*
X220742D01*
X220776Y73544D01*
X220867Y73552D01*
X220975Y73577D01*
X221100Y73619D01*
X221225Y73677D01*
X221359Y73760D01*
X221484Y73877D01*
X221500Y73894D01*
X221534Y73935D01*
X221584Y74010D01*
X221650Y74110D01*
X221709Y74235D01*
X221759Y74385D01*
X221792Y74560D01*
X221809Y74752D01*
Y74810D01*
X221800Y74844D01*
Y74894D01*
X221792Y74952D01*
X221767Y75077D01*
X221725Y75219D01*
X221667Y75377D01*
X221584Y75527D01*
X221467Y75660D01*
X221450Y75677D01*
X221409Y75710D01*
X221325Y75768D01*
X221225Y75827D01*
X221084Y75893D01*
X220926Y75952D01*
X220742Y75985D01*
X220526Y76002D01*
X220609Y76810D01*
X220617D01*
X220651Y76801D01*
X220692D01*
X220759Y76793D01*
X220834Y76776D01*
X220917Y76760D01*
X221017Y76735D01*
X221117Y76701D01*
X221342Y76626D01*
X221459Y76576D01*
X221567Y76518D01*
X221684Y76452D01*
X221792Y76377D01*
X221892Y76293D01*
X221984Y76193D01*
X221992Y76185D01*
X222000Y76168D01*
X222025Y76135D01*
X222059Y76093D01*
X222092Y76035D01*
X222134Y75968D01*
X222175Y75893D01*
X222225Y75802D01*
X222267Y75702D01*
X222309Y75593D01*
X222350Y75477D01*
X222383Y75343D01*
X222417Y75210D01*
X222442Y75060D01*
X222450Y74902D01*
X222458Y74735D01*
Y74644D01*
X222450Y74585D01*
X222442Y74502D01*
X222433Y74410D01*
X222417Y74310D01*
X222392Y74202D01*
X222334Y73969D01*
X222292Y73852D01*
X222242Y73727D01*
X222183Y73602D01*
X222108Y73486D01*
X222034Y73377D01*
X221942Y73269D01*
X221934Y73261D01*
X221917Y73244D01*
X221892Y73219D01*
X221850Y73186D01*
X221800Y73144D01*
X221742Y73094D01*
X221675Y73052D01*
X221592Y72994D01*
X221509Y72944D01*
X221409Y72902D01*
X221192Y72811D01*
X221075Y72777D01*
X220951Y72752D01*
X220817Y72736D01*
X220676Y72727D01*
X220659D01*
X220609D01*
X220534Y72736D01*
X220434Y72744D01*
X220326Y72769D01*
X220192Y72794D01*
X220059Y72836D01*
X219917Y72886D01*
X219901Y72894D01*
X219851Y72919D01*
X219776Y72952D01*
X219684Y73011D01*
X219568Y73086D01*
X219434Y73177D01*
X219284Y73286D01*
X219134Y73411D01*
X219126D01*
X219118Y73427D01*
X219093Y73452D01*
X219059Y73477D01*
X219018Y73519D01*
X218968Y73569D01*
X218909Y73627D01*
X218843Y73702D01*
X218768Y73777D01*
X218684Y73869D01*
X218584Y73969D01*
X218484Y74077D01*
X218376Y74202D01*
X218268Y74327D01*
X218143Y74477D01*
X218010Y74627D01*
X218001Y74635D01*
X217985Y74660D01*
X217951Y74694D01*
X217918Y74744D01*
X217868Y74794D01*
X217810Y74860D01*
X217685Y75002D01*
X217551Y75160D01*
X217418Y75310D01*
X217360Y75377D01*
X217301Y75435D01*
X217243Y75493D01*
X217201Y75535D01*
X217193Y75543D01*
X217168Y75568D01*
X217127Y75602D01*
X217068Y75652D01*
X217010Y75702D01*
X216935Y75760D01*
X216785Y75868D01*
Y72719D01*
X216027D01*
Y76960D01*
X216043D01*
X216077D01*
X216127D01*
X216202Y76951D01*
D02*
G37*
G36*
X216914Y68115D02*
X211907D01*
X211915Y68099D01*
X211949Y68065D01*
X212007Y67999D01*
X212073Y67916D01*
X212157Y67807D01*
X212248Y67674D01*
X212348Y67532D01*
X212448Y67366D01*
Y67357D01*
X212457Y67349D01*
X212473Y67324D01*
X212490Y67291D01*
X212540Y67199D01*
X212598Y67091D01*
X212665Y66966D01*
X212732Y66824D01*
X212798Y66683D01*
X212857Y66541D01*
X212090D01*
Y66549D01*
X212073Y66574D01*
X212057Y66607D01*
X212032Y66649D01*
X212007Y66708D01*
X211965Y66774D01*
X211882Y66932D01*
X211774Y67107D01*
X211640Y67307D01*
X211499Y67499D01*
X211340Y67691D01*
X211332Y67699D01*
X211324Y67716D01*
X211299Y67741D01*
X211265Y67774D01*
X211182Y67857D01*
X211066Y67965D01*
X210940Y68074D01*
X210791Y68190D01*
X210641Y68299D01*
X210482Y68390D01*
Y68899D01*
X216914D01*
Y68115D01*
D02*
G37*
G36*
X214931Y65199D02*
X214989Y65183D01*
X215064Y65166D01*
X215148Y65133D01*
X215248Y65091D01*
X215356Y65050D01*
X215481Y64991D01*
X215606Y64933D01*
X215739Y64858D01*
X215864Y64783D01*
X215998Y64691D01*
X216131Y64600D01*
X216256Y64491D01*
X216372Y64375D01*
X216481Y64250D01*
X216489Y64241D01*
X216506Y64216D01*
X216531Y64183D01*
X216564Y64125D01*
X216606Y64058D01*
X216656Y63975D01*
X216697Y63883D01*
X216747Y63783D01*
X216806Y63658D01*
X216847Y63533D01*
X216897Y63392D01*
X216939Y63242D01*
X216972Y63083D01*
X216997Y62917D01*
X217014Y62742D01*
X217022Y62558D01*
Y62459D01*
X217014Y62384D01*
X217006Y62300D01*
X216997Y62192D01*
X216989Y62084D01*
X216972Y61959D01*
X216922Y61692D01*
X216847Y61409D01*
X216797Y61267D01*
X216739Y61126D01*
X216681Y60992D01*
X216606Y60867D01*
X216597Y60859D01*
X216589Y60842D01*
X216564Y60809D01*
X216522Y60759D01*
X216481Y60709D01*
X216431Y60642D01*
X216364Y60576D01*
X216289Y60501D01*
X216214Y60417D01*
X216122Y60342D01*
X216022Y60259D01*
X215906Y60176D01*
X215789Y60093D01*
X215664Y60017D01*
X215523Y59942D01*
X215381Y59876D01*
X215373D01*
X215348Y59859D01*
X215298Y59843D01*
X215239Y59826D01*
X215164Y59801D01*
X215081Y59768D01*
X214981Y59743D01*
X214865Y59709D01*
X214739Y59676D01*
X214606Y59651D01*
X214465Y59618D01*
X214323Y59593D01*
X213998Y59559D01*
X213665Y59543D01*
X213657D01*
X213623D01*
X213565D01*
X213498Y59551D01*
X213407D01*
X213307Y59559D01*
X213198Y59576D01*
X213073Y59593D01*
X212940Y59609D01*
X212798Y59634D01*
X212507Y59701D01*
X212215Y59793D01*
X212065Y59851D01*
X211924Y59917D01*
X211915Y59926D01*
X211890Y59934D01*
X211849Y59959D01*
X211799Y59992D01*
X211740Y60026D01*
X211665Y60076D01*
X211590Y60134D01*
X211499Y60201D01*
X211315Y60351D01*
X211132Y60542D01*
X210949Y60759D01*
X210865Y60884D01*
X210791Y61009D01*
X210782Y61017D01*
X210774Y61042D01*
X210757Y61084D01*
X210732Y61134D01*
X210699Y61200D01*
X210666Y61276D01*
X210632Y61367D01*
X210591Y61467D01*
X210557Y61584D01*
X210524Y61700D01*
X210457Y61967D01*
X210416Y62259D01*
X210399Y62409D01*
Y62659D01*
X210407Y62725D01*
X210416Y62808D01*
X210424Y62908D01*
X210441Y63017D01*
X210457Y63133D01*
X210516Y63383D01*
X210557Y63517D01*
X210607Y63658D01*
X210666Y63791D01*
X210724Y63925D01*
X210807Y64058D01*
X210891Y64183D01*
X210899Y64191D01*
X210916Y64208D01*
X210940Y64250D01*
X210982Y64291D01*
X211032Y64341D01*
X211091Y64408D01*
X211165Y64475D01*
X211249Y64550D01*
X211340Y64625D01*
X211440Y64700D01*
X211557Y64775D01*
X211674Y64850D01*
X211807Y64925D01*
X211949Y64991D01*
X212107Y65058D01*
X212265Y65108D01*
X212465Y64275D01*
X212457D01*
X212432Y64266D01*
X212398Y64250D01*
X212348Y64233D01*
X212290Y64208D01*
X212223Y64183D01*
X212073Y64108D01*
X211907Y64016D01*
X211740Y63908D01*
X211582Y63775D01*
X211515Y63700D01*
X211449Y63625D01*
Y63617D01*
X211432Y63608D01*
X211415Y63583D01*
X211399Y63550D01*
X211374Y63508D01*
X211349Y63458D01*
X211282Y63333D01*
X211224Y63175D01*
X211174Y62992D01*
X211140Y62783D01*
X211124Y62550D01*
Y62475D01*
X211132Y62425D01*
Y62367D01*
X211140Y62292D01*
X211157Y62209D01*
X211165Y62117D01*
X211207Y61925D01*
X211274Y61717D01*
X211365Y61509D01*
X211415Y61409D01*
X211482Y61309D01*
Y61301D01*
X211499Y61284D01*
X211515Y61259D01*
X211549Y61226D01*
X211624Y61142D01*
X211732Y61042D01*
X211865Y60926D01*
X212032Y60809D01*
X212215Y60701D01*
X212432Y60617D01*
X212440D01*
X212457Y60609D01*
X212490Y60601D01*
X212532Y60584D01*
X212590Y60567D01*
X212657Y60551D01*
X212732Y60534D01*
X212807Y60517D01*
X212998Y60484D01*
X213207Y60451D01*
X213431Y60426D01*
X213665Y60417D01*
X213673D01*
X213698D01*
X213740D01*
X213798D01*
X213873Y60426D01*
X213956Y60434D01*
X214048D01*
X214148Y60451D01*
X214373Y60476D01*
X214606Y60517D01*
X214856Y60576D01*
X215089Y60651D01*
X215098D01*
X215114Y60659D01*
X215148Y60676D01*
X215189Y60701D01*
X215239Y60726D01*
X215298Y60751D01*
X215431Y60834D01*
X215581Y60942D01*
X215731Y61067D01*
X215873Y61217D01*
X215998Y61392D01*
Y61400D01*
X216014Y61417D01*
X216022Y61442D01*
X216047Y61484D01*
X216064Y61526D01*
X216089Y61584D01*
X216147Y61717D01*
X216206Y61884D01*
X216248Y62067D01*
X216281Y62267D01*
X216297Y62484D01*
Y62550D01*
X216289Y62600D01*
X216281Y62667D01*
X216273Y62733D01*
X216264Y62817D01*
X216248Y62900D01*
X216197Y63092D01*
X216122Y63292D01*
X216081Y63400D01*
X216022Y63500D01*
X215964Y63600D01*
X215889Y63692D01*
X215881Y63700D01*
X215873Y63717D01*
X215848Y63742D01*
X215814Y63775D01*
X215773Y63808D01*
X215714Y63858D01*
X215656Y63908D01*
X215581Y63958D01*
X215506Y64016D01*
X215414Y64075D01*
X215314Y64125D01*
X215206Y64183D01*
X215081Y64233D01*
X214956Y64283D01*
X214823Y64325D01*
X214673Y64366D01*
X214890Y65216D01*
X214898D01*
X214931Y65199D01*
D02*
G37*
G36*
X153302Y137102D02*
X153385Y137093D01*
X153493Y137085D01*
X153602Y137077D01*
X153727Y137060D01*
X153993Y137010D01*
X154277Y136935D01*
X154418Y136885D01*
X154560Y136827D01*
X154693Y136769D01*
X154818Y136694D01*
X154826Y136685D01*
X154843Y136677D01*
X154876Y136652D01*
X154926Y136610D01*
X154976Y136569D01*
X155043Y136519D01*
X155110Y136452D01*
X155185Y136377D01*
X155268Y136302D01*
X155343Y136210D01*
X155426Y136110D01*
X155510Y135994D01*
X155593Y135877D01*
X155668Y135752D01*
X155743Y135611D01*
X155809Y135469D01*
Y135461D01*
X155826Y135435D01*
X155843Y135386D01*
X155859Y135327D01*
X155884Y135252D01*
X155918Y135169D01*
X155943Y135069D01*
X155976Y134952D01*
X156009Y134827D01*
X156034Y134694D01*
X156068Y134552D01*
X156093Y134411D01*
X156126Y134086D01*
X156143Y133753D01*
Y133744D01*
Y133711D01*
Y133653D01*
X156134Y133586D01*
Y133494D01*
X156126Y133394D01*
X156109Y133286D01*
X156093Y133161D01*
X156076Y133028D01*
X156051Y132886D01*
X155984Y132595D01*
X155893Y132303D01*
X155835Y132153D01*
X155768Y132011D01*
X155759Y132003D01*
X155751Y131978D01*
X155726Y131936D01*
X155693Y131887D01*
X155660Y131828D01*
X155610Y131753D01*
X155551Y131678D01*
X155485Y131587D01*
X155335Y131403D01*
X155143Y131220D01*
X154926Y131037D01*
X154801Y130953D01*
X154676Y130878D01*
X154668Y130870D01*
X154643Y130862D01*
X154601Y130845D01*
X154551Y130820D01*
X154485Y130787D01*
X154410Y130753D01*
X154318Y130720D01*
X154218Y130678D01*
X154102Y130645D01*
X153985Y130612D01*
X153718Y130545D01*
X153427Y130504D01*
X153277Y130487D01*
X153027D01*
X152960Y130495D01*
X152877Y130504D01*
X152777Y130512D01*
X152669Y130528D01*
X152552Y130545D01*
X152302Y130603D01*
X152169Y130645D01*
X152027Y130695D01*
X151894Y130753D01*
X151761Y130812D01*
X151627Y130895D01*
X151502Y130978D01*
X151494Y130987D01*
X151477Y131003D01*
X151436Y131028D01*
X151394Y131070D01*
X151344Y131120D01*
X151277Y131178D01*
X151211Y131253D01*
X151136Y131337D01*
X151061Y131428D01*
X150986Y131528D01*
X150911Y131645D01*
X150836Y131762D01*
X150761Y131895D01*
X150694Y132036D01*
X150627Y132195D01*
X150577Y132353D01*
X151411Y132553D01*
Y132545D01*
X151419Y132520D01*
X151436Y132486D01*
X151452Y132436D01*
X151477Y132378D01*
X151502Y132311D01*
X151577Y132161D01*
X151669Y131995D01*
X151777Y131828D01*
X151910Y131670D01*
X151985Y131603D01*
X152060Y131537D01*
X152069D01*
X152077Y131520D01*
X152102Y131503D01*
X152135Y131487D01*
X152177Y131462D01*
X152227Y131437D01*
X152352Y131370D01*
X152510Y131312D01*
X152694Y131262D01*
X152902Y131228D01*
X153135Y131212D01*
X153210D01*
X153260Y131220D01*
X153318D01*
X153393Y131228D01*
X153477Y131245D01*
X153568Y131253D01*
X153760Y131295D01*
X153968Y131362D01*
X154177Y131453D01*
X154277Y131503D01*
X154376Y131570D01*
X154385D01*
X154402Y131587D01*
X154426Y131603D01*
X154460Y131636D01*
X154543Y131712D01*
X154643Y131820D01*
X154760Y131953D01*
X154876Y132120D01*
X154985Y132303D01*
X155068Y132520D01*
Y132528D01*
X155076Y132545D01*
X155085Y132578D01*
X155101Y132620D01*
X155118Y132678D01*
X155135Y132745D01*
X155151Y132819D01*
X155168Y132894D01*
X155201Y133086D01*
X155235Y133294D01*
X155260Y133519D01*
X155268Y133753D01*
Y133761D01*
Y133786D01*
Y133828D01*
Y133886D01*
X155260Y133961D01*
X155251Y134044D01*
Y134136D01*
X155235Y134236D01*
X155210Y134461D01*
X155168Y134694D01*
X155110Y134944D01*
X155035Y135177D01*
Y135186D01*
X155026Y135202D01*
X155010Y135236D01*
X154985Y135277D01*
X154960Y135327D01*
X154935Y135386D01*
X154851Y135519D01*
X154743Y135669D01*
X154618Y135819D01*
X154468Y135960D01*
X154293Y136085D01*
X154285D01*
X154268Y136102D01*
X154243Y136110D01*
X154201Y136135D01*
X154160Y136152D01*
X154102Y136177D01*
X153968Y136235D01*
X153802Y136294D01*
X153618Y136335D01*
X153418Y136369D01*
X153202Y136385D01*
X153135D01*
X153085Y136377D01*
X153019Y136369D01*
X152952Y136360D01*
X152869Y136352D01*
X152785Y136335D01*
X152594Y136285D01*
X152394Y136210D01*
X152285Y136169D01*
X152185Y136110D01*
X152085Y136052D01*
X151994Y135977D01*
X151985Y135969D01*
X151969Y135960D01*
X151944Y135935D01*
X151910Y135902D01*
X151877Y135860D01*
X151827Y135802D01*
X151777Y135744D01*
X151727Y135669D01*
X151669Y135594D01*
X151610Y135502D01*
X151561Y135402D01*
X151502Y135294D01*
X151452Y135169D01*
X151402Y135044D01*
X151361Y134911D01*
X151319Y134761D01*
X150469Y134977D01*
Y134986D01*
X150486Y135019D01*
X150503Y135077D01*
X150519Y135152D01*
X150553Y135236D01*
X150594Y135336D01*
X150636Y135444D01*
X150694Y135569D01*
X150752Y135694D01*
X150827Y135827D01*
X150902Y135952D01*
X150994Y136085D01*
X151086Y136219D01*
X151194Y136344D01*
X151311Y136460D01*
X151436Y136569D01*
X151444Y136577D01*
X151469Y136594D01*
X151502Y136619D01*
X151561Y136652D01*
X151627Y136694D01*
X151711Y136743D01*
X151802Y136785D01*
X151902Y136835D01*
X152027Y136894D01*
X152152Y136935D01*
X152294Y136985D01*
X152444Y137027D01*
X152602Y137060D01*
X152769Y137085D01*
X152943Y137102D01*
X153127Y137110D01*
X153227D01*
X153302Y137102D01*
D02*
G37*
G36*
X147228Y135469D02*
X150011D01*
Y134744D01*
X147087Y130595D01*
X146445D01*
Y134744D01*
X145579D01*
Y135469D01*
X146445D01*
Y137002D01*
X147228D01*
Y135469D01*
D02*
G37*
G36*
X83907Y91564D02*
X78900D01*
X78909Y91548D01*
X78942Y91514D01*
X79000Y91448D01*
X79067Y91364D01*
X79150Y91256D01*
X79242Y91123D01*
X79342Y90981D01*
X79442Y90815D01*
Y90806D01*
X79450Y90798D01*
X79467Y90773D01*
X79484Y90739D01*
X79534Y90648D01*
X79592Y90540D01*
X79658Y90415D01*
X79725Y90273D01*
X79792Y90131D01*
X79850Y89990D01*
X79084D01*
Y89998D01*
X79067Y90023D01*
X79050Y90056D01*
X79025Y90098D01*
X79000Y90156D01*
X78959Y90223D01*
X78875Y90381D01*
X78767Y90556D01*
X78634Y90756D01*
X78492Y90948D01*
X78334Y91139D01*
X78326Y91148D01*
X78317Y91164D01*
X78292Y91189D01*
X78259Y91223D01*
X78176Y91306D01*
X78059Y91414D01*
X77934Y91523D01*
X77784Y91639D01*
X77634Y91748D01*
X77476Y91839D01*
Y92347D01*
X83907D01*
Y91564D01*
D02*
G37*
G36*
X80858Y88532D02*
X80933D01*
X81017Y88523D01*
X81108Y88515D01*
X81308Y88498D01*
X81525Y88465D01*
X81750Y88423D01*
X81966Y88365D01*
X81975D01*
X81991Y88357D01*
X82025Y88348D01*
X82058Y88332D01*
X82108Y88315D01*
X82166Y88299D01*
X82291Y88249D01*
X82441Y88190D01*
X82599Y88115D01*
X82758Y88024D01*
X82899Y87932D01*
X82916Y87923D01*
X82958Y87882D01*
X83024Y87832D01*
X83108Y87757D01*
X83199Y87674D01*
X83299Y87574D01*
X83391Y87457D01*
X83483Y87340D01*
X83491Y87324D01*
X83516Y87282D01*
X83558Y87215D01*
X83599Y87124D01*
X83649Y87015D01*
X83708Y86882D01*
X83757Y86732D01*
X83799Y86574D01*
Y86566D01*
X83807Y86557D01*
Y86532D01*
X83816Y86499D01*
X83824Y86457D01*
X83832Y86407D01*
X83849Y86282D01*
X83874Y86132D01*
X83891Y85957D01*
X83899Y85757D01*
X83907Y85549D01*
Y83241D01*
X77501D01*
Y85632D01*
X77509Y85707D01*
Y85866D01*
X77526Y86049D01*
X77542Y86241D01*
X77567Y86424D01*
X77601Y86582D01*
Y86591D01*
X77609Y86607D01*
X77617Y86641D01*
X77626Y86674D01*
X77642Y86724D01*
X77659Y86782D01*
X77701Y86907D01*
X77767Y87057D01*
X77842Y87215D01*
X77942Y87374D01*
X78059Y87524D01*
X78067Y87532D01*
X78076Y87549D01*
X78101Y87574D01*
X78134Y87607D01*
X78176Y87649D01*
X78225Y87699D01*
X78284Y87749D01*
X78351Y87807D01*
X78509Y87932D01*
X78700Y88057D01*
X78909Y88182D01*
X79150Y88282D01*
X79159D01*
X79184Y88290D01*
X79217Y88307D01*
X79267Y88323D01*
X79334Y88340D01*
X79409Y88365D01*
X79492Y88390D01*
X79592Y88415D01*
X79700Y88432D01*
X79817Y88457D01*
X79942Y88482D01*
X80075Y88498D01*
X80367Y88532D01*
X80675Y88540D01*
X80683D01*
X80708D01*
X80742D01*
X80800D01*
X80858Y88532D01*
D02*
G37*
G36*
X104472Y89053D02*
X104456D01*
X104422D01*
X104373D01*
X104298Y89061D01*
X104214Y89070D01*
X104122Y89086D01*
X104031Y89111D01*
X103931Y89145D01*
X103923D01*
X103914Y89153D01*
X103889Y89161D01*
X103856Y89178D01*
X103773Y89211D01*
X103664Y89270D01*
X103531Y89345D01*
X103389Y89428D01*
X103239Y89536D01*
X103081Y89661D01*
X103073Y89670D01*
X103064Y89678D01*
X103040Y89703D01*
X103006Y89728D01*
X102914Y89811D01*
X102798Y89928D01*
X102656Y90070D01*
X102490Y90245D01*
X102306Y90453D01*
X102106Y90694D01*
X102098Y90703D01*
X102065Y90736D01*
X102023Y90794D01*
X101965Y90861D01*
X101890Y90944D01*
X101806Y91044D01*
X101715Y91153D01*
X101615Y91261D01*
X101398Y91494D01*
X101173Y91727D01*
X101057Y91836D01*
X100948Y91936D01*
X100848Y92027D01*
X100748Y92102D01*
X100740Y92111D01*
X100723Y92119D01*
X100698Y92136D01*
X100665Y92161D01*
X100615Y92186D01*
X100565Y92219D01*
X100440Y92294D01*
X100299Y92361D01*
X100140Y92419D01*
X99965Y92461D01*
X99882Y92477D01*
X99799D01*
X99790D01*
X99774D01*
X99757D01*
X99724Y92469D01*
X99632Y92461D01*
X99524Y92436D01*
X99399Y92394D01*
X99274Y92336D01*
X99141Y92252D01*
X99016Y92136D01*
X98999Y92119D01*
X98966Y92077D01*
X98916Y92002D01*
X98849Y91902D01*
X98791Y91777D01*
X98741Y91628D01*
X98707Y91453D01*
X98691Y91261D01*
Y91203D01*
X98699Y91169D01*
Y91119D01*
X98707Y91061D01*
X98732Y90936D01*
X98774Y90794D01*
X98832Y90636D01*
X98916Y90486D01*
X99032Y90353D01*
X99049Y90336D01*
X99090Y90303D01*
X99174Y90245D01*
X99274Y90186D01*
X99415Y90119D01*
X99574Y90061D01*
X99757Y90028D01*
X99974Y90011D01*
X99890Y89203D01*
X99882D01*
X99849Y89211D01*
X99807D01*
X99740Y89220D01*
X99665Y89236D01*
X99582Y89253D01*
X99482Y89278D01*
X99382Y89311D01*
X99157Y89386D01*
X99040Y89436D01*
X98932Y89495D01*
X98816Y89561D01*
X98707Y89636D01*
X98607Y89720D01*
X98516Y89820D01*
X98507Y89828D01*
X98499Y89845D01*
X98474Y89878D01*
X98441Y89920D01*
X98407Y89978D01*
X98366Y90044D01*
X98324Y90119D01*
X98274Y90211D01*
X98232Y90311D01*
X98191Y90419D01*
X98149Y90536D01*
X98116Y90669D01*
X98082Y90803D01*
X98057Y90953D01*
X98049Y91111D01*
X98041Y91278D01*
Y91369D01*
X98049Y91427D01*
X98057Y91511D01*
X98066Y91602D01*
X98082Y91702D01*
X98107Y91811D01*
X98166Y92044D01*
X98207Y92161D01*
X98257Y92286D01*
X98316Y92411D01*
X98391Y92527D01*
X98466Y92635D01*
X98557Y92744D01*
X98566Y92752D01*
X98582Y92769D01*
X98607Y92794D01*
X98649Y92827D01*
X98699Y92869D01*
X98757Y92919D01*
X98824Y92960D01*
X98907Y93019D01*
X98990Y93069D01*
X99090Y93110D01*
X99307Y93202D01*
X99424Y93235D01*
X99549Y93260D01*
X99682Y93277D01*
X99824Y93285D01*
X99840D01*
X99890D01*
X99965Y93277D01*
X100065Y93269D01*
X100174Y93244D01*
X100307Y93219D01*
X100440Y93177D01*
X100582Y93127D01*
X100598Y93119D01*
X100648Y93094D01*
X100723Y93060D01*
X100815Y93002D01*
X100932Y92927D01*
X101065Y92836D01*
X101215Y92727D01*
X101365Y92602D01*
X101373D01*
X101382Y92585D01*
X101407Y92561D01*
X101440Y92536D01*
X101482Y92494D01*
X101531Y92444D01*
X101590Y92386D01*
X101657Y92311D01*
X101732Y92236D01*
X101815Y92144D01*
X101915Y92044D01*
X102015Y91936D01*
X102123Y91811D01*
X102231Y91686D01*
X102356Y91536D01*
X102490Y91386D01*
X102498Y91377D01*
X102515Y91353D01*
X102548Y91319D01*
X102581Y91269D01*
X102631Y91219D01*
X102690Y91153D01*
X102815Y91011D01*
X102948Y90853D01*
X103081Y90703D01*
X103139Y90636D01*
X103198Y90578D01*
X103256Y90519D01*
X103298Y90478D01*
X103306Y90469D01*
X103331Y90444D01*
X103373Y90411D01*
X103431Y90361D01*
X103489Y90311D01*
X103564Y90253D01*
X103714Y90145D01*
Y93294D01*
X104472D01*
Y89053D01*
D02*
G37*
G36*
X101423Y88312D02*
X101498D01*
X101581Y88303D01*
X101673Y88295D01*
X101873Y88278D01*
X102090Y88245D01*
X102315Y88203D01*
X102531Y88145D01*
X102540D01*
X102556Y88137D01*
X102590Y88128D01*
X102623Y88112D01*
X102673Y88095D01*
X102731Y88078D01*
X102856Y88028D01*
X103006Y87970D01*
X103164Y87895D01*
X103323Y87803D01*
X103464Y87712D01*
X103481Y87704D01*
X103523Y87662D01*
X103589Y87612D01*
X103673Y87537D01*
X103764Y87453D01*
X103864Y87353D01*
X103956Y87237D01*
X104047Y87120D01*
X104056Y87104D01*
X104081Y87062D01*
X104122Y86995D01*
X104164Y86904D01*
X104214Y86795D01*
X104272Y86662D01*
X104323Y86512D01*
X104364Y86354D01*
Y86346D01*
X104373Y86337D01*
Y86312D01*
X104381Y86279D01*
X104389Y86237D01*
X104397Y86187D01*
X104414Y86062D01*
X104439Y85912D01*
X104456Y85737D01*
X104464Y85537D01*
X104472Y85329D01*
Y83021D01*
X98066D01*
Y85412D01*
X98074Y85487D01*
Y85646D01*
X98091Y85829D01*
X98107Y86021D01*
X98132Y86204D01*
X98166Y86362D01*
Y86370D01*
X98174Y86387D01*
X98182Y86420D01*
X98191Y86454D01*
X98207Y86504D01*
X98224Y86562D01*
X98266Y86687D01*
X98332Y86837D01*
X98407Y86995D01*
X98507Y87154D01*
X98624Y87304D01*
X98632Y87312D01*
X98641Y87329D01*
X98666Y87353D01*
X98699Y87387D01*
X98741Y87429D01*
X98791Y87479D01*
X98849Y87528D01*
X98916Y87587D01*
X99074Y87712D01*
X99265Y87837D01*
X99474Y87962D01*
X99715Y88062D01*
X99724D01*
X99749Y88070D01*
X99782Y88087D01*
X99832Y88103D01*
X99899Y88120D01*
X99974Y88145D01*
X100057Y88170D01*
X100157Y88195D01*
X100265Y88212D01*
X100382Y88237D01*
X100507Y88262D01*
X100640Y88278D01*
X100932Y88312D01*
X101240Y88320D01*
X101248D01*
X101273D01*
X101307D01*
X101365D01*
X101423Y88312D01*
D02*
G37*
G36*
X170325Y264646D02*
X170408Y264638D01*
X170508Y264629D01*
X170617Y264613D01*
X170733Y264596D01*
X170983Y264538D01*
X171117Y264496D01*
X171258Y264446D01*
X171391Y264388D01*
X171525Y264329D01*
X171658Y264246D01*
X171783Y264163D01*
X171791Y264154D01*
X171808Y264138D01*
X171850Y264113D01*
X171891Y264071D01*
X171941Y264021D01*
X172008Y263963D01*
X172075Y263888D01*
X172150Y263804D01*
X172225Y263713D01*
X172299Y263613D01*
X172374Y263496D01*
X172449Y263379D01*
X172525Y263246D01*
X172591Y263105D01*
X172658Y262946D01*
X172708Y262788D01*
X171875Y262588D01*
Y262596D01*
X171866Y262621D01*
X171850Y262655D01*
X171833Y262705D01*
X171808Y262763D01*
X171783Y262830D01*
X171708Y262980D01*
X171616Y263146D01*
X171508Y263313D01*
X171375Y263471D01*
X171300Y263538D01*
X171225Y263605D01*
X171217D01*
X171208Y263621D01*
X171183Y263638D01*
X171150Y263654D01*
X171108Y263679D01*
X171058Y263704D01*
X170933Y263771D01*
X170775Y263829D01*
X170592Y263879D01*
X170383Y263913D01*
X170150Y263929D01*
X170075D01*
X170025Y263921D01*
X169967D01*
X169892Y263913D01*
X169809Y263896D01*
X169717Y263888D01*
X169525Y263846D01*
X169317Y263779D01*
X169109Y263688D01*
X169009Y263638D01*
X168909Y263571D01*
X168900D01*
X168884Y263554D01*
X168859Y263538D01*
X168825Y263505D01*
X168742Y263430D01*
X168642Y263321D01*
X168526Y263188D01*
X168409Y263021D01*
X168301Y262838D01*
X168217Y262621D01*
Y262613D01*
X168209Y262596D01*
X168201Y262563D01*
X168184Y262521D01*
X168167Y262463D01*
X168151Y262396D01*
X168134Y262321D01*
X168117Y262246D01*
X168084Y262055D01*
X168051Y261847D01*
X168026Y261622D01*
X168017Y261388D01*
Y261380D01*
Y261355D01*
Y261313D01*
Y261255D01*
X168026Y261180D01*
X168034Y261097D01*
Y261005D01*
X168051Y260905D01*
X168076Y260680D01*
X168117Y260447D01*
X168176Y260197D01*
X168251Y259964D01*
Y259955D01*
X168259Y259939D01*
X168276Y259905D01*
X168301Y259864D01*
X168326Y259814D01*
X168351Y259755D01*
X168434Y259622D01*
X168542Y259472D01*
X168667Y259322D01*
X168817Y259181D01*
X168992Y259056D01*
X169000D01*
X169017Y259039D01*
X169042Y259031D01*
X169084Y259006D01*
X169125Y258989D01*
X169184Y258964D01*
X169317Y258906D01*
X169484Y258847D01*
X169667Y258806D01*
X169867Y258772D01*
X170083Y258756D01*
X170150D01*
X170200Y258764D01*
X170267Y258772D01*
X170333Y258781D01*
X170417Y258789D01*
X170500Y258806D01*
X170692Y258856D01*
X170892Y258931D01*
X171000Y258972D01*
X171100Y259031D01*
X171200Y259089D01*
X171292Y259164D01*
X171300Y259172D01*
X171316Y259181D01*
X171341Y259206D01*
X171375Y259239D01*
X171408Y259281D01*
X171458Y259339D01*
X171508Y259397D01*
X171558Y259472D01*
X171616Y259547D01*
X171675Y259639D01*
X171725Y259739D01*
X171783Y259847D01*
X171833Y259972D01*
X171883Y260097D01*
X171925Y260230D01*
X171966Y260380D01*
X172816Y260164D01*
Y260155D01*
X172799Y260122D01*
X172783Y260064D01*
X172766Y259989D01*
X172733Y259905D01*
X172691Y259805D01*
X172649Y259697D01*
X172591Y259572D01*
X172533Y259447D01*
X172458Y259314D01*
X172383Y259189D01*
X172291Y259056D01*
X172200Y258922D01*
X172091Y258797D01*
X171975Y258681D01*
X171850Y258572D01*
X171841Y258564D01*
X171816Y258547D01*
X171783Y258522D01*
X171725Y258489D01*
X171658Y258447D01*
X171575Y258398D01*
X171483Y258356D01*
X171383Y258306D01*
X171258Y258248D01*
X171133Y258206D01*
X170991Y258156D01*
X170842Y258114D01*
X170683Y258081D01*
X170517Y258056D01*
X170342Y258039D01*
X170158Y258031D01*
X170058D01*
X169984Y258039D01*
X169900Y258048D01*
X169792Y258056D01*
X169683Y258064D01*
X169559Y258081D01*
X169292Y258131D01*
X169009Y258206D01*
X168867Y258256D01*
X168725Y258314D01*
X168592Y258372D01*
X168467Y258447D01*
X168459Y258456D01*
X168442Y258464D01*
X168409Y258489D01*
X168359Y258531D01*
X168309Y258572D01*
X168242Y258622D01*
X168176Y258689D01*
X168101Y258764D01*
X168017Y258839D01*
X167942Y258931D01*
X167859Y259031D01*
X167776Y259147D01*
X167692Y259264D01*
X167617Y259389D01*
X167542Y259531D01*
X167476Y259672D01*
Y259681D01*
X167459Y259705D01*
X167442Y259755D01*
X167426Y259814D01*
X167401Y259889D01*
X167367Y259972D01*
X167342Y260072D01*
X167309Y260189D01*
X167276Y260314D01*
X167251Y260447D01*
X167218Y260589D01*
X167192Y260730D01*
X167159Y261055D01*
X167143Y261388D01*
Y261397D01*
Y261430D01*
Y261488D01*
X167151Y261555D01*
Y261647D01*
X167159Y261747D01*
X167176Y261855D01*
X167192Y261980D01*
X167209Y262113D01*
X167234Y262255D01*
X167301Y262546D01*
X167393Y262838D01*
X167451Y262988D01*
X167517Y263130D01*
X167526Y263138D01*
X167534Y263163D01*
X167559Y263205D01*
X167592Y263255D01*
X167626Y263313D01*
X167676Y263388D01*
X167734Y263463D01*
X167801Y263554D01*
X167951Y263738D01*
X168142Y263921D01*
X168359Y264104D01*
X168484Y264188D01*
X168609Y264263D01*
X168617Y264271D01*
X168642Y264279D01*
X168684Y264296D01*
X168734Y264321D01*
X168800Y264354D01*
X168875Y264388D01*
X168967Y264421D01*
X169067Y264463D01*
X169184Y264496D01*
X169300Y264529D01*
X169567Y264596D01*
X169858Y264638D01*
X170008Y264654D01*
X170258D01*
X170325Y264646D01*
D02*
G37*
G36*
X176499Y258139D02*
X175715D01*
Y263146D01*
X175699Y263138D01*
X175665Y263105D01*
X175599Y263046D01*
X175515Y262980D01*
X175407Y262896D01*
X175274Y262805D01*
X175132Y262705D01*
X174965Y262605D01*
X174957D01*
X174949Y262596D01*
X174924Y262580D01*
X174890Y262563D01*
X174799Y262513D01*
X174691Y262455D01*
X174566Y262388D01*
X174424Y262321D01*
X174282Y262255D01*
X174141Y262197D01*
Y262963D01*
X174149D01*
X174174Y262980D01*
X174207Y262996D01*
X174249Y263021D01*
X174307Y263046D01*
X174374Y263088D01*
X174532Y263171D01*
X174707Y263279D01*
X174907Y263413D01*
X175099Y263554D01*
X175290Y263713D01*
X175299Y263721D01*
X175315Y263729D01*
X175340Y263754D01*
X175374Y263788D01*
X175457Y263871D01*
X175565Y263988D01*
X175674Y264113D01*
X175790Y264263D01*
X175899Y264413D01*
X175990Y264571D01*
X176499D01*
Y258139D01*
D02*
G37*
G36*
X180731Y264562D02*
X180781D01*
X180906Y264546D01*
X181047Y264521D01*
X181197Y264479D01*
X181355Y264429D01*
X181506Y264363D01*
X181514D01*
X181522Y264354D01*
X181572Y264321D01*
X181639Y264279D01*
X181730Y264213D01*
X181830Y264121D01*
X181939Y264021D01*
X182047Y263904D01*
X182147Y263763D01*
Y263754D01*
X182155Y263746D01*
X182172Y263721D01*
X182189Y263696D01*
X182230Y263613D01*
X182289Y263496D01*
X182355Y263354D01*
X182422Y263196D01*
X182480Y263005D01*
X182539Y262805D01*
Y262796D01*
X182547Y262780D01*
X182555Y262746D01*
X182564Y262705D01*
X182572Y262646D01*
X182589Y262580D01*
X182597Y262496D01*
X182614Y262405D01*
X182630Y262305D01*
X182638Y262188D01*
X182655Y262071D01*
X182663Y261930D01*
X182672Y261788D01*
X182680Y261638D01*
X182689Y261472D01*
Y261297D01*
Y261280D01*
Y261247D01*
Y261188D01*
Y261105D01*
X182680Y261013D01*
Y260905D01*
X182672Y260780D01*
X182663Y260647D01*
X182630Y260355D01*
X182589Y260047D01*
X182530Y259747D01*
X182497Y259606D01*
X182455Y259472D01*
Y259464D01*
X182447Y259439D01*
X182430Y259405D01*
X182414Y259356D01*
X182389Y259297D01*
X182355Y259231D01*
X182280Y259081D01*
X182180Y258906D01*
X182064Y258731D01*
X181922Y258556D01*
X181755Y258406D01*
X181747D01*
X181739Y258389D01*
X181705Y258372D01*
X181672Y258347D01*
X181630Y258323D01*
X181572Y258289D01*
X181514Y258256D01*
X181439Y258223D01*
X181272Y258148D01*
X181072Y258089D01*
X180847Y258048D01*
X180722Y258039D01*
X180597Y258031D01*
X180556D01*
X180506Y258039D01*
X180447D01*
X180364Y258048D01*
X180281Y258064D01*
X180181Y258089D01*
X180072Y258114D01*
X179956Y258148D01*
X179839Y258189D01*
X179714Y258248D01*
X179589Y258306D01*
X179473Y258381D01*
X179356Y258472D01*
X179248Y258572D01*
X179139Y258689D01*
X179131Y258697D01*
X179114Y258731D01*
X179081Y258772D01*
X179039Y258839D01*
X178998Y258931D01*
X178939Y259039D01*
X178890Y259164D01*
X178831Y259314D01*
X178773Y259489D01*
X178715Y259681D01*
X178656Y259889D01*
X178615Y260130D01*
X178573Y260389D01*
X178540Y260664D01*
X178523Y260972D01*
X178515Y261297D01*
Y261313D01*
Y261347D01*
Y261405D01*
Y261488D01*
X178523Y261580D01*
X178531Y261688D01*
Y261813D01*
X178548Y261947D01*
X178573Y262238D01*
X178615Y262546D01*
X178673Y262846D01*
X178706Y262988D01*
X178748Y263121D01*
Y263130D01*
X178756Y263155D01*
X178773Y263188D01*
X178790Y263238D01*
X178815Y263296D01*
X178848Y263363D01*
X178923Y263521D01*
X179023Y263688D01*
X179139Y263871D01*
X179281Y264046D01*
X179439Y264196D01*
X179448Y264204D01*
X179464Y264213D01*
X179489Y264229D01*
X179523Y264254D01*
X179564Y264279D01*
X179623Y264313D01*
X179681Y264346D01*
X179756Y264388D01*
X179923Y264454D01*
X180123Y264513D01*
X180347Y264554D01*
X180472Y264571D01*
X180681D01*
X180731Y264562D01*
D02*
G37*
G36*
X331524Y162367D02*
X331616D01*
X331716Y162358D01*
X331824Y162342D01*
X331949Y162325D01*
X332082Y162309D01*
X332224Y162283D01*
X332515Y162217D01*
X332807Y162125D01*
X332957Y162067D01*
X333098Y162000D01*
X333107Y161992D01*
X333132Y161984D01*
X333173Y161959D01*
X333223Y161925D01*
X333282Y161892D01*
X333357Y161842D01*
X333432Y161784D01*
X333523Y161717D01*
X333707Y161567D01*
X333890Y161375D01*
X334073Y161159D01*
X334157Y161034D01*
X334232Y160909D01*
X334240Y160900D01*
X334248Y160875D01*
X334265Y160834D01*
X334290Y160784D01*
X334323Y160717D01*
X334357Y160642D01*
X334390Y160551D01*
X334431Y160451D01*
X334465Y160334D01*
X334498Y160217D01*
X334565Y159951D01*
X334607Y159659D01*
X334623Y159509D01*
Y159259D01*
X334615Y159193D01*
X334607Y159109D01*
X334598Y159009D01*
X334581Y158901D01*
X334565Y158784D01*
X334506Y158534D01*
X334465Y158401D01*
X334415Y158259D01*
X334357Y158126D01*
X334298Y157993D01*
X334215Y157860D01*
X334132Y157735D01*
X334123Y157726D01*
X334107Y157710D01*
X334082Y157668D01*
X334040Y157626D01*
X333990Y157576D01*
X333932Y157510D01*
X333857Y157443D01*
X333773Y157368D01*
X333682Y157293D01*
X333582Y157218D01*
X333465Y157143D01*
X333349Y157068D01*
X333215Y156993D01*
X333074Y156926D01*
X332915Y156860D01*
X332757Y156810D01*
X332557Y157643D01*
X332565D01*
X332590Y157651D01*
X332624Y157668D01*
X332674Y157685D01*
X332732Y157710D01*
X332799Y157735D01*
X332949Y157810D01*
X333115Y157901D01*
X333282Y158010D01*
X333440Y158143D01*
X333507Y158218D01*
X333573Y158293D01*
Y158301D01*
X333590Y158309D01*
X333607Y158335D01*
X333623Y158368D01*
X333648Y158410D01*
X333673Y158460D01*
X333740Y158584D01*
X333798Y158743D01*
X333848Y158926D01*
X333882Y159134D01*
X333898Y159368D01*
Y159443D01*
X333890Y159493D01*
Y159551D01*
X333882Y159626D01*
X333865Y159709D01*
X333857Y159801D01*
X333815Y159992D01*
X333748Y160201D01*
X333657Y160409D01*
X333607Y160509D01*
X333540Y160609D01*
Y160617D01*
X333523Y160634D01*
X333507Y160659D01*
X333474Y160692D01*
X333399Y160776D01*
X333290Y160875D01*
X333157Y160992D01*
X332990Y161109D01*
X332807Y161217D01*
X332590Y161300D01*
X332582D01*
X332565Y161309D01*
X332532Y161317D01*
X332490Y161334D01*
X332432Y161350D01*
X332365Y161367D01*
X332290Y161384D01*
X332215Y161400D01*
X332024Y161434D01*
X331815Y161467D01*
X331591Y161492D01*
X331357Y161500D01*
X331349D01*
X331324D01*
X331282D01*
X331224D01*
X331149Y161492D01*
X331066Y161484D01*
X330974D01*
X330874Y161467D01*
X330649Y161442D01*
X330416Y161400D01*
X330166Y161342D01*
X329933Y161267D01*
X329924D01*
X329908Y161259D01*
X329874Y161242D01*
X329833Y161217D01*
X329783Y161192D01*
X329724Y161167D01*
X329591Y161084D01*
X329441Y160975D01*
X329291Y160851D01*
X329150Y160701D01*
X329025Y160526D01*
Y160517D01*
X329008Y160501D01*
X329000Y160476D01*
X328975Y160434D01*
X328958Y160392D01*
X328933Y160334D01*
X328875Y160201D01*
X328816Y160034D01*
X328775Y159851D01*
X328741Y159651D01*
X328725Y159434D01*
Y159368D01*
X328733Y159318D01*
X328741Y159251D01*
X328750Y159184D01*
X328758Y159101D01*
X328775Y159018D01*
X328825Y158826D01*
X328900Y158626D01*
X328941Y158518D01*
X329000Y158418D01*
X329058Y158318D01*
X329133Y158226D01*
X329141Y158218D01*
X329150Y158201D01*
X329175Y158176D01*
X329208Y158143D01*
X329249Y158110D01*
X329308Y158060D01*
X329366Y158010D01*
X329441Y157960D01*
X329516Y157901D01*
X329608Y157843D01*
X329708Y157793D01*
X329816Y157735D01*
X329941Y157685D01*
X330066Y157635D01*
X330199Y157593D01*
X330349Y157551D01*
X330133Y156702D01*
X330124D01*
X330091Y156718D01*
X330033Y156735D01*
X329958Y156752D01*
X329874Y156785D01*
X329774Y156827D01*
X329666Y156868D01*
X329541Y156926D01*
X329416Y156985D01*
X329283Y157060D01*
X329158Y157135D01*
X329025Y157226D01*
X328891Y157318D01*
X328766Y157426D01*
X328650Y157543D01*
X328541Y157668D01*
X328533Y157676D01*
X328516Y157701D01*
X328491Y157735D01*
X328458Y157793D01*
X328416Y157860D01*
X328366Y157943D01*
X328325Y158035D01*
X328275Y158135D01*
X328217Y158259D01*
X328175Y158385D01*
X328125Y158526D01*
X328083Y158676D01*
X328050Y158834D01*
X328025Y159001D01*
X328008Y159176D01*
X328000Y159359D01*
Y159459D01*
X328008Y159534D01*
X328017Y159618D01*
X328025Y159726D01*
X328033Y159834D01*
X328050Y159959D01*
X328100Y160226D01*
X328175Y160509D01*
X328225Y160651D01*
X328283Y160792D01*
X328341Y160926D01*
X328416Y161050D01*
X328425Y161059D01*
X328433Y161075D01*
X328458Y161109D01*
X328500Y161159D01*
X328541Y161209D01*
X328591Y161275D01*
X328658Y161342D01*
X328733Y161417D01*
X328808Y161500D01*
X328900Y161575D01*
X329000Y161659D01*
X329116Y161742D01*
X329233Y161825D01*
X329358Y161900D01*
X329500Y161975D01*
X329641Y162042D01*
X329649D01*
X329674Y162059D01*
X329724Y162075D01*
X329783Y162092D01*
X329858Y162117D01*
X329941Y162150D01*
X330041Y162175D01*
X330158Y162208D01*
X330283Y162242D01*
X330416Y162267D01*
X330558Y162300D01*
X330699Y162325D01*
X331024Y162358D01*
X331357Y162375D01*
X331366D01*
X331399D01*
X331457D01*
X331524Y162367D01*
D02*
G37*
G36*
X332532Y155968D02*
X332615Y155960D01*
X332715Y155943D01*
X332824Y155927D01*
X332932Y155902D01*
X333182Y155835D01*
X333315Y155794D01*
X333448Y155735D01*
X333573Y155668D01*
X333707Y155594D01*
X333823Y155510D01*
X333940Y155410D01*
X333948Y155402D01*
X333965Y155385D01*
X333998Y155352D01*
X334032Y155310D01*
X334082Y155252D01*
X334132Y155185D01*
X334182Y155102D01*
X334240Y155010D01*
X334298Y154919D01*
X334348Y154802D01*
X334398Y154685D01*
X334448Y154560D01*
X334482Y154427D01*
X334515Y154277D01*
X334532Y154127D01*
X334540Y153969D01*
Y153911D01*
X334532Y153861D01*
Y153811D01*
X334523Y153744D01*
X334498Y153594D01*
X334456Y153419D01*
X334398Y153228D01*
X334315Y153027D01*
X334198Y152828D01*
Y152819D01*
X334182Y152803D01*
X334165Y152778D01*
X334140Y152744D01*
X334057Y152653D01*
X333957Y152536D01*
X333815Y152411D01*
X333657Y152278D01*
X333465Y152153D01*
X333240Y152044D01*
X333232D01*
X333215Y152036D01*
X333173Y152020D01*
X333124Y152003D01*
X333057Y151978D01*
X332982Y151961D01*
X332890Y151936D01*
X332782Y151903D01*
X332657Y151878D01*
X332524Y151853D01*
X332382Y151836D01*
X332215Y151811D01*
X332040Y151795D01*
X331857Y151778D01*
X331657Y151770D01*
X331441D01*
X331424D01*
X331391D01*
X331324D01*
X331241D01*
X331132Y151778D01*
X331016Y151786D01*
X330882Y151795D01*
X330732Y151803D01*
X330583Y151819D01*
X330424Y151836D01*
X330091Y151878D01*
X329774Y151945D01*
X329624Y151986D01*
X329483Y152036D01*
X329474D01*
X329450Y152044D01*
X329416Y152061D01*
X329366Y152086D01*
X329300Y152111D01*
X329233Y152144D01*
X329075Y152236D01*
X328891Y152344D01*
X328708Y152486D01*
X328533Y152644D01*
X328375Y152836D01*
Y152844D01*
X328358Y152861D01*
X328341Y152886D01*
X328316Y152928D01*
X328291Y152978D01*
X328258Y153036D01*
X328225Y153111D01*
X328191Y153186D01*
X328116Y153369D01*
X328058Y153577D01*
X328017Y153811D01*
X328008Y153936D01*
X328000Y154069D01*
Y154144D01*
X328008Y154194D01*
X328017Y154261D01*
X328025Y154327D01*
X328033Y154410D01*
X328050Y154502D01*
X328100Y154694D01*
X328175Y154902D01*
X328225Y155002D01*
X328283Y155102D01*
X328341Y155202D01*
X328416Y155294D01*
X328425Y155302D01*
X328433Y155310D01*
X328458Y155335D01*
X328491Y155369D01*
X328533Y155410D01*
X328591Y155452D01*
X328650Y155494D01*
X328716Y155544D01*
X328800Y155594D01*
X328883Y155644D01*
X328983Y155685D01*
X329091Y155735D01*
X329199Y155777D01*
X329324Y155810D01*
X329450Y155835D01*
X329591Y155860D01*
X329649Y155102D01*
X329641D01*
X329624Y155094D01*
X329599D01*
X329566Y155085D01*
X329466Y155060D01*
X329358Y155019D01*
X329225Y154977D01*
X329100Y154910D01*
X328983Y154835D01*
X328883Y154744D01*
X328875Y154727D01*
X328850Y154694D01*
X328808Y154635D01*
X328766Y154552D01*
X328725Y154452D01*
X328683Y154335D01*
X328658Y154194D01*
X328650Y154044D01*
Y153986D01*
X328658Y153919D01*
X328666Y153827D01*
X328691Y153736D01*
X328716Y153627D01*
X328758Y153519D01*
X328808Y153411D01*
X328816Y153402D01*
X328841Y153361D01*
X328875Y153311D01*
X328925Y153252D01*
X328991Y153177D01*
X329066Y153103D01*
X329150Y153027D01*
X329249Y152961D01*
X329266Y152953D01*
X329300Y152928D01*
X329366Y152903D01*
X329450Y152861D01*
X329558Y152811D01*
X329683Y152761D01*
X329833Y152711D01*
X329999Y152669D01*
X330008D01*
X330024Y152661D01*
X330049D01*
X330083Y152653D01*
X330124Y152644D01*
X330174Y152636D01*
X330299Y152611D01*
X330441Y152586D01*
X330607Y152569D01*
X330783Y152561D01*
X330966Y152553D01*
X330974D01*
X331007D01*
X331057D01*
X331124D01*
X331107Y152561D01*
X331066Y152594D01*
X330991Y152653D01*
X330907Y152728D01*
X330807Y152819D01*
X330708Y152928D01*
X330607Y153061D01*
X330516Y153202D01*
Y153211D01*
X330508Y153219D01*
X330491Y153244D01*
X330482Y153278D01*
X330441Y153352D01*
X330399Y153469D01*
X330358Y153594D01*
X330316Y153744D01*
X330291Y153911D01*
X330283Y154086D01*
Y154161D01*
X330291Y154219D01*
X330299Y154285D01*
X330316Y154369D01*
X330333Y154452D01*
X330358Y154552D01*
X330383Y154652D01*
X330424Y154760D01*
X330466Y154869D01*
X330524Y154985D01*
X330591Y155102D01*
X330666Y155210D01*
X330757Y155319D01*
X330858Y155427D01*
X330866Y155435D01*
X330882Y155452D01*
X330916Y155477D01*
X330966Y155510D01*
X331016Y155552D01*
X331091Y155602D01*
X331174Y155652D01*
X331266Y155702D01*
X331366Y155752D01*
X331482Y155802D01*
X331607Y155852D01*
X331741Y155893D01*
X331882Y155927D01*
X332040Y155952D01*
X332199Y155968D01*
X332374Y155977D01*
X332382D01*
X332415D01*
X332465D01*
X332532Y155968D01*
D02*
G37*
G36*
X-36301Y158707D02*
X-36226Y158699D01*
X-36143Y158682D01*
X-36059Y158666D01*
X-35959Y158640D01*
X-35851Y158616D01*
X-35743Y158574D01*
X-35626Y158524D01*
X-35510Y158474D01*
X-35393Y158399D01*
X-35276Y158324D01*
X-35168Y158232D01*
X-35060Y158132D01*
X-35051Y158124D01*
X-35035Y158107D01*
X-35010Y158074D01*
X-34976Y158024D01*
X-34926Y157966D01*
X-34885Y157899D01*
X-34835Y157816D01*
X-34785Y157724D01*
X-34726Y157616D01*
X-34676Y157507D01*
X-34635Y157382D01*
X-34593Y157241D01*
X-34551Y157099D01*
X-34526Y156941D01*
X-34510Y156783D01*
X-34501Y156608D01*
Y156516D01*
X-34510Y156449D01*
X-34518Y156366D01*
X-34535Y156274D01*
X-34551Y156174D01*
X-34568Y156058D01*
X-34635Y155816D01*
X-34685Y155691D01*
X-34735Y155558D01*
X-34801Y155433D01*
X-34876Y155308D01*
X-34960Y155191D01*
X-35060Y155075D01*
X-35068Y155066D01*
X-35085Y155050D01*
X-35118Y155025D01*
X-35160Y154983D01*
X-35218Y154941D01*
X-35285Y154892D01*
X-35359Y154841D01*
X-35443Y154791D01*
X-35543Y154733D01*
X-35643Y154683D01*
X-35759Y154633D01*
X-35884Y154592D01*
X-36018Y154550D01*
X-36159Y154525D01*
X-36309Y154508D01*
X-36459Y154500D01*
X-36468D01*
X-36484D01*
X-36518D01*
X-36567Y154508D01*
X-36618D01*
X-36676Y154517D01*
X-36826Y154542D01*
X-36992Y154575D01*
X-37159Y154633D01*
X-37334Y154708D01*
X-37501Y154817D01*
X-37509D01*
X-37517Y154833D01*
X-37567Y154875D01*
X-37642Y154950D01*
X-37734Y155050D01*
X-37826Y155175D01*
X-37926Y155333D01*
X-38009Y155508D01*
X-38075Y155716D01*
Y155708D01*
X-38084Y155691D01*
X-38092Y155666D01*
X-38109Y155633D01*
X-38150Y155550D01*
X-38209Y155441D01*
X-38284Y155325D01*
X-38367Y155200D01*
X-38475Y155091D01*
X-38592Y154991D01*
X-38609Y154983D01*
X-38650Y154958D01*
X-38725Y154916D01*
X-38817Y154875D01*
X-38934Y154833D01*
X-39067Y154791D01*
X-39217Y154767D01*
X-39383Y154758D01*
X-39392D01*
X-39417D01*
X-39450D01*
X-39500Y154767D01*
X-39558Y154775D01*
X-39633Y154783D01*
X-39792Y154825D01*
X-39975Y154883D01*
X-40075Y154925D01*
X-40175Y154966D01*
X-40275Y155025D01*
X-40375Y155091D01*
X-40466Y155166D01*
X-40558Y155258D01*
X-40567Y155266D01*
X-40583Y155283D01*
X-40600Y155308D01*
X-40633Y155350D01*
X-40666Y155400D01*
X-40708Y155458D01*
X-40758Y155533D01*
X-40800Y155616D01*
X-40841Y155700D01*
X-40891Y155800D01*
X-40933Y155916D01*
X-40966Y156033D01*
X-41000Y156158D01*
X-41025Y156291D01*
X-41033Y156441D01*
X-41041Y156591D01*
Y156674D01*
X-41033Y156733D01*
X-41025Y156799D01*
X-41016Y156883D01*
X-41000Y156974D01*
X-40983Y157074D01*
X-40925Y157291D01*
X-40883Y157399D01*
X-40833Y157516D01*
X-40775Y157624D01*
X-40717Y157741D01*
X-40633Y157841D01*
X-40550Y157941D01*
X-40542Y157949D01*
X-40525Y157966D01*
X-40500Y157991D01*
X-40466Y158024D01*
X-40417Y158057D01*
X-40358Y158107D01*
X-40292Y158149D01*
X-40225Y158199D01*
X-40050Y158291D01*
X-39850Y158374D01*
X-39733Y158407D01*
X-39617Y158432D01*
X-39492Y158449D01*
X-39367Y158457D01*
X-39358D01*
X-39350D01*
X-39325D01*
X-39292D01*
X-39209Y158449D01*
X-39100Y158424D01*
X-38975Y158399D01*
X-38850Y158357D01*
X-38717Y158299D01*
X-38584Y158216D01*
X-38567Y158207D01*
X-38534Y158174D01*
X-38475Y158116D01*
X-38400Y158041D01*
X-38317Y157941D01*
X-38234Y157816D01*
X-38150Y157674D01*
X-38075Y157507D01*
Y157516D01*
X-38067Y157533D01*
X-38059Y157566D01*
X-38042Y157607D01*
X-38017Y157657D01*
X-37992Y157707D01*
X-37926Y157841D01*
X-37842Y157991D01*
X-37734Y158141D01*
X-37609Y158282D01*
X-37459Y158407D01*
X-37451D01*
X-37442Y158424D01*
X-37417Y158432D01*
X-37384Y158457D01*
X-37342Y158482D01*
X-37292Y158507D01*
X-37176Y158566D01*
X-37026Y158616D01*
X-36851Y158666D01*
X-36651Y158699D01*
X-36434Y158715D01*
X-36426D01*
X-36401D01*
X-36359D01*
X-36301Y158707D01*
D02*
G37*
G36*
X-36593Y153767D02*
X-36534Y153750D01*
X-36459Y153733D01*
X-36376Y153700D01*
X-36276Y153658D01*
X-36168Y153617D01*
X-36043Y153559D01*
X-35918Y153500D01*
X-35784Y153425D01*
X-35659Y153350D01*
X-35526Y153258D01*
X-35393Y153167D01*
X-35268Y153059D01*
X-35151Y152942D01*
X-35043Y152817D01*
X-35035Y152809D01*
X-35018Y152784D01*
X-34993Y152750D01*
X-34960Y152692D01*
X-34918Y152625D01*
X-34868Y152542D01*
X-34826Y152450D01*
X-34776Y152350D01*
X-34718Y152226D01*
X-34676Y152100D01*
X-34626Y151959D01*
X-34585Y151809D01*
X-34551Y151651D01*
X-34526Y151484D01*
X-34510Y151309D01*
X-34501Y151126D01*
Y151026D01*
X-34510Y150951D01*
X-34518Y150868D01*
X-34526Y150759D01*
X-34535Y150651D01*
X-34551Y150526D01*
X-34601Y150259D01*
X-34676Y149976D01*
X-34726Y149834D01*
X-34785Y149693D01*
X-34843Y149559D01*
X-34918Y149434D01*
X-34926Y149426D01*
X-34935Y149410D01*
X-34960Y149376D01*
X-35001Y149326D01*
X-35043Y149276D01*
X-35093Y149210D01*
X-35160Y149143D01*
X-35234Y149068D01*
X-35310Y148985D01*
X-35401Y148910D01*
X-35501Y148826D01*
X-35618Y148743D01*
X-35734Y148660D01*
X-35859Y148585D01*
X-36001Y148510D01*
X-36143Y148443D01*
X-36151D01*
X-36176Y148426D01*
X-36226Y148410D01*
X-36284Y148393D01*
X-36359Y148368D01*
X-36443Y148335D01*
X-36542Y148310D01*
X-36659Y148277D01*
X-36784Y148243D01*
X-36918Y148218D01*
X-37059Y148185D01*
X-37201Y148160D01*
X-37526Y148126D01*
X-37859Y148110D01*
X-37867D01*
X-37901D01*
X-37959D01*
X-38026Y148118D01*
X-38117D01*
X-38217Y148126D01*
X-38325Y148143D01*
X-38450Y148160D01*
X-38584Y148176D01*
X-38725Y148202D01*
X-39017Y148268D01*
X-39309Y148360D01*
X-39458Y148418D01*
X-39600Y148485D01*
X-39608Y148493D01*
X-39633Y148501D01*
X-39675Y148526D01*
X-39725Y148560D01*
X-39783Y148593D01*
X-39858Y148643D01*
X-39933Y148701D01*
X-40025Y148768D01*
X-40208Y148918D01*
X-40392Y149110D01*
X-40575Y149326D01*
X-40658Y149451D01*
X-40733Y149576D01*
X-40742Y149585D01*
X-40750Y149609D01*
X-40767Y149651D01*
X-40792Y149701D01*
X-40825Y149768D01*
X-40858Y149843D01*
X-40891Y149934D01*
X-40933Y150034D01*
X-40966Y150151D01*
X-41000Y150268D01*
X-41066Y150534D01*
X-41108Y150826D01*
X-41125Y150976D01*
Y151226D01*
X-41116Y151292D01*
X-41108Y151376D01*
X-41100Y151476D01*
X-41083Y151584D01*
X-41066Y151701D01*
X-41008Y151951D01*
X-40966Y152084D01*
X-40916Y152226D01*
X-40858Y152359D01*
X-40800Y152492D01*
X-40717Y152625D01*
X-40633Y152750D01*
X-40625Y152759D01*
X-40608Y152775D01*
X-40583Y152817D01*
X-40542Y152859D01*
X-40491Y152909D01*
X-40433Y152975D01*
X-40358Y153042D01*
X-40275Y153117D01*
X-40183Y153192D01*
X-40083Y153267D01*
X-39967Y153342D01*
X-39850Y153417D01*
X-39717Y153492D01*
X-39575Y153559D01*
X-39417Y153625D01*
X-39258Y153675D01*
X-39059Y152842D01*
X-39067D01*
X-39092Y152834D01*
X-39125Y152817D01*
X-39175Y152800D01*
X-39234Y152775D01*
X-39300Y152750D01*
X-39450Y152675D01*
X-39617Y152584D01*
X-39783Y152475D01*
X-39942Y152342D01*
X-40008Y152267D01*
X-40075Y152192D01*
Y152184D01*
X-40092Y152176D01*
X-40108Y152150D01*
X-40125Y152117D01*
X-40150Y152076D01*
X-40175Y152025D01*
X-40242Y151901D01*
X-40300Y151742D01*
X-40350Y151559D01*
X-40383Y151351D01*
X-40400Y151117D01*
Y151042D01*
X-40392Y150992D01*
Y150934D01*
X-40383Y150859D01*
X-40367Y150776D01*
X-40358Y150684D01*
X-40317Y150493D01*
X-40250Y150284D01*
X-40158Y150076D01*
X-40108Y149976D01*
X-40042Y149876D01*
Y149868D01*
X-40025Y149851D01*
X-40008Y149826D01*
X-39975Y149793D01*
X-39900Y149710D01*
X-39792Y149609D01*
X-39658Y149493D01*
X-39492Y149376D01*
X-39309Y149268D01*
X-39092Y149185D01*
X-39084D01*
X-39067Y149176D01*
X-39034Y149168D01*
X-38992Y149151D01*
X-38934Y149135D01*
X-38867Y149118D01*
X-38792Y149101D01*
X-38717Y149085D01*
X-38525Y149051D01*
X-38317Y149018D01*
X-38092Y148993D01*
X-37859Y148985D01*
X-37850D01*
X-37826D01*
X-37784D01*
X-37726D01*
X-37651Y148993D01*
X-37567Y149001D01*
X-37476D01*
X-37376Y149018D01*
X-37151Y149043D01*
X-36918Y149085D01*
X-36667Y149143D01*
X-36434Y149218D01*
X-36426D01*
X-36409Y149226D01*
X-36376Y149243D01*
X-36334Y149268D01*
X-36284Y149293D01*
X-36226Y149318D01*
X-36093Y149401D01*
X-35943Y149509D01*
X-35793Y149635D01*
X-35651Y149784D01*
X-35526Y149959D01*
Y149968D01*
X-35510Y149984D01*
X-35501Y150009D01*
X-35476Y150051D01*
X-35459Y150093D01*
X-35435Y150151D01*
X-35376Y150284D01*
X-35318Y150451D01*
X-35276Y150634D01*
X-35243Y150834D01*
X-35226Y151051D01*
Y151117D01*
X-35234Y151167D01*
X-35243Y151234D01*
X-35251Y151301D01*
X-35259Y151384D01*
X-35276Y151467D01*
X-35326Y151659D01*
X-35401Y151859D01*
X-35443Y151967D01*
X-35501Y152067D01*
X-35559Y152167D01*
X-35634Y152259D01*
X-35643Y152267D01*
X-35651Y152284D01*
X-35676Y152309D01*
X-35709Y152342D01*
X-35751Y152375D01*
X-35809Y152425D01*
X-35868Y152475D01*
X-35943Y152525D01*
X-36018Y152584D01*
X-36109Y152642D01*
X-36209Y152692D01*
X-36318Y152750D01*
X-36443Y152800D01*
X-36567Y152850D01*
X-36701Y152892D01*
X-36851Y152934D01*
X-36634Y153783D01*
X-36626D01*
X-36593Y153767D01*
D02*
G37*
G36*
X143756Y20992D02*
X143840Y20983D01*
X143948Y20975D01*
X144056Y20967D01*
X144181Y20950D01*
X144448Y20900D01*
X144731Y20825D01*
X144873Y20775D01*
X145014Y20717D01*
X145148Y20659D01*
X145273Y20584D01*
X145281Y20575D01*
X145298Y20567D01*
X145331Y20542D01*
X145381Y20500D01*
X145431Y20459D01*
X145498Y20409D01*
X145564Y20342D01*
X145639Y20267D01*
X145723Y20192D01*
X145798Y20100D01*
X145881Y20000D01*
X145964Y19884D01*
X146047Y19767D01*
X146122Y19642D01*
X146197Y19500D01*
X146264Y19359D01*
Y19351D01*
X146281Y19325D01*
X146297Y19275D01*
X146314Y19217D01*
X146339Y19142D01*
X146372Y19059D01*
X146397Y18959D01*
X146431Y18842D01*
X146464Y18717D01*
X146489Y18584D01*
X146522Y18442D01*
X146547Y18301D01*
X146581Y17976D01*
X146597Y17643D01*
Y17634D01*
Y17601D01*
Y17543D01*
X146589Y17476D01*
Y17384D01*
X146581Y17284D01*
X146564Y17176D01*
X146547Y17051D01*
X146531Y16918D01*
X146506Y16776D01*
X146439Y16485D01*
X146347Y16193D01*
X146289Y16043D01*
X146222Y15901D01*
X146214Y15893D01*
X146206Y15868D01*
X146181Y15826D01*
X146147Y15776D01*
X146114Y15718D01*
X146064Y15643D01*
X146006Y15568D01*
X145939Y15476D01*
X145789Y15293D01*
X145597Y15110D01*
X145381Y14927D01*
X145256Y14843D01*
X145131Y14768D01*
X145123Y14760D01*
X145098Y14752D01*
X145056Y14735D01*
X145006Y14710D01*
X144939Y14677D01*
X144864Y14643D01*
X144773Y14610D01*
X144673Y14568D01*
X144556Y14535D01*
X144439Y14502D01*
X144173Y14435D01*
X143881Y14393D01*
X143731Y14377D01*
X143481D01*
X143415Y14385D01*
X143331Y14393D01*
X143231Y14402D01*
X143123Y14418D01*
X143006Y14435D01*
X142757Y14493D01*
X142623Y14535D01*
X142482Y14585D01*
X142348Y14643D01*
X142215Y14702D01*
X142082Y14785D01*
X141957Y14868D01*
X141948Y14877D01*
X141932Y14893D01*
X141890Y14918D01*
X141848Y14960D01*
X141798Y15010D01*
X141732Y15068D01*
X141665Y15143D01*
X141590Y15227D01*
X141515Y15318D01*
X141440Y15418D01*
X141365Y15535D01*
X141290Y15652D01*
X141215Y15785D01*
X141149Y15926D01*
X141082Y16085D01*
X141032Y16243D01*
X141865Y16443D01*
Y16435D01*
X141874Y16410D01*
X141890Y16376D01*
X141907Y16326D01*
X141932Y16268D01*
X141957Y16201D01*
X142032Y16051D01*
X142123Y15885D01*
X142232Y15718D01*
X142365Y15560D01*
X142440Y15493D01*
X142515Y15426D01*
X142523D01*
X142532Y15410D01*
X142557Y15393D01*
X142590Y15376D01*
X142632Y15352D01*
X142682Y15326D01*
X142807Y15260D01*
X142965Y15202D01*
X143148Y15152D01*
X143356Y15118D01*
X143590Y15102D01*
X143665D01*
X143715Y15110D01*
X143773D01*
X143848Y15118D01*
X143931Y15135D01*
X144023Y15143D01*
X144214Y15185D01*
X144423Y15252D01*
X144631Y15343D01*
X144731Y15393D01*
X144831Y15460D01*
X144839D01*
X144856Y15476D01*
X144881Y15493D01*
X144914Y15526D01*
X144998Y15602D01*
X145098Y15710D01*
X145214Y15843D01*
X145331Y16010D01*
X145439Y16193D01*
X145522Y16410D01*
Y16418D01*
X145531Y16435D01*
X145539Y16468D01*
X145556Y16510D01*
X145573Y16568D01*
X145589Y16635D01*
X145606Y16710D01*
X145623Y16784D01*
X145656Y16976D01*
X145689Y17184D01*
X145714Y17409D01*
X145723Y17643D01*
Y17651D01*
Y17676D01*
Y17718D01*
Y17776D01*
X145714Y17851D01*
X145706Y17934D01*
Y18026D01*
X145689Y18126D01*
X145664Y18351D01*
X145623Y18584D01*
X145564Y18834D01*
X145489Y19067D01*
Y19076D01*
X145481Y19092D01*
X145464Y19126D01*
X145439Y19167D01*
X145414Y19217D01*
X145389Y19275D01*
X145306Y19409D01*
X145198Y19559D01*
X145073Y19709D01*
X144923Y19850D01*
X144748Y19975D01*
X144739D01*
X144723Y19992D01*
X144698Y20000D01*
X144656Y20025D01*
X144614Y20042D01*
X144556Y20067D01*
X144423Y20125D01*
X144256Y20184D01*
X144073Y20225D01*
X143873Y20259D01*
X143656Y20275D01*
X143590D01*
X143540Y20267D01*
X143473Y20259D01*
X143406Y20250D01*
X143323Y20242D01*
X143240Y20225D01*
X143048Y20175D01*
X142848Y20100D01*
X142740Y20059D01*
X142640Y20000D01*
X142540Y19942D01*
X142448Y19867D01*
X142440Y19859D01*
X142423Y19850D01*
X142398Y19825D01*
X142365Y19792D01*
X142332Y19750D01*
X142282Y19692D01*
X142232Y19634D01*
X142182Y19559D01*
X142123Y19484D01*
X142065Y19392D01*
X142015Y19292D01*
X141957Y19184D01*
X141907Y19059D01*
X141857Y18934D01*
X141815Y18801D01*
X141774Y18651D01*
X140924Y18867D01*
Y18876D01*
X140940Y18909D01*
X140957Y18967D01*
X140974Y19042D01*
X141007Y19126D01*
X141049Y19225D01*
X141090Y19334D01*
X141149Y19459D01*
X141207Y19584D01*
X141282Y19717D01*
X141357Y19842D01*
X141449Y19975D01*
X141540Y20109D01*
X141649Y20234D01*
X141765Y20350D01*
X141890Y20459D01*
X141898Y20467D01*
X141924Y20484D01*
X141957Y20508D01*
X142015Y20542D01*
X142082Y20584D01*
X142165Y20633D01*
X142257Y20675D01*
X142357Y20725D01*
X142482Y20784D01*
X142607Y20825D01*
X142748Y20875D01*
X142898Y20917D01*
X143056Y20950D01*
X143223Y20975D01*
X143398Y20992D01*
X143581Y21000D01*
X143681D01*
X143756Y20992D01*
D02*
G37*
G36*
X139249Y20883D02*
Y20859D01*
Y20817D01*
X139241Y20759D01*
Y20684D01*
X139233Y20600D01*
X139224Y20500D01*
X139207Y20384D01*
X139191Y20259D01*
X139174Y20117D01*
X139149Y19967D01*
X139124Y19809D01*
X139091Y19642D01*
X139049Y19459D01*
X139008Y19275D01*
X138958Y19076D01*
Y19059D01*
X138941Y19026D01*
X138924Y18967D01*
X138908Y18892D01*
X138874Y18792D01*
X138841Y18684D01*
X138799Y18559D01*
X138749Y18417D01*
X138699Y18259D01*
X138633Y18101D01*
X138499Y17751D01*
X138333Y17384D01*
X138149Y17009D01*
X138141Y17001D01*
X138124Y16968D01*
X138099Y16910D01*
X138058Y16843D01*
X138008Y16760D01*
X137949Y16659D01*
X137883Y16543D01*
X137808Y16426D01*
X137641Y16160D01*
X137450Y15876D01*
X137233Y15593D01*
X137016Y15326D01*
X140149D01*
Y14568D01*
X136008D01*
Y15185D01*
X136017Y15193D01*
X136033Y15218D01*
X136067Y15252D01*
X136117Y15302D01*
X136167Y15368D01*
X136233Y15452D01*
X136308Y15543D01*
X136391Y15643D01*
X136483Y15760D01*
X136575Y15893D01*
X136675Y16035D01*
X136783Y16193D01*
X136891Y16351D01*
X137000Y16535D01*
X137108Y16718D01*
X137225Y16918D01*
X137233Y16926D01*
X137250Y16968D01*
X137283Y17026D01*
X137325Y17101D01*
X137375Y17201D01*
X137425Y17318D01*
X137491Y17451D01*
X137558Y17601D01*
X137633Y17759D01*
X137708Y17934D01*
X137783Y18118D01*
X137858Y18309D01*
X138008Y18709D01*
X138141Y19134D01*
Y19142D01*
X138149Y19167D01*
X138166Y19217D01*
X138183Y19275D01*
X138199Y19351D01*
X138224Y19442D01*
X138241Y19542D01*
X138266Y19659D01*
X138291Y19784D01*
X138324Y19917D01*
X138349Y20067D01*
X138366Y20217D01*
X138408Y20542D01*
X138441Y20892D01*
X139249D01*
Y20883D01*
D02*
G37*
G36*
X115137Y212150D02*
X111438D01*
X111429D01*
X111404D01*
X111354D01*
X111304D01*
X111229Y212142D01*
X111154D01*
X111063Y212134D01*
X110971D01*
X110771Y212117D01*
X110563Y212084D01*
X110371Y212050D01*
X110288Y212025D01*
X110205Y212000D01*
X110196D01*
X110188Y211992D01*
X110138Y211967D01*
X110071Y211934D01*
X109980Y211875D01*
X109888Y211800D01*
X109780Y211709D01*
X109688Y211600D01*
X109597Y211467D01*
Y211459D01*
X109588Y211451D01*
X109563Y211401D01*
X109530Y211317D01*
X109496Y211209D01*
X109455Y211076D01*
X109422Y210917D01*
X109396Y210742D01*
X109388Y210542D01*
Y210451D01*
X109396Y210392D01*
X109405Y210317D01*
X109413Y210226D01*
X109422Y210126D01*
X109438Y210026D01*
X109488Y209809D01*
X109563Y209584D01*
X109613Y209484D01*
X109671Y209384D01*
X109730Y209293D01*
X109805Y209209D01*
X109813Y209201D01*
X109830Y209193D01*
X109855Y209176D01*
X109888Y209143D01*
X109938Y209118D01*
X110005Y209084D01*
X110080Y209043D01*
X110171Y209009D01*
X110271Y208968D01*
X110388Y208934D01*
X110521Y208901D01*
X110671Y208868D01*
X110838Y208843D01*
X111021Y208826D01*
X111221Y208818D01*
X111438Y208810D01*
X115137D01*
Y207960D01*
X111429D01*
X111421D01*
X111388D01*
X111338D01*
X111271D01*
X111188Y207968D01*
X111096D01*
X110988Y207976D01*
X110879Y207985D01*
X110630Y208018D01*
X110371Y208051D01*
X110121Y208110D01*
X110005Y208143D01*
X109896Y208185D01*
X109888D01*
X109871Y208193D01*
X109838Y208210D01*
X109805Y208226D01*
X109755Y208251D01*
X109697Y208285D01*
X109572Y208368D01*
X109422Y208476D01*
X109272Y208610D01*
X109113Y208776D01*
X109038Y208876D01*
X108972Y208976D01*
Y208985D01*
X108955Y209001D01*
X108938Y209035D01*
X108913Y209076D01*
X108888Y209134D01*
X108863Y209201D01*
X108830Y209284D01*
X108797Y209376D01*
X108763Y209476D01*
X108730Y209593D01*
X108705Y209709D01*
X108680Y209843D01*
X108655Y209984D01*
X108638Y210134D01*
X108630Y210301D01*
X108622Y210467D01*
Y210551D01*
X108630Y210617D01*
Y210692D01*
X108638Y210784D01*
X108647Y210884D01*
X108663Y210992D01*
X108697Y211226D01*
X108755Y211467D01*
X108830Y211717D01*
X108930Y211942D01*
Y211950D01*
X108947Y211967D01*
X108963Y212000D01*
X108988Y212034D01*
X109055Y212134D01*
X109155Y212259D01*
X109280Y212392D01*
X109438Y212525D01*
X109613Y212650D01*
X109821Y212759D01*
X109830D01*
X109846Y212767D01*
X109880Y212784D01*
X109930Y212792D01*
X109988Y212817D01*
X110063Y212833D01*
X110146Y212859D01*
X110246Y212875D01*
X110355Y212900D01*
X110471Y212925D01*
X110605Y212942D01*
X110746Y212959D01*
X110905Y212975D01*
X111071Y212992D01*
X111246Y213000D01*
X111429D01*
X115137D01*
Y212150D01*
D02*
G37*
G36*
X110538Y206077D02*
X110530D01*
X110505Y206068D01*
X110471Y206060D01*
X110430Y206052D01*
X110371Y206035D01*
X110313Y206019D01*
X110163Y205969D01*
X110005Y205910D01*
X109846Y205827D01*
X109688Y205735D01*
X109621Y205685D01*
X109563Y205627D01*
X109555Y205610D01*
X109522Y205569D01*
X109472Y205502D01*
X109422Y205402D01*
X109363Y205285D01*
X109321Y205152D01*
X109288Y204994D01*
X109272Y204827D01*
Y204769D01*
X109280Y204736D01*
Y204686D01*
X109288Y204627D01*
X109321Y204502D01*
X109363Y204352D01*
X109430Y204194D01*
X109530Y204036D01*
X109588Y203961D01*
X109655Y203886D01*
X109663Y203877D01*
X109671Y203869D01*
X109697Y203852D01*
X109721Y203827D01*
X109805Y203761D01*
X109921Y203694D01*
X110055Y203627D01*
X110221Y203561D01*
X110405Y203519D01*
X110505Y203503D01*
X110605D01*
X110613D01*
X110630D01*
X110654D01*
X110696Y203511D01*
X110738D01*
X110796Y203519D01*
X110921Y203544D01*
X111063Y203586D01*
X111213Y203652D01*
X111354Y203744D01*
X111429Y203794D01*
X111496Y203861D01*
X111513Y203877D01*
X111554Y203927D01*
X111604Y204002D01*
X111671Y204102D01*
X111738Y204236D01*
X111788Y204386D01*
X111829Y204561D01*
X111846Y204761D01*
Y204852D01*
X111838Y204911D01*
X111829Y204994D01*
X111813Y205094D01*
X111788Y205202D01*
X111763Y205319D01*
X112454Y205227D01*
Y205210D01*
X112446Y205185D01*
X112437Y205144D01*
Y205052D01*
X112446Y205019D01*
X112454Y204919D01*
X112471Y204802D01*
X112504Y204661D01*
X112546Y204511D01*
X112612Y204352D01*
X112696Y204202D01*
Y204194D01*
X112712Y204186D01*
X112746Y204136D01*
X112812Y204069D01*
X112896Y203994D01*
X113012Y203919D01*
X113154Y203861D01*
X113321Y203811D01*
X113412Y203803D01*
X113512Y203794D01*
X113520D01*
X113529D01*
X113587Y203803D01*
X113662Y203811D01*
X113762Y203827D01*
X113870Y203869D01*
X113987Y203919D01*
X114112Y203994D01*
X114220Y204094D01*
X114237Y204111D01*
X114270Y204144D01*
X114312Y204211D01*
X114370Y204294D01*
X114420Y204402D01*
X114470Y204536D01*
X114504Y204677D01*
X114512Y204844D01*
Y204886D01*
X114504Y204919D01*
X114495Y205011D01*
X114479Y205119D01*
X114437Y205235D01*
X114387Y205369D01*
X114320Y205494D01*
X114220Y205619D01*
X114204Y205635D01*
X114170Y205669D01*
X114104Y205719D01*
X114004Y205777D01*
X113887Y205844D01*
X113737Y205910D01*
X113562Y205960D01*
X113362Y206002D01*
X113504Y206785D01*
X113512D01*
X113537Y206777D01*
X113579Y206768D01*
X113637Y206752D01*
X113695Y206735D01*
X113779Y206710D01*
X113862Y206685D01*
X113954Y206652D01*
X114145Y206560D01*
X114345Y206452D01*
X114545Y206310D01*
X114637Y206227D01*
X114720Y206135D01*
X114728Y206127D01*
X114737Y206110D01*
X114762Y206085D01*
X114787Y206044D01*
X114820Y205994D01*
X114862Y205935D01*
X114903Y205860D01*
X114945Y205785D01*
X114978Y205694D01*
X115020Y205602D01*
X115095Y205385D01*
X115145Y205135D01*
X115153Y205002D01*
X115162Y204860D01*
Y204769D01*
X115153Y204727D01*
Y204669D01*
X115137Y204544D01*
X115103Y204394D01*
X115070Y204236D01*
X115012Y204069D01*
X114937Y203902D01*
Y203894D01*
X114928Y203886D01*
X114912Y203861D01*
X114895Y203827D01*
X114845Y203752D01*
X114778Y203652D01*
X114687Y203544D01*
X114579Y203428D01*
X114462Y203319D01*
X114320Y203228D01*
X114312D01*
X114304Y203219D01*
X114254Y203186D01*
X114170Y203153D01*
X114070Y203103D01*
X113945Y203061D01*
X113804Y203019D01*
X113654Y202994D01*
X113496Y202986D01*
X113487D01*
X113479D01*
X113429D01*
X113345Y202994D01*
X113245Y203011D01*
X113129Y203044D01*
X113004Y203078D01*
X112871Y203136D01*
X112737Y203211D01*
X112721Y203219D01*
X112679Y203253D01*
X112621Y203303D01*
X112546Y203378D01*
X112454Y203469D01*
X112362Y203586D01*
X112279Y203719D01*
X112196Y203869D01*
Y203861D01*
X112188Y203844D01*
X112179Y203811D01*
X112171Y203778D01*
X112154Y203727D01*
X112129Y203669D01*
X112079Y203544D01*
X112004Y203403D01*
X111904Y203261D01*
X111788Y203111D01*
X111646Y202986D01*
X111638D01*
X111629Y202969D01*
X111604Y202953D01*
X111571Y202936D01*
X111529Y202911D01*
X111488Y202886D01*
X111363Y202828D01*
X111213Y202769D01*
X111038Y202719D01*
X110846Y202686D01*
X110621Y202669D01*
X110613D01*
X110588D01*
X110538D01*
X110480Y202678D01*
X110405Y202686D01*
X110321Y202703D01*
X110230Y202719D01*
X110130Y202744D01*
X110021Y202778D01*
X109905Y202819D01*
X109788Y202869D01*
X109663Y202928D01*
X109546Y203003D01*
X109422Y203086D01*
X109305Y203178D01*
X109197Y203286D01*
X109188Y203294D01*
X109172Y203311D01*
X109147Y203344D01*
X109105Y203394D01*
X109063Y203453D01*
X109013Y203528D01*
X108963Y203611D01*
X108913Y203703D01*
X108855Y203811D01*
X108805Y203927D01*
X108755Y204052D01*
X108713Y204194D01*
X108672Y204336D01*
X108647Y204494D01*
X108630Y204652D01*
X108622Y204827D01*
Y204911D01*
X108630Y204969D01*
X108638Y205035D01*
X108647Y205119D01*
X108663Y205219D01*
X108688Y205319D01*
X108747Y205535D01*
X108788Y205652D01*
X108830Y205769D01*
X108888Y205894D01*
X108955Y206010D01*
X109030Y206119D01*
X109122Y206227D01*
X109130Y206235D01*
X109147Y206252D01*
X109172Y206277D01*
X109213Y206318D01*
X109263Y206360D01*
X109321Y206410D01*
X109396Y206460D01*
X109472Y206518D01*
X109563Y206568D01*
X109663Y206627D01*
X109771Y206677D01*
X109888Y206727D01*
X110013Y206777D01*
X110138Y206810D01*
X110280Y206843D01*
X110430Y206860D01*
X110538Y206077D01*
D02*
G37*
G36*
X130707Y260896D02*
X130791Y260888D01*
X130891Y260879D01*
X130999Y260863D01*
X131116Y260846D01*
X131365Y260788D01*
X131499Y260746D01*
X131640Y260696D01*
X131774Y260638D01*
X131907Y260579D01*
X132040Y260496D01*
X132165Y260413D01*
X132174Y260404D01*
X132190Y260388D01*
X132232Y260363D01*
X132274Y260321D01*
X132324Y260271D01*
X132390Y260213D01*
X132457Y260138D01*
X132532Y260054D01*
X132607Y259963D01*
X132682Y259863D01*
X132757Y259746D01*
X132832Y259629D01*
X132907Y259496D01*
X132973Y259355D01*
X133040Y259196D01*
X133090Y259038D01*
X132257Y258838D01*
Y258846D01*
X132248Y258871D01*
X132232Y258905D01*
X132215Y258955D01*
X132190Y259013D01*
X132165Y259080D01*
X132090Y259230D01*
X131999Y259396D01*
X131890Y259563D01*
X131757Y259721D01*
X131682Y259788D01*
X131607Y259854D01*
X131599D01*
X131590Y259871D01*
X131565Y259888D01*
X131532Y259904D01*
X131490Y259929D01*
X131440Y259954D01*
X131315Y260021D01*
X131157Y260079D01*
X130974Y260129D01*
X130765Y260163D01*
X130532Y260179D01*
X130457D01*
X130407Y260171D01*
X130349D01*
X130274Y260163D01*
X130191Y260146D01*
X130099Y260138D01*
X129907Y260096D01*
X129699Y260029D01*
X129491Y259938D01*
X129391Y259888D01*
X129291Y259821D01*
X129283D01*
X129266Y259804D01*
X129241Y259788D01*
X129208Y259755D01*
X129124Y259680D01*
X129024Y259571D01*
X128908Y259438D01*
X128791Y259271D01*
X128683Y259088D01*
X128599Y258871D01*
Y258863D01*
X128591Y258846D01*
X128583Y258813D01*
X128566Y258771D01*
X128549Y258713D01*
X128533Y258646D01*
X128516Y258571D01*
X128499Y258496D01*
X128466Y258305D01*
X128433Y258097D01*
X128408Y257872D01*
X128399Y257638D01*
Y257630D01*
Y257605D01*
Y257563D01*
Y257505D01*
X128408Y257430D01*
X128416Y257347D01*
Y257255D01*
X128433Y257155D01*
X128458Y256930D01*
X128499Y256697D01*
X128558Y256447D01*
X128633Y256214D01*
Y256205D01*
X128641Y256189D01*
X128658Y256155D01*
X128683Y256114D01*
X128708Y256064D01*
X128733Y256005D01*
X128816Y255872D01*
X128924Y255722D01*
X129049Y255572D01*
X129199Y255431D01*
X129374Y255306D01*
X129383D01*
X129399Y255289D01*
X129424Y255281D01*
X129466Y255256D01*
X129508Y255239D01*
X129566Y255214D01*
X129699Y255156D01*
X129866Y255097D01*
X130049Y255056D01*
X130249Y255022D01*
X130466Y255006D01*
X130532D01*
X130582Y255014D01*
X130649Y255022D01*
X130716Y255031D01*
X130799Y255039D01*
X130882Y255056D01*
X131074Y255106D01*
X131274Y255181D01*
X131382Y255222D01*
X131482Y255281D01*
X131582Y255339D01*
X131674Y255414D01*
X131682Y255422D01*
X131699Y255431D01*
X131724Y255456D01*
X131757Y255489D01*
X131790Y255531D01*
X131840Y255589D01*
X131890Y255647D01*
X131940Y255722D01*
X131999Y255797D01*
X132057Y255889D01*
X132107Y255989D01*
X132165Y256097D01*
X132215Y256222D01*
X132265Y256347D01*
X132307Y256480D01*
X132348Y256630D01*
X133198Y256414D01*
Y256405D01*
X133182Y256372D01*
X133165Y256314D01*
X133148Y256239D01*
X133115Y256155D01*
X133073Y256055D01*
X133032Y255947D01*
X132973Y255822D01*
X132915Y255697D01*
X132840Y255564D01*
X132765Y255439D01*
X132673Y255306D01*
X132582Y255172D01*
X132473Y255047D01*
X132357Y254931D01*
X132232Y254822D01*
X132224Y254814D01*
X132198Y254797D01*
X132165Y254772D01*
X132107Y254739D01*
X132040Y254697D01*
X131957Y254647D01*
X131865Y254606D01*
X131765Y254556D01*
X131640Y254498D01*
X131515Y254456D01*
X131374Y254406D01*
X131224Y254364D01*
X131066Y254331D01*
X130899Y254306D01*
X130724Y254289D01*
X130541Y254281D01*
X130441D01*
X130366Y254289D01*
X130282Y254298D01*
X130174Y254306D01*
X130066Y254314D01*
X129941Y254331D01*
X129674Y254381D01*
X129391Y254456D01*
X129249Y254506D01*
X129108Y254564D01*
X128974Y254622D01*
X128849Y254697D01*
X128841Y254706D01*
X128824Y254714D01*
X128791Y254739D01*
X128741Y254781D01*
X128691Y254822D01*
X128624Y254872D01*
X128558Y254939D01*
X128483Y255014D01*
X128399Y255089D01*
X128324Y255181D01*
X128241Y255281D01*
X128158Y255397D01*
X128075Y255514D01*
X128000Y255639D01*
X127925Y255781D01*
X127858Y255922D01*
Y255931D01*
X127841Y255955D01*
X127825Y256005D01*
X127808Y256064D01*
X127783Y256139D01*
X127750Y256222D01*
X127725Y256322D01*
X127691Y256439D01*
X127658Y256564D01*
X127633Y256697D01*
X127600Y256839D01*
X127575Y256980D01*
X127541Y257305D01*
X127525Y257638D01*
Y257647D01*
Y257680D01*
Y257738D01*
X127533Y257805D01*
Y257897D01*
X127541Y257997D01*
X127558Y258105D01*
X127575Y258230D01*
X127591Y258363D01*
X127616Y258505D01*
X127683Y258796D01*
X127775Y259088D01*
X127833Y259238D01*
X127900Y259380D01*
X127908Y259388D01*
X127916Y259413D01*
X127941Y259454D01*
X127975Y259505D01*
X128008Y259563D01*
X128058Y259638D01*
X128116Y259713D01*
X128183Y259804D01*
X128333Y259988D01*
X128525Y260171D01*
X128741Y260354D01*
X128866Y260438D01*
X128991Y260513D01*
X128999Y260521D01*
X129024Y260529D01*
X129066Y260546D01*
X129116Y260571D01*
X129183Y260604D01*
X129258Y260638D01*
X129349Y260671D01*
X129449Y260713D01*
X129566Y260746D01*
X129683Y260779D01*
X129949Y260846D01*
X130241Y260888D01*
X130391Y260904D01*
X130641D01*
X130707Y260896D01*
D02*
G37*
G36*
X141854Y254389D02*
X141071D01*
Y259396D01*
X141055Y259388D01*
X141021Y259355D01*
X140955Y259296D01*
X140871Y259230D01*
X140763Y259146D01*
X140630Y259055D01*
X140488Y258955D01*
X140321Y258855D01*
X140313D01*
X140305Y258846D01*
X140280Y258830D01*
X140246Y258813D01*
X140155Y258763D01*
X140047Y258705D01*
X139922Y258638D01*
X139780Y258571D01*
X139638Y258505D01*
X139497Y258447D01*
Y259213D01*
X139505D01*
X139530Y259230D01*
X139563Y259246D01*
X139605Y259271D01*
X139663Y259296D01*
X139730Y259338D01*
X139888Y259421D01*
X140063Y259529D01*
X140263Y259663D01*
X140455Y259804D01*
X140646Y259963D01*
X140655Y259971D01*
X140671Y259979D01*
X140696Y260004D01*
X140730Y260038D01*
X140813Y260121D01*
X140921Y260238D01*
X141030Y260363D01*
X141146Y260513D01*
X141255Y260663D01*
X141346Y260821D01*
X141854D01*
Y254389D01*
D02*
G37*
G36*
X136881D02*
X136097D01*
Y259396D01*
X136081Y259388D01*
X136047Y259355D01*
X135981Y259296D01*
X135898Y259230D01*
X135789Y259146D01*
X135656Y259055D01*
X135514Y258955D01*
X135348Y258855D01*
X135339D01*
X135331Y258846D01*
X135306Y258830D01*
X135273Y258813D01*
X135181Y258763D01*
X135073Y258705D01*
X134948Y258638D01*
X134806Y258571D01*
X134665Y258505D01*
X134523Y258447D01*
Y259213D01*
X134531D01*
X134556Y259230D01*
X134590Y259246D01*
X134631Y259271D01*
X134690Y259296D01*
X134756Y259338D01*
X134915Y259421D01*
X135089Y259529D01*
X135289Y259663D01*
X135481Y259804D01*
X135673Y259963D01*
X135681Y259971D01*
X135698Y259979D01*
X135723Y260004D01*
X135756Y260038D01*
X135839Y260121D01*
X135948Y260238D01*
X136056Y260363D01*
X136173Y260513D01*
X136281Y260663D01*
X136372Y260821D01*
X136881D01*
Y254389D01*
D02*
G37*
%LPC*%
G36*
X152828Y282075D02*
X152778D01*
X152745Y282067D01*
X152653Y282050D01*
X152537Y282025D01*
X152395Y281975D01*
X152253Y281908D01*
X152112Y281808D01*
X152037Y281742D01*
X151970Y281675D01*
X151962Y281667D01*
X151953Y281658D01*
X151937Y281633D01*
X151912Y281600D01*
X151887Y281558D01*
X151854Y281509D01*
X151820Y281450D01*
X151787Y281392D01*
X151729Y281234D01*
X151670Y281042D01*
X151629Y280825D01*
X151612Y280709D01*
Y280584D01*
Y280576D01*
Y280550D01*
Y280517D01*
X151620Y280476D01*
Y280417D01*
X151629Y280350D01*
X151654Y280201D01*
X151695Y280034D01*
X151762Y279859D01*
X151854Y279692D01*
X151903Y279609D01*
X151970Y279534D01*
Y279526D01*
X151987Y279517D01*
X152037Y279476D01*
X152112Y279409D01*
X152212Y279342D01*
X152345Y279276D01*
X152495Y279209D01*
X152670Y279167D01*
X152762Y279151D01*
X152912D01*
X152953Y279159D01*
X152995D01*
X153053Y279167D01*
X153170Y279201D01*
X153312Y279242D01*
X153470Y279309D01*
X153620Y279409D01*
X153695Y279467D01*
X153761Y279534D01*
Y279542D01*
X153778Y279551D01*
X153795Y279576D01*
X153820Y279601D01*
X153878Y279684D01*
X153945Y279801D01*
X154011Y279951D01*
X154070Y280117D01*
X154111Y280317D01*
X154120Y280425D01*
X154128Y280542D01*
Y280550D01*
Y280559D01*
Y280609D01*
X154120Y280692D01*
X154103Y280792D01*
X154086Y280909D01*
X154061Y281042D01*
X154020Y281184D01*
X153961Y281325D01*
X153953Y281342D01*
X153928Y281384D01*
X153886Y281450D01*
X153836Y281534D01*
X153770Y281625D01*
X153686Y281717D01*
X153586Y281800D01*
X153478Y281884D01*
X153462Y281892D01*
X153428Y281917D01*
X153362Y281942D01*
X153278Y281975D01*
X153187Y282017D01*
X153070Y282042D01*
X152953Y282067D01*
X152828Y282075D01*
D02*
G37*
G36*
X149244Y134744D02*
X147228D01*
Y131853D01*
X149244Y134744D01*
D02*
G37*
G36*
X80658Y87665D02*
X80650D01*
X80617D01*
X80558D01*
X80492Y87657D01*
X80408D01*
X80317Y87649D01*
X80208Y87640D01*
X80092Y87624D01*
X79842Y87582D01*
X79584Y87524D01*
X79342Y87440D01*
X79225Y87390D01*
X79117Y87332D01*
X79109D01*
X79092Y87315D01*
X79067Y87299D01*
X79025Y87274D01*
X78934Y87199D01*
X78825Y87107D01*
X78700Y86990D01*
X78584Y86857D01*
X78475Y86699D01*
X78434Y86615D01*
X78392Y86532D01*
X78384Y86516D01*
X78376Y86499D01*
X78367Y86466D01*
X78359Y86432D01*
X78351Y86382D01*
X78334Y86332D01*
X78326Y86266D01*
X78309Y86199D01*
X78300Y86116D01*
X78292Y86024D01*
X78275Y85924D01*
X78267Y85816D01*
Y85699D01*
X78259Y85574D01*
Y84091D01*
X83149D01*
Y85616D01*
X83141Y85674D01*
X83133Y85816D01*
X83124Y85974D01*
X83099Y86141D01*
X83074Y86307D01*
X83033Y86449D01*
Y86457D01*
X83024Y86466D01*
X83008Y86507D01*
X82983Y86574D01*
X82949Y86657D01*
X82899Y86749D01*
X82849Y86840D01*
X82783Y86940D01*
X82708Y87024D01*
X82691Y87040D01*
X82649Y87074D01*
X82583Y87124D01*
X82491Y87199D01*
X82374Y87274D01*
X82233Y87349D01*
X82075Y87424D01*
X81891Y87490D01*
X81883D01*
X81866Y87499D01*
X81841Y87507D01*
X81800Y87515D01*
X81750Y87532D01*
X81691Y87549D01*
X81625Y87565D01*
X81550Y87582D01*
X81458Y87590D01*
X81366Y87607D01*
X81158Y87640D01*
X80917Y87657D01*
X80658Y87665D01*
D02*
G37*
G36*
X101223Y87445D02*
X101215D01*
X101182D01*
X101123D01*
X101057Y87437D01*
X100973D01*
X100882Y87429D01*
X100773Y87420D01*
X100657Y87403D01*
X100407Y87362D01*
X100148Y87304D01*
X99907Y87220D01*
X99790Y87170D01*
X99682Y87112D01*
X99674D01*
X99657Y87095D01*
X99632Y87079D01*
X99590Y87054D01*
X99499Y86979D01*
X99390Y86887D01*
X99265Y86770D01*
X99149Y86637D01*
X99040Y86479D01*
X98999Y86396D01*
X98957Y86312D01*
X98949Y86295D01*
X98940Y86279D01*
X98932Y86245D01*
X98924Y86212D01*
X98916Y86162D01*
X98899Y86112D01*
X98890Y86046D01*
X98874Y85979D01*
X98865Y85896D01*
X98857Y85804D01*
X98841Y85704D01*
X98832Y85596D01*
Y85479D01*
X98824Y85354D01*
Y83871D01*
X103714D01*
Y85396D01*
X103706Y85454D01*
X103698Y85596D01*
X103689Y85754D01*
X103664Y85921D01*
X103639Y86087D01*
X103598Y86229D01*
Y86237D01*
X103589Y86245D01*
X103573Y86287D01*
X103548Y86354D01*
X103514Y86437D01*
X103464Y86529D01*
X103414Y86620D01*
X103348Y86720D01*
X103273Y86804D01*
X103256Y86820D01*
X103214Y86854D01*
X103148Y86904D01*
X103056Y86979D01*
X102940Y87054D01*
X102798Y87129D01*
X102640Y87204D01*
X102456Y87270D01*
X102448D01*
X102431Y87279D01*
X102406Y87287D01*
X102365Y87295D01*
X102315Y87312D01*
X102256Y87329D01*
X102190Y87345D01*
X102115Y87362D01*
X102023Y87370D01*
X101931Y87387D01*
X101723Y87420D01*
X101482Y87437D01*
X101223Y87445D01*
D02*
G37*
G36*
X180589Y263921D02*
X180539D01*
X180497Y263913D01*
X180397Y263896D01*
X180281Y263863D01*
X180139Y263804D01*
X179998Y263721D01*
X179923Y263671D01*
X179856Y263613D01*
X179789Y263538D01*
X179723Y263454D01*
X179714Y263446D01*
X179706Y263430D01*
X179689Y263388D01*
X179664Y263338D01*
X179631Y263271D01*
X179598Y263188D01*
X179564Y263088D01*
X179523Y262963D01*
X179489Y262830D01*
X179448Y262671D01*
X179414Y262496D01*
X179389Y262297D01*
X179356Y262080D01*
X179339Y261838D01*
X179331Y261580D01*
X179323Y261297D01*
Y261288D01*
Y261280D01*
Y261230D01*
Y261147D01*
X179331Y261038D01*
Y260914D01*
X179339Y260772D01*
X179356Y260614D01*
X179373Y260439D01*
X179414Y260089D01*
X179439Y259914D01*
X179481Y259747D01*
X179523Y259580D01*
X179573Y259439D01*
X179623Y259306D01*
X179689Y259197D01*
X179698Y259189D01*
X179706Y259172D01*
X179731Y259147D01*
X179756Y259114D01*
X179831Y259031D01*
X179939Y258939D01*
X180072Y258847D01*
X180231Y258764D01*
X180314Y258731D01*
X180406Y258706D01*
X180497Y258689D01*
X180597Y258681D01*
X180647D01*
X180689Y258689D01*
X180731Y258697D01*
X180789Y258706D01*
X180914Y258747D01*
X181056Y258806D01*
X181131Y258847D01*
X181206Y258897D01*
X181289Y258956D01*
X181364Y259031D01*
X181439Y259106D01*
X181506Y259197D01*
X181514Y259206D01*
X181522Y259222D01*
X181539Y259256D01*
X181564Y259306D01*
X181589Y259364D01*
X181622Y259447D01*
X181656Y259539D01*
X181697Y259655D01*
X181730Y259789D01*
X181764Y259939D01*
X181797Y260114D01*
X181822Y260305D01*
X181847Y260522D01*
X181864Y260755D01*
X181880Y261013D01*
Y261297D01*
Y261305D01*
Y261313D01*
Y261363D01*
Y261447D01*
X181872Y261555D01*
Y261680D01*
X181864Y261822D01*
X181847Y261988D01*
X181830Y262155D01*
X181789Y262505D01*
X181755Y262680D01*
X181722Y262855D01*
X181681Y263013D01*
X181630Y263155D01*
X181572Y263288D01*
X181506Y263396D01*
Y263405D01*
X181489Y263421D01*
X181472Y263446D01*
X181439Y263479D01*
X181364Y263563D01*
X181256Y263663D01*
X181122Y263754D01*
X180964Y263838D01*
X180881Y263871D01*
X180789Y263896D01*
X180689Y263913D01*
X180589Y263921D01*
D02*
G37*
G36*
X332349Y155169D02*
X332340D01*
X332324D01*
X332290D01*
X332249Y155160D01*
X332190D01*
X332132Y155152D01*
X331991Y155127D01*
X331832Y155077D01*
X331666Y155019D01*
X331499Y154927D01*
X331424Y154877D01*
X331349Y154810D01*
Y154802D01*
X331332Y154794D01*
X331291Y154744D01*
X331232Y154669D01*
X331166Y154560D01*
X331091Y154427D01*
X331032Y154269D01*
X330991Y154094D01*
X330982Y153994D01*
X330974Y153894D01*
Y153844D01*
X330982Y153802D01*
Y153761D01*
X330991Y153702D01*
X331024Y153577D01*
X331066Y153436D01*
X331132Y153286D01*
X331224Y153144D01*
X331282Y153069D01*
X331349Y153003D01*
X331357Y152994D01*
X331366Y152986D01*
X331391Y152969D01*
X331424Y152944D01*
X331457Y152919D01*
X331507Y152886D01*
X331624Y152819D01*
X331774Y152761D01*
X331957Y152703D01*
X332174Y152661D01*
X332290Y152644D01*
X332415D01*
X332424D01*
X332449D01*
X332482D01*
X332524Y152653D01*
X332582D01*
X332649Y152661D01*
X332807Y152686D01*
X332974Y152728D01*
X333157Y152794D01*
X333332Y152886D01*
X333415Y152936D01*
X333490Y153003D01*
X333498D01*
X333507Y153019D01*
X333557Y153069D01*
X333615Y153144D01*
X333690Y153244D01*
X333765Y153369D01*
X333832Y153519D01*
X333873Y153694D01*
X333882Y153786D01*
X333890Y153877D01*
Y153927D01*
X333882Y153969D01*
X333873Y154011D01*
X333865Y154061D01*
X333840Y154186D01*
X333782Y154327D01*
X333707Y154486D01*
X333657Y154560D01*
X333598Y154635D01*
X333532Y154710D01*
X333457Y154785D01*
X333448D01*
X333440Y154802D01*
X333415Y154819D01*
X333382Y154844D01*
X333340Y154877D01*
X333290Y154910D01*
X333223Y154944D01*
X333157Y154977D01*
X332999Y155044D01*
X332807Y155110D01*
X332590Y155152D01*
X332474Y155160D01*
X332349Y155169D01*
D02*
G37*
G36*
X-39367Y157649D02*
X-39375D01*
X-39383D01*
X-39409D01*
X-39442Y157641D01*
X-39517Y157632D01*
X-39617Y157616D01*
X-39733Y157574D01*
X-39858Y157524D01*
X-39975Y157449D01*
X-40092Y157349D01*
X-40108Y157332D01*
X-40142Y157299D01*
X-40183Y157233D01*
X-40242Y157141D01*
X-40300Y157033D01*
X-40342Y156908D01*
X-40375Y156766D01*
X-40392Y156608D01*
Y156566D01*
X-40383Y156533D01*
X-40375Y156449D01*
X-40358Y156341D01*
X-40317Y156224D01*
X-40267Y156100D01*
X-40200Y155975D01*
X-40100Y155858D01*
X-40083Y155850D01*
X-40050Y155816D01*
X-39983Y155766D01*
X-39908Y155716D01*
X-39800Y155658D01*
X-39683Y155616D01*
X-39550Y155583D01*
X-39409Y155566D01*
X-39400D01*
X-39392D01*
X-39367D01*
X-39334Y155575D01*
X-39250Y155583D01*
X-39150Y155600D01*
X-39034Y155633D01*
X-38909Y155683D01*
X-38784Y155758D01*
X-38667Y155850D01*
X-38659Y155866D01*
X-38625Y155899D01*
X-38575Y155966D01*
X-38525Y156058D01*
X-38475Y156166D01*
X-38425Y156299D01*
X-38392Y156449D01*
X-38384Y156616D01*
Y156658D01*
X-38392Y156691D01*
X-38400Y156774D01*
X-38417Y156874D01*
X-38450Y156991D01*
X-38500Y157116D01*
X-38575Y157241D01*
X-38667Y157358D01*
X-38684Y157374D01*
X-38717Y157408D01*
X-38775Y157449D01*
X-38859Y157507D01*
X-38959Y157557D01*
X-39084Y157607D01*
X-39217Y157641D01*
X-39367Y157649D01*
D02*
G37*
G36*
X-36326Y157907D02*
X-36426D01*
X-36434D01*
X-36451D01*
X-36484D01*
X-36526Y157899D01*
X-36567D01*
X-36626Y157891D01*
X-36759Y157857D01*
X-36909Y157816D01*
X-37067Y157749D01*
X-37226Y157657D01*
X-37301Y157599D01*
X-37367Y157533D01*
X-37376D01*
X-37384Y157516D01*
X-37426Y157466D01*
X-37484Y157382D01*
X-37559Y157274D01*
X-37626Y157133D01*
X-37684Y156974D01*
X-37726Y156791D01*
X-37742Y156691D01*
Y156533D01*
X-37734Y156491D01*
Y156441D01*
X-37726Y156391D01*
X-37701Y156258D01*
X-37651Y156116D01*
X-37584Y155958D01*
X-37501Y155808D01*
X-37442Y155733D01*
X-37376Y155666D01*
X-37359Y155650D01*
X-37309Y155608D01*
X-37234Y155550D01*
X-37126Y155491D01*
X-36992Y155425D01*
X-36834Y155366D01*
X-36659Y155325D01*
X-36559Y155316D01*
X-36459Y155308D01*
X-36443D01*
X-36401D01*
X-36334Y155316D01*
X-36251Y155325D01*
X-36151Y155341D01*
X-36034Y155375D01*
X-35918Y155408D01*
X-35801Y155458D01*
X-35784Y155466D01*
X-35751Y155491D01*
X-35693Y155525D01*
X-35626Y155575D01*
X-35551Y155641D01*
X-35468Y155725D01*
X-35393Y155825D01*
X-35318Y155933D01*
X-35310Y155949D01*
X-35293Y155991D01*
X-35268Y156049D01*
X-35234Y156133D01*
X-35201Y156241D01*
X-35176Y156349D01*
X-35160Y156474D01*
X-35151Y156608D01*
Y156666D01*
X-35160Y156699D01*
Y156749D01*
X-35168Y156808D01*
X-35193Y156941D01*
X-35243Y157083D01*
X-35301Y157241D01*
X-35393Y157399D01*
X-35443Y157474D01*
X-35510Y157541D01*
X-35518Y157549D01*
X-35526Y157557D01*
X-35576Y157599D01*
X-35651Y157657D01*
X-35759Y157724D01*
X-35893Y157791D01*
X-36051Y157849D01*
X-36226Y157891D01*
X-36326Y157907D01*
D02*
G37*
%LPD*%
D11*
X150393Y277225D02*
X172393D01*
X150393D02*
Y288225D01*
X172393D01*
Y277225D02*
Y288225D01*
X207284Y34461D02*
Y59543D01*
X164702D02*
X207284D01*
X164702Y34461D02*
Y59543D01*
Y34461D02*
X207284D01*
X153875Y61793D02*
X169875D01*
Y89793D01*
X153875D02*
X169875D01*
X153875Y61793D02*
Y89793D01*
X212169Y90241D02*
X219669D01*
X212169Y76241D02*
Y90241D01*
Y76241D02*
X219669D01*
Y90241D01*
X211522Y48543D02*
X222522D01*
Y70543D01*
X211522D02*
X222522D01*
X211522Y48543D02*
Y70543D01*
X163143Y133360D02*
Y140860D01*
X149143D02*
X163143D01*
X149143Y133360D02*
Y140860D01*
Y133360D02*
X163143D01*
X76525Y70741D02*
X87525D01*
Y95741D01*
X76525D02*
X87525D01*
X76525Y70741D02*
Y95741D01*
X97090Y70521D02*
X108090D01*
Y95521D01*
X97090D02*
X108090D01*
X97090Y70521D02*
Y95521D01*
X160143Y254281D02*
Y261781D01*
Y254281D02*
X174143D01*
Y261781D01*
X160143D02*
X174143D01*
X322500Y173375D02*
X333500D01*
X322500Y151375D02*
Y173375D01*
Y151375D02*
X333500D01*
Y173375D01*
X-40002Y137110D02*
X-29002D01*
Y159110D01*
X-40002D02*
X-29002D01*
X-40002Y137110D02*
Y159110D01*
X157597Y15500D02*
Y26500D01*
X135597D02*
X157597D01*
X135597Y15500D02*
Y26500D01*
Y15500D02*
X157597D01*
X81122Y252031D02*
X136122D01*
X81122Y173969D02*
Y252031D01*
Y173969D02*
X136122D01*
Y252031D01*
X120525Y250531D02*
Y258031D01*
Y250531D02*
X134525D01*
Y258031D01*
X120525D02*
X134525D01*
M02*
