G04*
G04 #@! TF.GenerationSoftware,Altium Limited,Altium Designer,24.0.1 (36)*
G04*
G04 Layer_Color=128*
%FSLAX44Y44*%
%MOMM*%
G71*
G04*
G04 #@! TF.SameCoordinates,BFD44B55-2052-4A58-B096-8A348341E0BB*
G04*
G04*
G04 #@! TF.FilePolarity,Positive*
G04*
G01*
G75*
%ADD67C,0.1270*%
D67*
X345000Y110090D02*
X351000D01*
X348000Y107090D02*
Y113090D01*
X345000Y122790D02*
X351000D01*
X348000Y119790D02*
Y125790D01*
X345000Y135490D02*
X351000D01*
X348000Y132490D02*
Y138490D01*
X345000Y148190D02*
X351000D01*
X348000Y145190D02*
Y151190D01*
X345000Y160890D02*
X351000D01*
X348000Y157890D02*
Y163890D01*
X345000Y173590D02*
X351000D01*
X348000Y170590D02*
Y176590D01*
X345000Y186290D02*
X351000D01*
X348000Y183290D02*
Y189290D01*
X345000Y198990D02*
X351000D01*
X348000Y195990D02*
Y201990D01*
X-57000Y198910D02*
X-51000D01*
X-54000Y195910D02*
Y201910D01*
X-57000Y186210D02*
X-51000D01*
X-54000Y183210D02*
Y189210D01*
X-57000Y173510D02*
X-51000D01*
X-54000Y170510D02*
Y176510D01*
X-57000Y160810D02*
X-51000D01*
X-54000Y157810D02*
Y163810D01*
X-57000Y148110D02*
X-51000D01*
X-54000Y145110D02*
Y151110D01*
X-57000Y135410D02*
X-51000D01*
X-54000Y132410D02*
Y138410D01*
X-57000Y122710D02*
X-51000D01*
X-54000Y119710D02*
Y125710D01*
X-57000Y110010D02*
X-51000D01*
X-54000Y107010D02*
Y113010D01*
X99590Y5000D02*
X105590D01*
X102590Y2000D02*
Y8000D01*
X112290Y5000D02*
X118290D01*
X115290Y2000D02*
Y8000D01*
X124990Y5000D02*
X130990D01*
X127990Y2000D02*
Y8000D01*
X137690Y5000D02*
X143690D01*
X140690Y2000D02*
Y8000D01*
X150390Y5000D02*
X156390D01*
X153390Y2000D02*
Y8000D01*
X163090Y5000D02*
X169090D01*
X166090Y2000D02*
Y8000D01*
X175790Y5000D02*
X181790D01*
X178790Y2000D02*
Y8000D01*
X188490Y5000D02*
X194490D01*
X191490Y2000D02*
Y8000D01*
X188410Y303000D02*
X194410D01*
X191410Y300000D02*
Y306000D01*
X175710Y303000D02*
X181710D01*
X178710Y300000D02*
Y306000D01*
X163010Y303000D02*
X169010D01*
X166010Y300000D02*
Y306000D01*
X150310Y303000D02*
X156310D01*
X153310Y300000D02*
Y306000D01*
X137610Y303000D02*
X143610D01*
X140610Y300000D02*
Y306000D01*
X124910Y303000D02*
X130910D01*
X127910Y300000D02*
Y306000D01*
X112210Y303000D02*
X118210D01*
X115210Y300000D02*
Y306000D01*
X99510Y303000D02*
X105510D01*
X102510Y300000D02*
Y306000D01*
X32439Y104361D02*
X41439D01*
X36939Y99861D02*
Y108861D01*
X32439Y64361D02*
X41439D01*
X36939Y59861D02*
Y68861D01*
X32439Y84361D02*
X41439D01*
X36939Y79861D02*
Y88861D01*
X32439Y164361D02*
X41439D01*
X36939Y159861D02*
Y168861D01*
X32439Y124361D02*
X41439D01*
X36939Y119861D02*
Y128861D01*
X32439Y144361D02*
X41439D01*
X36939Y139861D02*
Y148861D01*
X32439Y224361D02*
X41439D01*
X36939Y219861D02*
Y228861D01*
X32439Y184361D02*
X41439D01*
X36939Y179861D02*
Y188861D01*
X32439Y204361D02*
X41439D01*
X36939Y199861D02*
Y208861D01*
X32439Y244361D02*
X41439D01*
X36939Y239861D02*
Y248861D01*
X252404Y104361D02*
X261404D01*
X256903Y99861D02*
Y108861D01*
X252404Y64361D02*
X261404D01*
X256903Y59861D02*
Y68861D01*
X252404Y84361D02*
X261404D01*
X256903Y79861D02*
Y88861D01*
X252404Y164361D02*
X261404D01*
X256903Y159861D02*
Y168861D01*
X252404Y124361D02*
X261404D01*
X256903Y119861D02*
Y128861D01*
X252404Y144361D02*
X261404D01*
X256903Y139861D02*
Y148861D01*
X252404Y224361D02*
X261404D01*
X256903Y219861D02*
Y228861D01*
X252404Y184361D02*
X261404D01*
X256903Y179861D02*
Y188861D01*
X252404Y204361D02*
X261404D01*
X256903Y199861D02*
Y208861D01*
X252404Y244361D02*
X261404D01*
X256903Y239861D02*
Y248861D01*
X56898Y218010D02*
X64010D01*
X60454Y214454D02*
Y221566D01*
X230385Y124000D02*
X237497D01*
X233941Y120444D02*
Y127556D01*
X225735Y247319D02*
X232847D01*
X229291Y243763D02*
Y250875D01*
X136003Y101629D02*
X143115D01*
X139559Y98074D02*
Y105185D01*
X205184Y21758D02*
X212296D01*
X208740Y18202D02*
Y25314D01*
X107402Y43685D02*
X114514D01*
X110958Y40129D02*
Y47241D01*
X65319Y270135D02*
X72431D01*
X68875Y266579D02*
Y273691D01*
X-19692Y194730D02*
X-12580D01*
X-16136Y191174D02*
Y198286D01*
X-8556Y142028D02*
X-1444D01*
X-5000Y138472D02*
Y145584D01*
X-8556Y114605D02*
X-1444D01*
X-5000Y111049D02*
Y118161D01*
X76025Y241254D02*
X79025D01*
X77525Y239754D02*
Y242754D01*
X221113Y182827D02*
X224114D01*
X222614Y181327D02*
Y184327D01*
X210825Y178044D02*
X213825D01*
X212325Y176544D02*
Y179544D01*
X159643Y115000D02*
X162643D01*
X161143Y113500D02*
Y116500D01*
X147095Y85293D02*
X150095D01*
X148595Y83793D02*
Y86793D01*
X154643Y260075D02*
X157643D01*
X156143Y258575D02*
Y261575D01*
X225695Y87611D02*
X228695D01*
X227195Y86111D02*
Y89111D01*
X161879Y20896D02*
X164879D01*
X163379Y19396D02*
Y22396D01*
X139025Y241254D02*
X142025D01*
X140525Y239754D02*
Y242754D01*
X98625Y145110D02*
X101625D01*
X100125Y143610D02*
Y146610D01*
X77775Y115702D02*
X80775D01*
X79275Y114202D02*
Y117202D01*
X123372Y170375D02*
X126372D01*
X124872Y168875D02*
Y171875D01*
X119243Y137642D02*
X122243D01*
X120743Y136142D02*
Y139142D01*
X131525Y124264D02*
X134525D01*
X133025Y122764D02*
Y125764D01*
X121175Y122790D02*
X124175D01*
X122675Y121290D02*
Y124290D01*
X110525Y136907D02*
X113525D01*
X112025Y135407D02*
Y138407D01*
X145097Y36500D02*
X148097D01*
X146597Y35000D02*
Y38000D01*
X145097Y44478D02*
X148097D01*
X146597Y42978D02*
Y45978D01*
X145097Y52793D02*
X148097D01*
X146597Y51293D02*
Y54293D01*
X145097Y60539D02*
X148097D01*
X146597Y59039D02*
Y62038D01*
X135375Y36500D02*
X138375D01*
X136875Y35000D02*
Y38000D01*
X135375Y44478D02*
X138375D01*
X136875Y42978D02*
Y45978D01*
X135675Y52793D02*
X138675D01*
X137175Y51293D02*
Y54293D01*
X135675Y60539D02*
X138675D01*
X137175Y59039D02*
Y62038D01*
X74975Y12620D02*
X77975D01*
X76475Y11120D02*
Y14120D01*
X226815Y53041D02*
X229815D01*
X228315Y51541D02*
Y54541D01*
X209419Y115500D02*
X212418D01*
X210919Y114000D02*
Y117000D01*
X76025Y159375D02*
X79025D01*
X77525Y157875D02*
Y160875D01*
X170893Y145584D02*
X173893D01*
X172393Y144084D02*
Y147084D01*
X148893Y147875D02*
X151893D01*
X150393Y146375D02*
Y149375D01*
X139375Y181750D02*
X142375D01*
X140875Y180250D02*
Y183250D01*
X176885Y282621D02*
X179885D01*
X178385Y281121D02*
Y284121D01*
X165643Y215244D02*
X168643D01*
X167143Y213744D02*
Y216744D01*
X125619Y214361D02*
X128619D01*
X127119Y212861D02*
Y215861D01*
X185375Y170375D02*
X188375D01*
X186875Y168875D02*
Y171875D01*
X166122Y170375D02*
X169122D01*
X167622Y168875D02*
Y171875D01*
X203810Y215644D02*
X206810D01*
X205310Y214144D02*
Y217144D01*
X184753Y213000D02*
X187754D01*
X186254Y211500D02*
Y214500D01*
X218419Y224361D02*
X221418D01*
X219918Y222861D02*
Y225861D01*
X-23500Y136360D02*
X-20500D01*
X-22000Y134860D02*
Y137860D01*
X55395Y193000D02*
X58396D01*
X56895Y191500D02*
Y194500D01*
X100692Y218000D02*
X103692D01*
X102192Y216500D02*
Y219500D01*
X116625Y203089D02*
X119625D01*
X118125Y201589D02*
Y204589D01*
X151393Y208000D02*
X154393D01*
X152893Y206500D02*
Y209500D01*
X111375Y287725D02*
X114375D01*
X112875Y286225D02*
Y289225D01*
X81775Y145110D02*
X84775D01*
X83275Y143610D02*
Y146610D01*
X146327Y190502D02*
X149327D01*
X147827Y189002D02*
Y192002D01*
M02*
