G04*
G04 #@! TF.GenerationSoftware,Altium Limited,Altium Designer,24.0.1 (36)*
G04*
G04 Layer_Color=8421504*
%FSLAX44Y44*%
%MOMM*%
G71*
G04*
G04 #@! TF.SameCoordinates,BFD44B55-2052-4A58-B096-8A348341E0BB*
G04*
G04*
G04 #@! TF.FilePolarity,Positive*
G04*
G01*
G75*
%ADD15O,0.5500X2.2000*%
%ADD16R,0.6500X0.7000*%
%ADD17R,0.3000X0.7000*%
%ADD18R,0.6000X0.5500*%
%ADD19R,1.4061X1.5082*%
%ADD20R,1.1000X1.0000*%
%ADD21R,1.3000X0.7000*%
%ADD22R,0.5000X0.4000*%
%ADD23R,0.7000X0.6500*%
%ADD24R,0.4000X0.5000*%
%ADD25R,1.0000X0.9000*%
%ADD26R,0.8000X0.8000*%
%ADD27R,0.9000X0.7000*%
G04:AMPARAMS|DCode=28|XSize=1.6554mm|YSize=0.3808mm|CornerRadius=0.1904mm|HoleSize=0mm|Usage=FLASHONLY|Rotation=270.000|XOffset=0mm|YOffset=0mm|HoleType=Round|Shape=RoundedRectangle|*
%AMROUNDEDRECTD28*
21,1,1.6554,0.0000,0,0,270.0*
21,1,1.2747,0.3808,0,0,270.0*
1,1,0.3808,0.0000,-0.6373*
1,1,0.3808,0.0000,0.6373*
1,1,0.3808,0.0000,0.6373*
1,1,0.3808,0.0000,-0.6373*
%
%ADD28ROUNDEDRECTD28*%
%ADD29R,0.3808X1.6554*%
%ADD30R,0.9500X0.9500*%
%ADD31R,2.1000X0.8500*%
D15*
X205303Y237000D02*
D03*
X192603D02*
D03*
X179904D02*
D03*
X167204D02*
D03*
X205303Y189000D02*
D03*
X192603D02*
D03*
X179904D02*
D03*
X167204D02*
D03*
D16*
X168143Y282725D02*
D03*
X154643D02*
D03*
X139847Y21000D02*
D03*
X153347D02*
D03*
D17*
X190173Y68001D02*
D03*
X195254D02*
D03*
X200333D02*
D03*
Y83241D02*
D03*
X195254D02*
D03*
X190173D02*
D03*
D18*
X79275Y124361D02*
D03*
X70775D02*
D03*
X79275Y136657D02*
D03*
X70775D02*
D03*
D19*
X176732Y47002D02*
D03*
X195254D02*
D03*
D20*
X196775Y101702D02*
D03*
Y115702D02*
D03*
D21*
X161875Y85293D02*
D03*
Y66293D02*
D03*
D22*
X215919Y79241D02*
D03*
Y87241D02*
D03*
D23*
X217022Y66293D02*
D03*
Y52793D02*
D03*
X328000Y155625D02*
D03*
Y169125D02*
D03*
X-34502Y154860D02*
D03*
Y141360D02*
D03*
D24*
X152143Y137110D02*
D03*
X160143D02*
D03*
X171143Y258031D02*
D03*
X163143D02*
D03*
X131525Y254281D02*
D03*
X123525D02*
D03*
D25*
X176134Y99000D02*
D03*
Y115000D02*
D03*
D26*
X82025Y90741D02*
D03*
Y75741D02*
D03*
X102590Y90521D02*
D03*
Y75521D02*
D03*
D27*
X76525Y36500D02*
D03*
Y22500D02*
D03*
X93125Y36500D02*
D03*
Y22500D02*
D03*
D28*
X131372Y184746D02*
D03*
X124872D02*
D03*
X118372D02*
D03*
X111872D02*
D03*
X105372D02*
D03*
X98872D02*
D03*
X92372D02*
D03*
X85872D02*
D03*
Y241254D02*
D03*
X92372D02*
D03*
X98872D02*
D03*
X105372D02*
D03*
X111872D02*
D03*
X118372D02*
D03*
X124872D02*
D03*
D29*
X131372D02*
D03*
D30*
X133025Y267125D02*
D03*
X118025D02*
D03*
X130175Y159110D02*
D03*
X115175D02*
D03*
D31*
X52439Y244361D02*
D03*
Y204361D02*
D03*
Y164361D02*
D03*
Y124361D02*
D03*
Y84361D02*
D03*
X21439Y224361D02*
D03*
Y184361D02*
D03*
Y104361D02*
D03*
Y64361D02*
D03*
Y144361D02*
D03*
X272404Y244361D02*
D03*
Y204361D02*
D03*
Y164361D02*
D03*
Y124361D02*
D03*
Y84361D02*
D03*
X241404Y224361D02*
D03*
Y184361D02*
D03*
Y104361D02*
D03*
Y64361D02*
D03*
Y144361D02*
D03*
M02*
