G04*
G04 #@! TF.GenerationSoftware,Altium Limited,Altium Designer,24.0.1 (36)*
G04*
G04 Layer_Physical_Order=1*
G04 Layer_Color=255*
%FSLAX44Y44*%
%MOMM*%
G71*
G04*
G04 #@! TF.SameCoordinates,BFD44B55-2052-4A58-B096-8A348341E0BB*
G04*
G04*
G04 #@! TF.FilePolarity,Positive*
G04*
G01*
G75*
%ADD11C,0.2000*%
%ADD13C,0.3000*%
%ADD15O,0.5500X2.2000*%
%ADD16R,0.6500X0.7000*%
%ADD17R,0.3000X0.7000*%
%ADD18R,0.6000X0.5500*%
%ADD19R,1.4061X1.5082*%
%ADD20R,1.1000X1.0000*%
%ADD21R,1.3000X0.7000*%
%ADD22R,0.5000X0.4000*%
%ADD23R,0.7000X0.6500*%
%ADD24R,0.4000X0.5000*%
%ADD25R,1.0000X0.9000*%
%ADD26R,0.8000X0.8000*%
%ADD27R,0.9000X0.7000*%
G04:AMPARAMS|DCode=28|XSize=1.6554mm|YSize=0.3808mm|CornerRadius=0.1904mm|HoleSize=0mm|Usage=FLASHONLY|Rotation=270.000|XOffset=0mm|YOffset=0mm|HoleType=Round|Shape=RoundedRectangle|*
%AMROUNDEDRECTD28*
21,1,1.6554,0.0000,0,0,270.0*
21,1,1.2747,0.3808,0,0,270.0*
1,1,0.3808,0.0000,-0.6373*
1,1,0.3808,0.0000,0.6373*
1,1,0.3808,0.0000,0.6373*
1,1,0.3808,0.0000,-0.6373*
%
%ADD28ROUNDEDRECTD28*%
%ADD29R,0.3808X1.6554*%
%ADD30R,0.9500X0.9500*%
%ADD31R,2.1000X0.8500*%
%ADD43C,0.4000*%
%ADD44C,1.0000*%
%ADD45C,1.5000*%
%ADD46C,1.2700*%
%ADD47C,0.6000*%
G36*
X243625Y263055D02*
X243818Y262889D01*
X243959Y262677D01*
X244415Y262372D01*
X244829Y262014D01*
X245071Y261934D01*
X245282Y261793D01*
X245819Y261686D01*
X246339Y261514D01*
X246593Y261532D01*
X246843Y261482D01*
X283360D01*
X289922Y254921D01*
Y230000D01*
X289922Y230000D01*
X290232Y228439D01*
X291116Y227116D01*
X291116Y227116D01*
X311116Y207116D01*
X312439Y206232D01*
X314000Y205922D01*
X344466D01*
X344807Y204652D01*
X344009Y204191D01*
X342799Y202981D01*
X341943Y201499D01*
X341500Y199846D01*
Y198134D01*
X341943Y196481D01*
X342799Y194999D01*
X344009Y193789D01*
X344729Y193373D01*
Y191907D01*
X344009Y191491D01*
X342799Y190281D01*
X341966Y188839D01*
X332498D01*
X331523Y188645D01*
X330696Y188092D01*
X326198Y183594D01*
X325645Y182767D01*
X325451Y181792D01*
Y173625D01*
X323250D01*
Y170125D01*
X328000D01*
X332750D01*
Y173625D01*
X330549D01*
Y180736D01*
X333554Y183741D01*
X341966D01*
X342799Y182299D01*
X344009Y181089D01*
X344729Y180673D01*
Y179207D01*
X344009Y178791D01*
X342799Y177581D01*
X341943Y176099D01*
X341500Y174446D01*
Y172734D01*
X341943Y171081D01*
X342799Y169599D01*
X344009Y168389D01*
X344729Y167973D01*
Y166507D01*
X344009Y166091D01*
X342799Y164881D01*
X341943Y163399D01*
X341500Y161746D01*
Y160034D01*
X341943Y158381D01*
X342799Y156899D01*
X344009Y155689D01*
X344729Y155273D01*
Y153807D01*
X344009Y153391D01*
X342799Y152181D01*
X342555Y151759D01*
X337163D01*
X333000Y155922D01*
Y160375D01*
X323000D01*
Y150875D01*
X327953D01*
X333162Y145667D01*
X334319Y144893D01*
X335685Y144621D01*
X342555D01*
X342799Y144199D01*
X344009Y142989D01*
X344729Y142573D01*
Y141107D01*
X344009Y140691D01*
X342799Y139481D01*
X341966Y138039D01*
X324926D01*
X315549Y147416D01*
Y186000D01*
X315355Y186975D01*
X314802Y187802D01*
X308052Y194552D01*
X307225Y195105D01*
X306250Y195299D01*
X290306D01*
X289549Y196056D01*
Y211828D01*
X289355Y212804D01*
X288802Y213631D01*
X287631Y214802D01*
X286804Y215355D01*
X285828Y215549D01*
X263798D01*
X262867Y216572D01*
X262916Y217646D01*
X264105Y218835D01*
X265290Y220887D01*
X265903Y223176D01*
Y225546D01*
X265290Y227835D01*
X264105Y229887D01*
X262430Y231563D01*
X260377Y232748D01*
X258088Y233361D01*
X255719D01*
X253430Y232748D01*
X251377Y231563D01*
X249926Y230111D01*
X229403D01*
Y218611D01*
X249926D01*
X250891Y217646D01*
X250953Y216300D01*
X250814Y216018D01*
X248773Y213977D01*
X229371D01*
X227049Y216300D01*
Y219780D01*
X226854Y220756D01*
X226302Y221583D01*
X224418Y223466D01*
X224419Y223466D01*
Y225256D01*
X223733Y226910D01*
X222467Y228176D01*
X220814Y228861D01*
X219023D01*
X217369Y228176D01*
X216104Y226910D01*
X215418Y225256D01*
Y223466D01*
X216104Y221812D01*
X217369Y220546D01*
X219023Y219861D01*
X220814D01*
X220814Y219861D01*
X221951Y218724D01*
Y215244D01*
X222145Y214268D01*
X222697Y213442D01*
X223731Y212408D01*
X223205Y211138D01*
X208964D01*
X208437Y212408D01*
X209125Y213095D01*
X209810Y214749D01*
Y216539D01*
X209125Y218193D01*
X207859Y219459D01*
X207856Y219460D01*
Y225344D01*
X208368Y225686D01*
X209307Y227092D01*
X209637Y228750D01*
Y245250D01*
X209307Y246908D01*
X208368Y248314D01*
X206962Y249253D01*
X205303Y249583D01*
X203645Y249253D01*
X202239Y248314D01*
X201300Y246908D01*
X200970Y245250D01*
Y228750D01*
X201300Y227092D01*
X202239Y225686D01*
X202758Y225340D01*
Y219456D01*
X201495Y218193D01*
X200810Y216539D01*
Y214755D01*
X200793Y214738D01*
X199729Y214039D01*
X195152Y218616D01*
Y225342D01*
X195667Y225686D01*
X196607Y227092D01*
X196937Y228750D01*
Y245250D01*
X196607Y246908D01*
X195667Y248314D01*
X194262Y249253D01*
X192603Y249583D01*
X190945Y249253D01*
X189539Y248314D01*
X188600Y246908D01*
X188270Y245250D01*
Y228750D01*
X188600Y227092D01*
X189539Y225686D01*
X190054Y225342D01*
Y221188D01*
X184114D01*
X183139Y220994D01*
X182312Y220441D01*
X172851Y210980D01*
X172299Y210154D01*
X172104Y209178D01*
Y199851D01*
X170835Y199466D01*
X170268Y200314D01*
X168862Y201253D01*
X167204Y201583D01*
X165545Y201253D01*
X164139Y200314D01*
X163200Y198908D01*
X162870Y197250D01*
Y184299D01*
X152766D01*
X151790Y184105D01*
X150963Y183552D01*
X143182Y175771D01*
X142630Y174944D01*
X142436Y173969D01*
Y152779D01*
X137316Y147659D01*
X103940D01*
X103940Y147659D01*
X102674Y148925D01*
X101020Y149610D01*
X99230D01*
X97576Y148925D01*
X97439Y148788D01*
X96169Y149314D01*
Y155830D01*
X95975Y156805D01*
X95422Y157632D01*
X94921Y158134D01*
Y174863D01*
X95340Y175246D01*
X96418Y175919D01*
X97544Y175166D01*
X98872Y174902D01*
X100200Y175166D01*
X101326Y175919D01*
X101358Y175967D01*
X102886D01*
X102918Y175919D01*
X104044Y175166D01*
X105372Y174902D01*
X106700Y175166D01*
X107826Y175919D01*
X107858Y175967D01*
X109385D01*
X109418Y175919D01*
X110544Y175166D01*
X111294Y175017D01*
X112626Y173685D01*
Y165360D01*
X108925D01*
Y152860D01*
X121425D01*
Y165360D01*
X117724D01*
Y173736D01*
X118372Y174902D01*
X119700Y175166D01*
X120826Y175919D01*
X121825Y175295D01*
X121875Y175184D01*
X121901Y173768D01*
X121057Y172924D01*
X120372Y171270D01*
Y169480D01*
X121057Y167826D01*
X122323Y166560D01*
X123040Y166263D01*
X123925Y165360D01*
Y152860D01*
X136425D01*
Y165360D01*
X135713D01*
X134907Y166342D01*
X134940Y166508D01*
Y181178D01*
X136375D01*
Y180855D01*
X137060Y179201D01*
X138326Y177935D01*
X139980Y177250D01*
X141770D01*
X143424Y177935D01*
X144690Y179201D01*
X145375Y180855D01*
Y182645D01*
X144690Y184299D01*
X143424Y185565D01*
X141770Y186250D01*
X141422D01*
X140402Y187269D01*
X139244Y188043D01*
X137879Y188315D01*
X134842D01*
Y191119D01*
X134578Y192448D01*
X133826Y193573D01*
X132882Y194204D01*
X132916Y194958D01*
X133093Y195474D01*
X144776D01*
X145099Y194730D01*
X145165Y194204D01*
X144012Y193051D01*
X143327Y191397D01*
Y189607D01*
X144012Y187953D01*
X145278Y186688D01*
X146932Y186002D01*
X148722D01*
X150376Y186688D01*
X151642Y187953D01*
X152327Y189607D01*
Y191397D01*
X151642Y193051D01*
X151526Y193168D01*
X160556Y202198D01*
X161108Y203025D01*
X161302Y204000D01*
Y248746D01*
X161108Y249722D01*
X160556Y250549D01*
X155054Y256051D01*
X155583Y257318D01*
X156274Y257314D01*
X157360Y256229D01*
X158187Y255676D01*
X159162Y255482D01*
X159893D01*
Y254281D01*
X162143D01*
Y258031D01*
Y261781D01*
X159893D01*
X159893Y261781D01*
X158719Y262012D01*
X158093Y262430D01*
X157118Y262624D01*
X156143D01*
X155167Y262430D01*
X154340Y261877D01*
X153788Y261050D01*
X153594Y260075D01*
X153788Y259100D01*
X152774Y258331D01*
X150424Y260681D01*
Y276598D01*
X151495Y277725D01*
X159393D01*
Y286406D01*
X163643D01*
Y283725D01*
X168143D01*
Y282725D01*
X169143D01*
Y277975D01*
X172643D01*
Y280176D01*
X175470D01*
X175993Y280072D01*
X178385D01*
X179360Y280266D01*
X180187Y280819D01*
X180740Y281646D01*
X180934Y282621D01*
X180740Y283596D01*
X180187Y284423D01*
X179360Y284976D01*
X178385Y285170D01*
Y286406D01*
X179750Y286678D01*
X180908Y287451D01*
X190083Y296626D01*
X190554Y296500D01*
X192266D01*
X193919Y296943D01*
X195401Y297799D01*
X196611Y299009D01*
X197467Y300491D01*
X197910Y302144D01*
Y303856D01*
X197467Y305509D01*
X196611Y306991D01*
X195951Y307652D01*
X196477Y308922D01*
X207910D01*
X243625Y263055D01*
D02*
G37*
G36*
X97969Y307652D02*
X97309Y306991D01*
X96453Y305509D01*
X96010Y303856D01*
Y302144D01*
X96453Y300491D01*
X97309Y299009D01*
X98519Y297799D01*
X100001Y296943D01*
X101654Y296500D01*
X103366D01*
X105019Y296943D01*
X106501Y297799D01*
X107711Y299009D01*
X108127Y299729D01*
X109593D01*
X110009Y299009D01*
X111219Y297799D01*
X112701Y296943D01*
X114210Y296539D01*
Y303000D01*
X116210D01*
Y296539D01*
X117719Y296943D01*
X119201Y297799D01*
X120411Y299009D01*
X120827Y299729D01*
X122293D01*
X122709Y299009D01*
X123919Y297799D01*
X125361Y296966D01*
Y289378D01*
X125555Y288402D01*
X126108Y287575D01*
X139038Y274645D01*
X138512Y273375D01*
X126775D01*
Y260875D01*
X127899D01*
Y258382D01*
X126775Y258031D01*
Y258031D01*
X124525D01*
Y254281D01*
X122525D01*
Y258031D01*
X120921D01*
Y260875D01*
X124275D01*
Y273375D01*
X112115D01*
X111458Y274514D01*
X114677Y277733D01*
X115230Y278560D01*
X115424Y279535D01*
Y283910D01*
X115424Y283910D01*
X116690Y285176D01*
X117375Y286830D01*
Y288620D01*
X116690Y290274D01*
X115424Y291540D01*
X113770Y292225D01*
X111980D01*
X110326Y291540D01*
X109060Y290274D01*
X108375Y288620D01*
Y286830D01*
X109060Y285176D01*
X110326Y283910D01*
X110326Y283910D01*
Y280591D01*
X106288Y276553D01*
X105735Y275726D01*
X105541Y274750D01*
Y255813D01*
X105735Y254837D01*
X106288Y254011D01*
X108550Y251749D01*
X108422Y250446D01*
X108394Y250430D01*
X107724Y250149D01*
X106700Y250833D01*
X105372Y251098D01*
X104044Y250833D01*
X102918Y250081D01*
X101840Y250754D01*
X101421Y251137D01*
Y255281D01*
X101227Y256256D01*
X100674Y257083D01*
X98580Y259177D01*
X97753Y259730D01*
X96778Y259924D01*
X77525D01*
X76550Y259730D01*
X75723Y259177D01*
X69427Y252882D01*
X68875Y252055D01*
X68681Y251080D01*
Y232724D01*
X56895D01*
X55920Y232530D01*
X55093Y231977D01*
X47210Y224094D01*
X45939Y224620D01*
Y225546D01*
X45326Y227835D01*
X44141Y229887D01*
X42466Y231563D01*
X40413Y232748D01*
X38124Y233361D01*
X35755D01*
X33466Y232748D01*
X31413Y231563D01*
X29962Y230111D01*
X9439D01*
Y218611D01*
X29197D01*
X29501Y218180D01*
X28842Y216910D01*
X25288D01*
X24313Y216716D01*
X23486Y216164D01*
X-16619Y176059D01*
X-47966D01*
X-48799Y177501D01*
X-50009Y178711D01*
X-50729Y179127D01*
Y180593D01*
X-50009Y181009D01*
X-48799Y182219D01*
X-47943Y183701D01*
X-47500Y185354D01*
Y187066D01*
X-47943Y188719D01*
X-48799Y190201D01*
X-50009Y191411D01*
X-50729Y191827D01*
Y193293D01*
X-50009Y193709D01*
X-48799Y194919D01*
X-47943Y196401D01*
X-47500Y198054D01*
Y199766D01*
X-47943Y201419D01*
X-48799Y202901D01*
X-50009Y204111D01*
X-50945Y204652D01*
X-50605Y205922D01*
X-20000Y205922D01*
X-20000Y205922D01*
X-18439Y206232D01*
X-17116Y207116D01*
X2884Y227116D01*
X2884Y227116D01*
X3768Y228439D01*
X4078Y230000D01*
Y254921D01*
X10640Y261482D01*
X47000D01*
X47250Y261532D01*
X47504Y261514D01*
X48024Y261686D01*
X48561Y261793D01*
X48772Y261934D01*
X49014Y262014D01*
X49428Y262372D01*
X49884Y262677D01*
X50025Y262889D01*
X50218Y263055D01*
X85933Y308922D01*
X97443D01*
X97969Y307652D01*
D02*
G37*
G36*
X139275Y260875D02*
X139864Y259849D01*
Y254268D01*
X140058Y253292D01*
X140610Y252465D01*
X143850Y249225D01*
X144677Y248673D01*
X145653Y248479D01*
X149184D01*
X150344Y247319D01*
Y211815D01*
X150344Y211815D01*
X149667Y211138D01*
X129081D01*
X128696Y212408D01*
X128922Y212559D01*
X129474Y213386D01*
X129668Y214361D01*
X129474Y215337D01*
X128922Y216164D01*
X128095Y216716D01*
X127421Y216850D01*
Y230433D01*
X127968Y231477D01*
X134776D01*
Y237685D01*
X137730D01*
X137976Y237439D01*
X139630Y236754D01*
X141420D01*
X143074Y237439D01*
X144340Y238705D01*
X145025Y240359D01*
Y242149D01*
X144340Y243803D01*
X143074Y245069D01*
X141420Y245754D01*
X139630D01*
X137976Y245069D01*
X137730Y244822D01*
X135037D01*
Y260875D01*
X139275D01*
D02*
G37*
G36*
X86872Y231864D02*
X87102Y231910D01*
X88146Y232607D01*
X89270Y232027D01*
X89823Y231466D01*
Y227820D01*
X90017Y226844D01*
X90569Y226017D01*
X97692Y218895D01*
X97692Y218895D01*
Y217105D01*
X98377Y215451D01*
X99642Y214185D01*
X101297Y213500D01*
X103087D01*
X104741Y214185D01*
X106006Y215451D01*
X106692Y217105D01*
Y218895D01*
X106006Y220549D01*
X104741Y221815D01*
X103087Y222500D01*
X101297D01*
X101296Y222500D01*
X94921Y228876D01*
Y231370D01*
X95340Y231754D01*
X96418Y232426D01*
X97544Y231674D01*
X98872Y231410D01*
X100200Y231674D01*
X101326Y232426D01*
X102404Y231754D01*
X102823Y231370D01*
Y226773D01*
X103017Y225797D01*
X103569Y224970D01*
X109323Y219217D01*
Y214056D01*
X106405Y211138D01*
X78080D01*
X77104Y210944D01*
X76277Y210391D01*
X65710Y199824D01*
X64440Y200350D01*
Y210111D01*
X43917D01*
X42952Y211077D01*
X42890Y212423D01*
X43029Y212704D01*
X57951Y227626D01*
X70058D01*
X71033Y227820D01*
X71860Y228373D01*
X73032Y229544D01*
X73584Y230371D01*
X73779Y231347D01*
Y240765D01*
X75048Y240890D01*
X75170Y240278D01*
X75723Y239452D01*
X76550Y238899D01*
X77525Y238705D01*
X82656D01*
Y234881D01*
X82901Y233650D01*
X83598Y232607D01*
X84641Y231910D01*
X84872Y231864D01*
Y241254D01*
X86872D01*
Y231864D01*
D02*
G37*
G36*
X122323Y232381D02*
Y215533D01*
X122517Y214557D01*
X123069Y213730D01*
X124241Y212559D01*
X124467Y212408D01*
X124082Y211138D01*
X115847D01*
X115057Y210981D01*
X114588Y211406D01*
X114217Y212010D01*
X114227Y212024D01*
X114421Y213000D01*
Y220273D01*
X114227Y221248D01*
X113674Y222075D01*
X107921Y227829D01*
Y231370D01*
X108340Y231754D01*
X109418Y232426D01*
X110544Y231674D01*
X111872Y231410D01*
X113200Y231674D01*
X114326Y232426D01*
X114358Y232475D01*
X115885D01*
X115918Y232426D01*
X117044Y231674D01*
X118372Y231410D01*
X119700Y231674D01*
X120826Y232426D01*
X121008Y232700D01*
X121155Y232735D01*
X122323Y232381D01*
D02*
G37*
G36*
X149078Y205451D02*
X150344Y204185D01*
X149534Y203335D01*
X146771Y200572D01*
X128349D01*
X127373Y200378D01*
X126546Y199826D01*
X122724Y196003D01*
X122171Y195176D01*
X122067Y194655D01*
X120797Y194780D01*
Y199397D01*
X121940Y200540D01*
X122625Y202194D01*
Y203984D01*
X122299Y204770D01*
X123148Y206040D01*
X148834D01*
X149078Y205451D01*
D02*
G37*
G36*
X30393Y210542D02*
X29738Y209887D01*
X28553Y207835D01*
X27940Y205546D01*
Y203176D01*
X28553Y200887D01*
X29738Y198835D01*
X31413Y197160D01*
X33466Y195975D01*
X35755Y195361D01*
X38124D01*
X40413Y195975D01*
X42466Y197160D01*
X43917Y198611D01*
X55365D01*
X55617Y197341D01*
X54346Y196815D01*
X53081Y195549D01*
X52396Y193895D01*
Y192105D01*
X53081Y190451D01*
X54346Y189185D01*
X56000Y188500D01*
X56515D01*
X57355Y187230D01*
X57354Y187228D01*
X56979Y186910D01*
X45574D01*
X45326Y187835D01*
X44141Y189887D01*
X42466Y191563D01*
X40413Y192748D01*
X38124Y193361D01*
X35755D01*
X33466Y192748D01*
X31413Y191563D01*
X29962Y190111D01*
X9439D01*
Y186910D01*
X8890D01*
X7915Y186716D01*
X7088Y186164D01*
X-23802Y155274D01*
X-24355Y154447D01*
X-24549Y153471D01*
Y140175D01*
X-24549Y140175D01*
X-25815Y138909D01*
X-26500Y137255D01*
Y135465D01*
X-25815Y133811D01*
X-24549Y132545D01*
X-22895Y131860D01*
X-21105D01*
X-19451Y132545D01*
X-18185Y133811D01*
X-17500Y135465D01*
Y137255D01*
X-18185Y138909D01*
X-19451Y140175D01*
X-19451Y140175D01*
Y152416D01*
X8266Y180133D01*
X9439Y179647D01*
Y178611D01*
X29962D01*
X31413Y177160D01*
X33466Y175975D01*
X35755Y175361D01*
X38124D01*
X40413Y175975D01*
X42466Y177160D01*
X44141Y178835D01*
X45326Y180887D01*
X45574Y181812D01*
X58802D01*
X59585Y180703D01*
X59391Y179728D01*
Y170111D01*
X43917D01*
X42466Y171563D01*
X40413Y172748D01*
X38124Y173361D01*
X35755D01*
X33466Y172748D01*
X31413Y171563D01*
X29738Y169887D01*
X28553Y167835D01*
X27940Y165546D01*
Y163176D01*
X28553Y160887D01*
X29738Y158835D01*
X31413Y157160D01*
X33466Y155975D01*
X35755Y155361D01*
X38124D01*
X40413Y155975D01*
X42466Y157160D01*
X43917Y158611D01*
X64440D01*
Y167365D01*
X64489Y167611D01*
Y178672D01*
X82178Y196361D01*
X115700D01*
Y194021D01*
X114562Y193483D01*
X114358Y193525D01*
X114326Y193573D01*
X113200Y194326D01*
X111872Y194590D01*
X110544Y194326D01*
X109418Y193573D01*
X109385Y193525D01*
X107858D01*
X107826Y193573D01*
X106700Y194326D01*
X105372Y194590D01*
X104044Y194326D01*
X102918Y193573D01*
X102886Y193525D01*
X101358D01*
X101326Y193573D01*
X100200Y194326D01*
X98872Y194590D01*
X97544Y194326D01*
X96418Y193573D01*
X96385Y193525D01*
X94858D01*
X94826Y193573D01*
X93700Y194326D01*
X92372Y194590D01*
X91044Y194326D01*
X89918Y193573D01*
X89886Y193525D01*
X88358D01*
X88326Y193573D01*
X87200Y194326D01*
X85872Y194590D01*
X84544Y194326D01*
X83418Y193573D01*
X82666Y192448D01*
X82401Y191119D01*
Y178373D01*
X82666Y177045D01*
X83323Y176061D01*
Y158628D01*
X83517Y157653D01*
X84069Y156826D01*
X86953Y153942D01*
Y149455D01*
X85683Y148983D01*
X84170Y149610D01*
X82380D01*
X80726Y148925D01*
X79460Y147659D01*
X78775Y146005D01*
Y144215D01*
X79140Y143333D01*
X78920Y143003D01*
X78726Y142028D01*
Y140907D01*
X66275D01*
Y132407D01*
X68226D01*
Y128611D01*
X66275D01*
Y120111D01*
X68226D01*
Y116733D01*
X60137Y108644D01*
X59585Y107817D01*
X59391Y106841D01*
Y90111D01*
X43917D01*
X42466Y91563D01*
X40413Y92748D01*
X38124Y93361D01*
X35755D01*
X33466Y92748D01*
X31413Y91563D01*
X29738Y89888D01*
X28553Y87835D01*
X27940Y85546D01*
Y83176D01*
X28553Y80887D01*
X29738Y78835D01*
X31413Y77160D01*
X33466Y75975D01*
X35755Y75361D01*
X38124D01*
X40413Y75975D01*
X42466Y77160D01*
X43917Y78611D01*
X64440D01*
Y87365D01*
X64489Y87611D01*
Y105786D01*
X72577Y113874D01*
X73130Y114701D01*
X73324Y115677D01*
Y120111D01*
X75524D01*
X76050Y118841D01*
X75460Y118251D01*
X74775Y116597D01*
Y114807D01*
X75460Y113153D01*
X76726Y111887D01*
X78380Y111202D01*
X80170D01*
X81824Y111887D01*
X83090Y113153D01*
X83775Y114807D01*
Y116597D01*
X83090Y118251D01*
X82500Y118841D01*
X83026Y120111D01*
X83775D01*
Y128611D01*
X73324D01*
Y132407D01*
X83775D01*
Y138161D01*
X83824Y138407D01*
Y140610D01*
X84170D01*
X85683Y141237D01*
X86953Y140765D01*
Y99275D01*
X83920Y96241D01*
X76525D01*
Y85241D01*
X87525D01*
Y92637D01*
X91305Y96416D01*
X92663Y96664D01*
X92922Y96584D01*
X97090Y92417D01*
Y85021D01*
X108090D01*
Y96021D01*
X100695D01*
X96169Y100547D01*
Y140906D01*
X97439Y141432D01*
X97576Y141295D01*
X99230Y140610D01*
X101020D01*
X102674Y141295D01*
X103940Y142561D01*
X103940Y142561D01*
X110598D01*
X110850Y141291D01*
X109476Y140722D01*
X108210Y139456D01*
X107525Y137802D01*
Y136012D01*
X108210Y134358D01*
X109476Y133092D01*
X109551Y133061D01*
X109670Y132465D01*
X110223Y131638D01*
X118175Y123685D01*
X118175Y123685D01*
Y121895D01*
X118860Y120241D01*
X120126Y118975D01*
X121780Y118290D01*
X123570D01*
X125224Y118975D01*
X126490Y120241D01*
X127175Y121895D01*
Y123685D01*
X126490Y125339D01*
X125224Y126605D01*
X123570Y127290D01*
X121780D01*
X121780Y127290D01*
X115795Y133275D01*
X115839Y133621D01*
X116210Y134353D01*
X117487Y134534D01*
X118194Y133827D01*
X119848Y133142D01*
X120543D01*
X128525Y125160D01*
X128525Y125160D01*
Y123369D01*
X129210Y121715D01*
X130476Y120449D01*
X132130Y119764D01*
X133920D01*
X135574Y120449D01*
X136840Y121715D01*
X137525Y123369D01*
Y125160D01*
X136840Y126813D01*
X135574Y128079D01*
X133920Y128764D01*
X132130D01*
X132130Y128764D01*
X124923Y135972D01*
X125243Y136747D01*
Y138537D01*
X124558Y140191D01*
X123458Y141291D01*
X123602Y142072D01*
X123847Y142561D01*
X138372D01*
X139347Y142755D01*
X140174Y143308D01*
X144623Y147756D01*
X145893Y147230D01*
Y146980D01*
X146578Y145326D01*
X147844Y144060D01*
X148574Y143757D01*
Y137110D01*
X148643Y136765D01*
Y133110D01*
X155643D01*
Y133312D01*
X156893Y133360D01*
X156913Y133360D01*
X159143D01*
Y137110D01*
X160143D01*
Y138110D01*
X164247D01*
X168407Y142269D01*
X171627D01*
X172603Y142464D01*
X173430Y143016D01*
X174195Y143781D01*
X174748Y144608D01*
X174942Y145584D01*
X174748Y146559D01*
X174195Y147386D01*
X173368Y147939D01*
X172393Y148133D01*
X171417Y147939D01*
X170590Y147386D01*
X170571Y147367D01*
X167351D01*
X166376Y147173D01*
X165549Y146621D01*
X159788Y140860D01*
X156981D01*
X156893Y140860D01*
X155711Y141074D01*
Y145584D01*
X155440Y146949D01*
X154893Y147768D01*
Y148770D01*
X154207Y150424D01*
X152942Y151690D01*
X151288Y152375D01*
X149497D01*
X148804Y152088D01*
X147534Y152936D01*
Y172913D01*
X153821Y179201D01*
X163178D01*
X163200Y179092D01*
X164139Y177686D01*
X165545Y176747D01*
X167204Y176417D01*
X168862Y176747D01*
X170268Y177686D01*
X170835Y178534D01*
X172104Y178149D01*
Y174942D01*
X170762Y173599D01*
X170171Y174190D01*
X168517Y174875D01*
X166727D01*
X165073Y174190D01*
X163807Y172924D01*
X163122Y171270D01*
Y169480D01*
X163807Y167826D01*
X165073Y166560D01*
X166727Y165875D01*
X168517D01*
X170171Y166560D01*
X171437Y167826D01*
X171463Y167890D01*
X172118Y168020D01*
X172945Y168573D01*
X176456Y172083D01*
X177008Y172910D01*
X177202Y173886D01*
Y176032D01*
X178472Y176701D01*
X179904Y176417D01*
X180511Y176538D01*
X183561Y173488D01*
Y173425D01*
X183060Y172924D01*
X182375Y171270D01*
Y169480D01*
X183060Y167826D01*
X184326Y166560D01*
X185980Y165875D01*
X187770D01*
X189424Y166560D01*
X190690Y167826D01*
X190690Y167826D01*
X235129D01*
X236104Y168020D01*
X236931Y168573D01*
X243206Y174848D01*
X243758Y175674D01*
X243953Y176650D01*
Y178611D01*
X249926D01*
X251377Y177160D01*
X253430Y175975D01*
X255719Y175361D01*
X258088D01*
X260377Y175975D01*
X262430Y177160D01*
X264105Y178835D01*
X265290Y180887D01*
X265903Y183176D01*
Y185546D01*
X265290Y187835D01*
X264105Y189887D01*
X262430Y191563D01*
X260377Y192748D01*
X258088Y193361D01*
X255719D01*
X253430Y192748D01*
X251377Y191563D01*
X249926Y190111D01*
X229403D01*
Y178611D01*
X237975D01*
X238490Y177341D01*
X234073Y172924D01*
X190690D01*
X190690Y172924D01*
X189424Y174190D01*
X188659Y174507D01*
Y174544D01*
X188465Y175519D01*
X187912Y176346D01*
X184116Y180142D01*
X184237Y180750D01*
Y197250D01*
X183907Y198908D01*
X182967Y200314D01*
X181562Y201253D01*
X179904Y201583D01*
X178472Y201299D01*
X177202Y201968D01*
Y208122D01*
X180615Y211535D01*
X182113Y211237D01*
X182439Y210451D01*
X183704Y209185D01*
X185358Y208500D01*
X187149D01*
X187149Y208500D01*
X192825Y202824D01*
X192736Y202328D01*
X192325Y201528D01*
X190945Y201253D01*
X189539Y200314D01*
X188600Y198908D01*
X188270Y197250D01*
Y180750D01*
X188600Y179092D01*
X189539Y177686D01*
X190945Y176747D01*
X192603Y176417D01*
X194262Y176747D01*
X195667Y177686D01*
X196607Y179092D01*
X196937Y180750D01*
Y197250D01*
X196607Y198908D01*
X195756Y200181D01*
X195909Y200784D01*
X196252Y201451D01*
X202105D01*
X202490Y200181D01*
X202420Y200134D01*
X201536Y198811D01*
X201225Y197250D01*
Y190000D01*
X205304D01*
X209382D01*
Y197250D01*
X209071Y198811D01*
X208187Y200134D01*
X208117Y200181D01*
X208502Y201451D01*
X212967D01*
X220065Y194353D01*
Y186642D01*
X220065Y186642D01*
X218799Y185376D01*
X218113Y183722D01*
Y181932D01*
X218799Y180278D01*
X220065Y179012D01*
X221718Y178327D01*
X223509D01*
X225163Y179012D01*
X226428Y180278D01*
X227113Y181932D01*
Y183722D01*
X226428Y185376D01*
X225163Y186642D01*
X225163Y186642D01*
Y195409D01*
X224968Y196384D01*
X224416Y197211D01*
X216857Y204770D01*
X217383Y206040D01*
X223067D01*
X226548Y202559D01*
X227375Y202006D01*
X228350Y201812D01*
X248269D01*
X248517Y200887D01*
X249702Y198835D01*
X251377Y197160D01*
X253430Y195975D01*
X255719Y195361D01*
X258088D01*
X260377Y195975D01*
X262430Y197160D01*
X263881Y198611D01*
X284403D01*
X284451Y197361D01*
Y195000D01*
X284645Y194025D01*
X285198Y193198D01*
X287448Y190948D01*
X288274Y190395D01*
X289250Y190201D01*
X305194D01*
X310451Y184944D01*
Y146360D01*
X310645Y145385D01*
X311198Y144558D01*
X322068Y133688D01*
X322895Y133135D01*
X323870Y132941D01*
X341966D01*
X342799Y131499D01*
X344009Y130289D01*
X344729Y129873D01*
Y128407D01*
X344009Y127991D01*
X342799Y126781D01*
X341943Y125299D01*
X341500Y123646D01*
Y121934D01*
X341943Y120281D01*
X342799Y118799D01*
X344009Y117589D01*
X344729Y117173D01*
Y115707D01*
X344009Y115291D01*
X342799Y114081D01*
X341943Y112599D01*
X341500Y110946D01*
Y109234D01*
X341943Y107581D01*
X342799Y106099D01*
X344009Y104889D01*
X344945Y104348D01*
X344605Y103078D01*
X314000D01*
X314000Y103078D01*
X312439Y102768D01*
X311116Y101884D01*
X291116Y81884D01*
X291116Y81884D01*
X290232Y80561D01*
X289922Y79000D01*
X289922Y79000D01*
Y52579D01*
X283421Y46078D01*
X266904Y46078D01*
X266790Y46056D01*
X266675Y46072D01*
X266013Y45901D01*
X265343Y45768D01*
X265246Y45703D01*
X265134Y45674D01*
X264588Y45264D01*
X264020Y44884D01*
X263955Y44787D01*
X263862Y44717D01*
X223079Y-922D01*
X196557D01*
X196031Y348D01*
X196691Y1009D01*
X197547Y2491D01*
X197990Y4144D01*
Y5856D01*
X197547Y7509D01*
X196691Y8991D01*
X195481Y10201D01*
X193999Y11057D01*
X192346Y11500D01*
X190634D01*
X188981Y11057D01*
X187499Y10201D01*
X186289Y8991D01*
X185873Y8271D01*
X184407D01*
X183991Y8991D01*
X182781Y10201D01*
X181299Y11057D01*
X179790Y11461D01*
Y5000D01*
X177790D01*
Y11461D01*
X176281Y11057D01*
X174799Y10201D01*
X173589Y8991D01*
X173173Y8271D01*
X171707D01*
X171291Y8991D01*
X170081Y10201D01*
X168599Y11057D01*
X166946Y11500D01*
X165234D01*
X163581Y11057D01*
X162099Y10201D01*
X160889Y8991D01*
X160473Y8271D01*
X159007D01*
X158591Y8991D01*
X157381Y10201D01*
X155899Y11057D01*
X154246Y11500D01*
X152534D01*
X150881Y11057D01*
X149399Y10201D01*
X148189Y8991D01*
X147773Y8271D01*
X146307D01*
X145891Y8991D01*
X144681Y10201D01*
X143837Y10689D01*
Y16000D01*
X144597D01*
Y26000D01*
X142191D01*
Y28876D01*
X180373D01*
X181522Y29352D01*
X181997Y30500D01*
Y37961D01*
X185262D01*
Y56043D01*
X181997D01*
Y68221D01*
X181522Y69369D01*
X180373Y69845D01*
X169875D01*
Y71293D01*
X153875D01*
Y69861D01*
X142929D01*
X141564Y69590D01*
X140900Y69147D01*
X140354Y69014D01*
X139547Y69246D01*
X139300Y69369D01*
X139001Y69493D01*
X138773Y69721D01*
X138450D01*
X138152Y69845D01*
X127875D01*
X126727Y69369D01*
X126251Y68221D01*
Y30500D01*
X126727Y29352D01*
X127875Y28876D01*
X135053D01*
Y22225D01*
X135097Y22005D01*
Y16000D01*
X136700D01*
Y10202D01*
X136699Y10201D01*
X135489Y8991D01*
X135073Y8271D01*
X133607D01*
X133191Y8991D01*
X131981Y10201D01*
X130499Y11057D01*
X128846Y11500D01*
X127134D01*
X125481Y11057D01*
X123999Y10201D01*
X122789Y8991D01*
X122373Y8271D01*
X120907D01*
X120491Y8991D01*
X119281Y10201D01*
X117799Y11057D01*
X116146Y11500D01*
X114434D01*
X112781Y11057D01*
X111299Y10201D01*
X110089Y8991D01*
X109673Y8271D01*
X108207D01*
X107791Y8991D01*
X106581Y10201D01*
X105099Y11057D01*
X103446Y11500D01*
X101734D01*
X100081Y11057D01*
X98599Y10201D01*
X97389Y8991D01*
X96533Y7509D01*
X96090Y5856D01*
Y4144D01*
X96533Y2491D01*
X97389Y1009D01*
X98049Y348D01*
X97523Y-922D01*
X70825D01*
X30041Y44717D01*
X29948Y44787D01*
X29884Y44884D01*
X29315Y45264D01*
X28770Y45674D01*
X28657Y45703D01*
X28561Y45768D01*
X27891Y45901D01*
X27229Y46072D01*
X27114Y46056D01*
X27000Y46078D01*
X10579D01*
X4078Y52579D01*
Y79000D01*
X4078Y79000D01*
X3768Y80561D01*
X2884Y81884D01*
X-17116Y101884D01*
X-17116Y101884D01*
X-18439Y102768D01*
X-20000Y103078D01*
X-50466Y103078D01*
X-50806Y104348D01*
X-50009Y104809D01*
X-48799Y106019D01*
X-47943Y107501D01*
X-47500Y109154D01*
Y110866D01*
X-47943Y112519D01*
X-48799Y114001D01*
X-50009Y115211D01*
X-50729Y115627D01*
Y117093D01*
X-50009Y117509D01*
X-48799Y118719D01*
X-47966Y120161D01*
X-39153D01*
X-38177Y120355D01*
X-37350Y120908D01*
X-32949Y125309D01*
X-32397Y126136D01*
X-32202Y127111D01*
Y136860D01*
X-29752D01*
Y140360D01*
X-34502D01*
X-39251D01*
Y136860D01*
X-37301D01*
Y128167D01*
X-40209Y125259D01*
X-47966D01*
X-48799Y126701D01*
X-50009Y127911D01*
X-50729Y128327D01*
Y129793D01*
X-50009Y130209D01*
X-48799Y131419D01*
X-47943Y132901D01*
X-47500Y134554D01*
Y136266D01*
X-47943Y137919D01*
X-48799Y139401D01*
X-50009Y140611D01*
X-50729Y141027D01*
Y142493D01*
X-50009Y142909D01*
X-48799Y144119D01*
X-47943Y145601D01*
X-47500Y147254D01*
Y148966D01*
X-47943Y150619D01*
X-48799Y152101D01*
X-50009Y153311D01*
X-50729Y153727D01*
Y155193D01*
X-50009Y155609D01*
X-48799Y156819D01*
X-48555Y157241D01*
X-42180D01*
X-39502Y154563D01*
Y150110D01*
X-29502D01*
Y159610D01*
X-34455D01*
X-38178Y163333D01*
X-39336Y164107D01*
X-40701Y164379D01*
X-48555D01*
X-48799Y164801D01*
X-50009Y166011D01*
X-50729Y166427D01*
Y167893D01*
X-50009Y168309D01*
X-48799Y169519D01*
X-47966Y170961D01*
X-15563D01*
X-14587Y171155D01*
X-13760Y171708D01*
X26344Y211812D01*
X29867D01*
X30393Y210542D01*
D02*
G37*
G36*
X180373Y55793D02*
X177732D01*
Y47002D01*
Y38211D01*
X180373D01*
Y30500D01*
X142191D01*
Y32000D01*
X141919Y33366D01*
X141145Y34523D01*
X140179Y35169D01*
X140444Y36500D01*
Y43370D01*
X140472Y43413D01*
X140744Y44778D01*
Y52793D01*
Y59060D01*
X144407Y62724D01*
X154125D01*
Y61543D01*
X158306D01*
Y49345D01*
X158578Y47979D01*
X159352Y46821D01*
X161695Y44478D01*
X162852Y43705D01*
X164218Y43433D01*
X168452D01*
Y38211D01*
X175732D01*
Y47002D01*
Y55793D01*
X168452D01*
Y50570D01*
X165696D01*
X165444Y50823D01*
Y61543D01*
X169625D01*
Y65293D01*
X161875D01*
Y67293D01*
X169625D01*
Y68221D01*
X180373D01*
Y55793D01*
D02*
G37*
G36*
X138638Y67048D02*
X134652Y63062D01*
X133878Y61904D01*
X133606Y60539D01*
Y52793D01*
Y45886D01*
X133578Y45844D01*
X133306Y44478D01*
Y36500D01*
X133578Y35134D01*
X134352Y33977D01*
X135318Y33331D01*
X135053Y32000D01*
Y30500D01*
X127875D01*
Y68221D01*
X138152D01*
X138638Y67048D01*
D02*
G37*
%LPC*%
G36*
X167143Y281725D02*
X163643D01*
Y281607D01*
X163538Y281450D01*
X163344Y280475D01*
X163538Y279499D01*
X163643Y279342D01*
Y277975D01*
X165646D01*
X165893Y277926D01*
X166139Y277975D01*
X167143D01*
Y281725D01*
D02*
G37*
G36*
X258088Y253361D02*
X255719D01*
X253430Y252748D01*
X251377Y251563D01*
X249702Y249887D01*
X248517Y247835D01*
X247903Y245546D01*
Y243176D01*
X248517Y240887D01*
X249702Y238835D01*
X251377Y237160D01*
X253430Y235975D01*
X255719Y235361D01*
X258088D01*
X260377Y235975D01*
X262430Y237160D01*
X263881Y238611D01*
X284403D01*
Y250111D01*
X263881D01*
X262430Y251563D01*
X260377Y252748D01*
X258088Y253361D01*
D02*
G37*
G36*
X179904Y249583D02*
X178245Y249253D01*
X176839Y248314D01*
X175900Y246908D01*
X175570Y245250D01*
Y228750D01*
X175900Y227092D01*
X176839Y225686D01*
X178245Y224747D01*
X179904Y224417D01*
X181562Y224747D01*
X182967Y225686D01*
X183907Y227092D01*
X184237Y228750D01*
Y245250D01*
X183907Y246908D01*
X182967Y248314D01*
X181562Y249253D01*
X179904Y249583D01*
D02*
G37*
G36*
X174643Y262031D02*
X167643D01*
Y261829D01*
X166393Y261781D01*
X166373Y261781D01*
X164143D01*
Y258031D01*
Y254281D01*
X166304D01*
X166393Y254281D01*
X167574Y254067D01*
Y251009D01*
X165886Y249321D01*
X165545Y249253D01*
X164139Y248314D01*
X163200Y246908D01*
X162870Y245250D01*
Y228750D01*
X163200Y227092D01*
X163635Y226441D01*
Y218100D01*
X163328Y217793D01*
X162643Y216139D01*
Y214349D01*
X163328Y212695D01*
X164594Y211429D01*
X166248Y210744D01*
X168038D01*
X169692Y211429D01*
X170958Y212695D01*
X171643Y214349D01*
Y216139D01*
X170958Y217793D01*
X170772Y217978D01*
Y226441D01*
X171207Y227092D01*
X171537Y228750D01*
Y244878D01*
X173666Y247008D01*
X174440Y248165D01*
X174711Y249531D01*
Y258031D01*
X174643Y258376D01*
Y262031D01*
D02*
G37*
G36*
X332750Y168125D02*
X329000D01*
Y164625D01*
X332750D01*
Y168125D01*
D02*
G37*
G36*
X327000D02*
X323250D01*
Y164625D01*
X327000D01*
Y168125D01*
D02*
G37*
G36*
X38124Y253361D02*
X35755D01*
X33466Y252748D01*
X31413Y251563D01*
X29738Y249887D01*
X28553Y247835D01*
X27940Y245546D01*
Y243176D01*
X28553Y240887D01*
X29738Y238835D01*
X31413Y237160D01*
X33466Y235975D01*
X35755Y235361D01*
X38124D01*
X40413Y235975D01*
X42466Y237160D01*
X43917Y238611D01*
X64440D01*
Y250111D01*
X43917D01*
X42466Y251563D01*
X40413Y252748D01*
X38124Y253361D01*
D02*
G37*
G36*
X204304Y188000D02*
X201225D01*
Y180750D01*
X201536Y179189D01*
X202420Y177866D01*
X203743Y176982D01*
X204304Y176870D01*
Y188000D01*
D02*
G37*
G36*
X209382D02*
X206304D01*
Y176871D01*
X206864Y176982D01*
X207686Y177531D01*
X208151D01*
X209440Y176242D01*
X210267Y175689D01*
X211243Y175495D01*
X212325D01*
X213300Y175689D01*
X214127Y176242D01*
X214680Y177069D01*
X214874Y178044D01*
X214680Y179020D01*
X214127Y179846D01*
X213300Y180399D01*
X212325Y180593D01*
X212298D01*
X211009Y181883D01*
X210182Y182435D01*
X209382Y182594D01*
Y188000D01*
D02*
G37*
G36*
X258088Y173361D02*
X255719D01*
X253430Y172748D01*
X251377Y171563D01*
X249702Y169887D01*
X248517Y167835D01*
X247903Y165546D01*
Y163176D01*
X248517Y160887D01*
X249702Y158835D01*
X251377Y157160D01*
X253430Y155975D01*
X255719Y155361D01*
X258088D01*
X260377Y155975D01*
X262430Y157160D01*
X263881Y158611D01*
X284403D01*
Y170111D01*
X263881D01*
X262430Y171563D01*
X260377Y172748D01*
X258088Y173361D01*
D02*
G37*
G36*
X-29752Y145860D02*
X-33502D01*
Y142360D01*
X-29752D01*
Y145860D01*
D02*
G37*
G36*
X-35501D02*
X-39251D01*
Y142360D01*
X-35501D01*
Y145860D01*
D02*
G37*
G36*
X258088Y153361D02*
X255719D01*
X253430Y152748D01*
X251377Y151563D01*
X249926Y150111D01*
X229403D01*
Y138611D01*
X249926D01*
X251377Y137160D01*
X253430Y135975D01*
X255719Y135361D01*
X258088D01*
X260377Y135975D01*
X262430Y137160D01*
X264105Y138835D01*
X265290Y140887D01*
X265903Y143176D01*
Y145546D01*
X265290Y147835D01*
X264105Y149887D01*
X262430Y151563D01*
X260377Y152748D01*
X258088Y153361D01*
D02*
G37*
G36*
X38124D02*
X35755D01*
X33466Y152748D01*
X31413Y151563D01*
X29962Y150111D01*
X9439D01*
Y138611D01*
X29962D01*
X31413Y137160D01*
X33466Y135975D01*
X35755Y135361D01*
X38124D01*
X40413Y135975D01*
X42466Y137160D01*
X44141Y138835D01*
X45326Y140887D01*
X45939Y143176D01*
Y145546D01*
X45326Y147835D01*
X44141Y149887D01*
X42466Y151563D01*
X40413Y152748D01*
X38124Y153361D01*
D02*
G37*
G36*
X163393Y136110D02*
X161143D01*
Y133360D01*
X163393D01*
Y136110D01*
D02*
G37*
G36*
X182384Y120750D02*
X177134D01*
Y116000D01*
X182384D01*
Y120750D01*
D02*
G37*
G36*
X258088Y133361D02*
X255719D01*
X253430Y132748D01*
X251377Y131563D01*
X249702Y129887D01*
X248517Y127835D01*
X247903Y125546D01*
Y123176D01*
X248517Y120887D01*
X249702Y118835D01*
X251377Y117160D01*
X253430Y115975D01*
X255719Y115361D01*
X258088D01*
X260377Y115975D01*
X262430Y117160D01*
X263881Y118611D01*
X284403D01*
Y130111D01*
X263881D01*
X262430Y131563D01*
X260377Y132748D01*
X258088Y133361D01*
D02*
G37*
G36*
X38124D02*
X35755D01*
X33466Y132748D01*
X31413Y131563D01*
X29738Y129887D01*
X28553Y127835D01*
X27940Y125546D01*
Y123176D01*
X28553Y120887D01*
X29738Y118835D01*
X31413Y117160D01*
X33466Y115975D01*
X35755Y115361D01*
X38124D01*
X40413Y115975D01*
X42466Y117160D01*
X43917Y118611D01*
X64440D01*
Y130111D01*
X43917D01*
X42466Y131563D01*
X40413Y132748D01*
X38124Y133361D01*
D02*
G37*
G36*
X203775Y122202D02*
X189775D01*
Y109472D01*
X189775Y109202D01*
Y108202D01*
X189775Y107932D01*
Y101549D01*
X182634D01*
Y105000D01*
X169634D01*
Y93000D01*
X182634D01*
Y96451D01*
X189775D01*
Y95202D01*
X192705D01*
Y88241D01*
X192253D01*
Y87991D01*
X191173D01*
Y83241D01*
X189174D01*
Y87991D01*
X187423D01*
Y87842D01*
X169625D01*
Y90043D01*
X162875D01*
Y85293D01*
Y80543D01*
X169625D01*
Y82744D01*
X187423D01*
Y78491D01*
X187624D01*
Y72751D01*
X187423D01*
Y69001D01*
X190173D01*
Y68001D01*
X191173D01*
Y63251D01*
X192253D01*
Y63001D01*
X192705D01*
Y56043D01*
X186723D01*
Y37961D01*
X203784D01*
Y56043D01*
X197802D01*
Y63001D01*
X203333D01*
Y64942D01*
X207775D01*
X209359Y63358D01*
X209359Y63358D01*
X210352Y62695D01*
X211522Y62463D01*
X212022Y61543D01*
X222022D01*
Y66598D01*
X229403D01*
Y58611D01*
X249926D01*
X251377Y57160D01*
X253430Y55975D01*
X255719Y55361D01*
X258088D01*
X260377Y55975D01*
X262430Y57160D01*
X264105Y58835D01*
X265290Y60887D01*
X265903Y63176D01*
Y65546D01*
X265290Y67835D01*
X264105Y69887D01*
X262430Y71563D01*
X260377Y72748D01*
X258088Y73361D01*
X255719D01*
X253430Y72748D01*
X251377Y71563D01*
X249925Y70111D01*
X238744D01*
Y80793D01*
X248571D01*
X249702Y78835D01*
X251377Y77160D01*
X253430Y75975D01*
X255719Y75361D01*
X258088D01*
X260377Y75975D01*
X262430Y77160D01*
X263881Y78611D01*
X284403D01*
Y90111D01*
X263881D01*
X262430Y91563D01*
X260377Y92748D01*
X258088Y93361D01*
X255719D01*
X253430Y92748D01*
X251377Y91563D01*
X249702Y89888D01*
X248571Y87930D01*
X237120D01*
X235754Y87658D01*
X234597Y86885D01*
X232357Y84645D01*
X229629D01*
X229166Y85498D01*
X229068Y85915D01*
X229550Y86636D01*
X229743Y87611D01*
X229550Y88587D01*
X228997Y89414D01*
X228170Y89966D01*
X227195Y90160D01*
X226219Y89966D01*
X225956Y89790D01*
X219669D01*
Y90491D01*
X216919D01*
Y87241D01*
X215919D01*
Y86241D01*
X212169D01*
Y84645D01*
X203333D01*
Y88241D01*
X197802D01*
Y95202D01*
X203775D01*
Y107932D01*
X203775Y108202D01*
Y109202D01*
X203775Y109472D01*
Y112133D01*
X207921D01*
X208370Y111685D01*
X210023Y111000D01*
X211814D01*
X213468Y111685D01*
X214734Y112951D01*
X215418Y114605D01*
Y116395D01*
X214734Y118049D01*
X213468Y119315D01*
X211814Y120000D01*
X210023D01*
X208370Y119315D01*
X208325Y119271D01*
X203775D01*
Y122202D01*
D02*
G37*
G36*
X182384Y114000D02*
X177134D01*
Y109250D01*
X182384D01*
Y114000D01*
D02*
G37*
G36*
X175134Y120750D02*
X169884D01*
Y117549D01*
X161143D01*
X160167Y117355D01*
X159340Y116802D01*
X158788Y115975D01*
X158594Y115000D01*
X158788Y114024D01*
X159340Y113197D01*
X160167Y112645D01*
X161143Y112451D01*
X169884D01*
Y109250D01*
X175134D01*
Y115000D01*
Y120750D01*
D02*
G37*
G36*
X258088Y113361D02*
X255719D01*
X253430Y112748D01*
X251377Y111563D01*
X249926Y110111D01*
X229403D01*
Y98611D01*
X249926D01*
X251377Y97160D01*
X253430Y95975D01*
X255719Y95361D01*
X258088D01*
X260377Y95975D01*
X262430Y97160D01*
X264105Y98835D01*
X265290Y100887D01*
X265903Y103176D01*
Y105546D01*
X265290Y107835D01*
X264105Y109887D01*
X262430Y111563D01*
X260377Y112748D01*
X258088Y113361D01*
D02*
G37*
G36*
X38124D02*
X35755D01*
X33466Y112748D01*
X31413Y111563D01*
X29962Y110111D01*
X9439D01*
Y98611D01*
X29962D01*
X31413Y97160D01*
X33466Y95975D01*
X35755Y95361D01*
X38124D01*
X40413Y95975D01*
X42466Y97160D01*
X44141Y98835D01*
X45326Y100887D01*
X45939Y103176D01*
Y105546D01*
X45326Y107835D01*
X44141Y109887D01*
X42466Y111563D01*
X40413Y112748D01*
X38124Y113361D01*
D02*
G37*
G36*
X214918Y90491D02*
X212169D01*
Y88241D01*
X214918D01*
Y90491D01*
D02*
G37*
G36*
X160875Y90043D02*
X154125D01*
Y87842D01*
X148595D01*
X147619Y87648D01*
X146792Y87095D01*
X146240Y86268D01*
X146046Y85293D01*
X146240Y84317D01*
X146792Y83490D01*
X147619Y82938D01*
X148595Y82744D01*
X154125D01*
Y80543D01*
X160875D01*
Y85293D01*
Y90043D01*
D02*
G37*
G36*
X38124Y73361D02*
X37940D01*
Y65361D01*
X45939D01*
Y65546D01*
X45326Y67835D01*
X44141Y69887D01*
X42466Y71563D01*
X40413Y72748D01*
X38124Y73361D01*
D02*
G37*
G36*
X20440Y69861D02*
X9689D01*
Y65361D01*
X20440D01*
Y69861D01*
D02*
G37*
G36*
X189174Y67001D02*
X187423D01*
Y63251D01*
X189174D01*
Y67001D01*
D02*
G37*
G36*
X20440Y63361D02*
X9689D01*
Y58861D01*
X20440D01*
Y63361D01*
D02*
G37*
G36*
X45939Y63361D02*
X37940D01*
Y55361D01*
X38124D01*
X40413Y55975D01*
X42466Y57160D01*
X44141Y58835D01*
X45326Y60887D01*
X45939Y63176D01*
Y63361D01*
D02*
G37*
G36*
X35940Y73361D02*
X35755D01*
X33466Y72748D01*
X31413Y71563D01*
X29738Y69887D01*
X29723Y69861D01*
X22440D01*
Y64361D01*
Y58861D01*
X29723D01*
X29738Y58835D01*
X31413Y57160D01*
X33466Y55975D01*
X35755Y55361D01*
X35940D01*
Y64361D01*
Y73361D01*
D02*
G37*
G36*
X216022Y57293D02*
X212272D01*
Y53793D01*
X216022D01*
Y57293D01*
D02*
G37*
G36*
X221772D02*
X218022D01*
Y52793D01*
Y48293D01*
X221772D01*
Y50244D01*
X228067D01*
X229043Y50438D01*
X229869Y50990D01*
X230118Y51239D01*
X230670Y52066D01*
X230864Y53041D01*
X230670Y54016D01*
X230118Y54843D01*
X229291Y55396D01*
X228315Y55590D01*
X227340Y55396D01*
X227259Y55342D01*
X221772D01*
Y57293D01*
D02*
G37*
G36*
X216022Y51793D02*
X212272D01*
Y48293D01*
X216022D01*
Y51793D01*
D02*
G37*
G36*
X108090Y81021D02*
X97090D01*
Y70021D01*
X99790D01*
Y57417D01*
X91323Y48950D01*
X90770Y48123D01*
X90576Y47147D01*
Y41500D01*
X87125D01*
Y31500D01*
X99125D01*
Y41500D01*
X95674D01*
Y46091D01*
X104141Y54559D01*
X104694Y55386D01*
X104888Y56361D01*
Y70021D01*
X108090D01*
Y81021D01*
D02*
G37*
G36*
X87525Y81241D02*
X76525D01*
Y70241D01*
X79476D01*
Y59599D01*
X74723Y54845D01*
X74170Y54018D01*
X73976Y53043D01*
Y41500D01*
X70525D01*
Y31500D01*
X82525D01*
Y41500D01*
X79074D01*
Y51987D01*
X83827Y56740D01*
X84380Y57567D01*
X84574Y58543D01*
Y70241D01*
X87525D01*
Y81241D01*
D02*
G37*
G36*
X92125Y27250D02*
X87375D01*
Y25049D01*
X82275D01*
Y27250D01*
X77525D01*
Y22500D01*
X76525D01*
Y21500D01*
X70775D01*
Y17750D01*
X73976D01*
Y12871D01*
X73926Y12620D01*
X74120Y11645D01*
X74673Y10818D01*
X75500Y10265D01*
X76475Y10071D01*
X77450Y10265D01*
X78277Y10818D01*
X78327Y10868D01*
X78880Y11695D01*
X79074Y12670D01*
Y17750D01*
X82275D01*
Y19951D01*
X87375D01*
Y17750D01*
X92125D01*
Y22500D01*
Y27250D01*
D02*
G37*
G36*
X98875D02*
X94125D01*
Y23500D01*
X98875D01*
Y27250D01*
D02*
G37*
G36*
X75525D02*
X70775D01*
Y23500D01*
X75525D01*
Y27250D01*
D02*
G37*
G36*
X152347Y25750D02*
X148847D01*
Y22000D01*
X152347D01*
Y25750D01*
D02*
G37*
G36*
X157847D02*
X154347D01*
Y21000D01*
Y16250D01*
X157847D01*
Y18451D01*
X162857D01*
X163379Y18347D01*
X164355Y18541D01*
X165182Y19094D01*
X165734Y19921D01*
X165928Y20896D01*
X165734Y21872D01*
X165182Y22699D01*
X165078Y22802D01*
X164251Y23355D01*
X163275Y23549D01*
X157847D01*
Y25750D01*
D02*
G37*
G36*
X98875Y21500D02*
X94125D01*
Y17750D01*
X98875D01*
Y21500D01*
D02*
G37*
G36*
X152347Y20000D02*
X148847D01*
Y16250D01*
X152347D01*
Y20000D01*
D02*
G37*
%LPD*%
G36*
X237120Y70111D02*
X229403D01*
Y68221D01*
X221772D01*
Y70793D01*
X218022D01*
Y66293D01*
X216022D01*
Y70793D01*
X212272D01*
Y68221D01*
X203083D01*
Y72751D01*
X200333D01*
Y78491D01*
X203083D01*
Y83021D01*
X237120D01*
Y70111D01*
D02*
G37*
%LPC*%
G36*
X219669Y82491D02*
X216919D01*
Y80241D01*
X219669D01*
Y82491D01*
D02*
G37*
G36*
X214918D02*
X212169D01*
Y80241D01*
X214918D01*
Y82491D01*
D02*
G37*
G36*
X219669Y78241D02*
X216919D01*
Y75991D01*
X219669D01*
Y78241D01*
D02*
G37*
G36*
X214918D02*
X212169D01*
Y75991D01*
X214918D01*
Y78241D01*
D02*
G37*
%LPD*%
D11*
X118248Y198023D02*
Y202966D01*
Y184870D02*
Y198023D01*
X117362Y198910D02*
X118248Y198023D01*
X81122Y198910D02*
X117362D01*
X184114Y218639D02*
X191525D01*
X192603Y217560D01*
X77525Y241254D02*
X85872D01*
X222614Y182827D02*
Y195409D01*
X214023Y204000D02*
X222614Y195409D01*
X206920Y180080D02*
X209206D01*
X205303Y181697D02*
Y189000D01*
Y181697D02*
X206920Y180080D01*
X209206D02*
X211243Y178044D01*
X212325D01*
X186875Y170375D02*
X235129D01*
X148595Y85293D02*
X161875D01*
X147875Y259625D02*
X158753Y248746D01*
X157118Y260075D02*
X159162Y258031D01*
X163143D01*
X156143Y260075D02*
X157118D01*
X215919Y87241D02*
X226825D01*
X227195Y87611D01*
X163275Y21000D02*
X163379Y20896D01*
X153347Y21000D02*
X163275D01*
X123525Y249463D02*
X124872Y248116D01*
X123525Y249463D02*
Y254281D01*
X124872Y241254D02*
Y248116D01*
X100125Y145110D02*
X138372D01*
X92372Y157078D02*
X93620Y155830D01*
Y99491D02*
Y155830D01*
Y99491D02*
X102590Y90521D01*
X82025Y90741D02*
X89502Y98219D01*
X85872Y158628D02*
X89502Y154998D01*
Y98219D02*
Y154998D01*
X81275Y142028D02*
X83275Y144028D01*
X79275Y136657D02*
X79525D01*
X81275Y138407D01*
Y142028D01*
X83275Y144028D02*
Y145110D01*
X79275Y115702D02*
Y124361D01*
X70775D02*
Y136657D01*
Y115677D02*
Y124361D01*
X61940Y106841D02*
X70775Y115677D01*
X52439Y84361D02*
X58689D01*
X61940Y87611D01*
Y106841D01*
X111872Y178044D02*
Y184746D01*
X115175Y159110D02*
Y174741D01*
X111872Y178044D02*
X115175Y174741D01*
X124526Y185092D02*
X124872Y184746D01*
Y170375D02*
Y184746D01*
X120743Y137642D02*
X120875Y137510D01*
Y136414D02*
Y137510D01*
Y136414D02*
X133025Y124264D01*
X112025Y133440D02*
X122675Y122790D01*
X112025Y133440D02*
Y136907D01*
X161143Y115000D02*
X176134D01*
X76525Y12670D02*
Y22500D01*
X76475Y12620D02*
X76525Y12670D01*
Y22500D02*
X93125D01*
X217022Y52793D02*
X228067D01*
X228315Y53041D01*
X85872Y158628D02*
Y184746D01*
X92372Y157078D02*
Y184746D01*
X160143Y137610D02*
X167351Y144818D01*
X171627D02*
X172393Y145584D01*
X160143Y137110D02*
Y137610D01*
X167351Y144818D02*
X171627D01*
X175993Y282621D02*
X178385D01*
X175889Y282725D02*
X175993Y282621D01*
X168143Y282725D02*
X175889D01*
X124872Y215533D02*
Y241254D01*
X165893Y280475D02*
X168143Y282725D01*
X124872Y215533D02*
X126043Y214361D01*
X127119D01*
X115847Y208589D02*
X152304D01*
X235129Y170375D02*
X241404Y176650D01*
X179904Y180750D02*
X186110Y174544D01*
Y171140D02*
X186875Y170375D01*
X179904Y180750D02*
Y189000D01*
X186110Y171140D02*
Y174544D01*
X192603Y217560D02*
Y237000D01*
X167622Y170375D02*
X171143D01*
X174653Y173886D01*
Y209178D01*
X184114Y218639D01*
X144985Y173969D02*
X152766Y181750D01*
X205307Y215647D02*
Y236997D01*
X167204Y183367D02*
Y189000D01*
X205307Y215647D02*
X205310Y215644D01*
X165587Y181750D02*
X167204Y183367D01*
X152766Y181750D02*
X165587D01*
X144985Y151723D02*
Y173969D01*
X138372Y145110D02*
X144985Y151723D01*
X205303Y237000D02*
X205307Y236997D01*
X195254Y204000D02*
X214023D01*
X186254Y213000D02*
X195254Y204000D01*
X192603Y217560D02*
X201575Y208589D01*
X224123D01*
X228350Y204361D01*
X256903D01*
X219918Y224361D02*
X224500Y219780D01*
Y215244D02*
Y219780D01*
Y215244D02*
X228315Y211428D01*
X249828D01*
X8890Y184361D02*
X36939D01*
X-22000Y153471D02*
X8890Y184361D01*
X-22000Y136360D02*
Y153471D01*
X62491Y193000D02*
X78080Y208589D01*
X56895Y193000D02*
X62491D01*
X76940Y202500D02*
X109758D01*
X58802Y184361D02*
X76940Y202500D01*
X36939Y184361D02*
X58802D01*
X107461Y208589D02*
X111872Y213000D01*
X78080Y208589D02*
X107461D01*
X111872Y213000D02*
Y220273D01*
X105372Y226773D02*
Y241254D01*
Y226773D02*
X111872Y220273D01*
X92372Y227820D02*
X102192Y218000D01*
X92372Y227820D02*
Y241254D01*
X98872D02*
Y255281D01*
X96778Y257375D02*
X98872Y255281D01*
X77525Y257375D02*
X96778D01*
X56895Y230175D02*
X70058D01*
X71230Y231347D01*
Y251080D01*
X77525Y257375D01*
X-15563Y173510D02*
X25288Y214361D01*
X41082D01*
X56895Y230175D01*
X-54000Y173510D02*
X-15563D01*
X109758Y202500D02*
X115847Y208589D01*
X152304D02*
X152893Y208000D01*
X61940Y179728D02*
X81122Y198910D01*
X117998Y203089D02*
X118125D01*
X61940Y167611D02*
Y179728D01*
X52439Y164361D02*
X58689D01*
X61940Y167611D01*
X118248Y184870D02*
X118372Y184746D01*
X118125Y203089D02*
X118248Y202966D01*
X152893Y208000D02*
Y248375D01*
Y203089D02*
Y208000D01*
X287000Y195000D02*
X289250Y192750D01*
X287000Y195000D02*
Y211828D01*
X285828Y213000D02*
X287000Y211828D01*
X262407Y213000D02*
X285828D01*
X306250Y192750D02*
X313000Y186000D01*
X289250Y192750D02*
X306250D01*
X313000Y146360D02*
Y186000D01*
X261046Y214361D02*
X262407Y213000D01*
X323870Y135490D02*
X348000D01*
X313000Y146360D02*
X323870Y135490D01*
X252761Y214361D02*
X261046D01*
X249828Y211428D02*
X252761Y214361D01*
X108090Y255813D02*
X111872Y252031D01*
X-54000Y122710D02*
X-39153D01*
X108090Y274750D02*
X112875Y279535D01*
X108090Y255813D02*
Y274750D01*
X111872Y241254D02*
Y252031D01*
X112875Y279535D02*
Y287725D01*
X332498Y186290D02*
X348000D01*
X328000Y169125D02*
Y181792D01*
X332498Y186290D01*
X147827Y198023D02*
X152893Y203089D01*
X147827Y193074D02*
X158753Y204000D01*
X128349Y198023D02*
X147827D01*
Y190502D02*
Y193074D01*
X145653Y251028D02*
X150240D01*
X152893Y248375D01*
X158753Y204000D02*
Y248746D01*
X140610Y283863D02*
Y303000D01*
Y283863D02*
X147875Y276598D01*
Y259625D02*
Y276598D01*
X127910Y289378D02*
X142413Y274875D01*
Y254268D02*
X145653Y251028D01*
X142413Y254268D02*
Y274875D01*
X124526Y194201D02*
X128349Y198023D01*
X124526Y185092D02*
Y194201D01*
X127910Y289378D02*
Y303000D01*
X-34752Y127111D02*
Y141110D01*
X-34502Y141360D01*
X-39153Y122710D02*
X-34752Y127111D01*
X93125Y36500D02*
Y47147D01*
X102339Y56361D01*
Y75270D01*
X102590Y75521D01*
X76525Y36500D02*
Y53043D01*
X82025Y58543D02*
Y75741D01*
X76525Y53043D02*
X82025Y58543D01*
X241404Y176650D02*
Y184361D01*
X118372Y241254D02*
Y266778D01*
X118025Y267125D02*
X118372Y266778D01*
X161875Y85293D02*
X189674D01*
X190173Y84793D01*
Y83241D02*
Y84793D01*
Y68001D02*
Y83241D01*
X195254Y100180D02*
X196775Y101702D01*
X194073Y99000D02*
X195254Y100180D01*
X176134Y99000D02*
X194073D01*
X195254Y83241D02*
Y100180D01*
Y47002D02*
Y68001D01*
D13*
X200333D02*
Y83241D01*
X211522Y65521D02*
X216251D01*
X209042Y68001D02*
X211522Y65521D01*
X200333Y68001D02*
X209042D01*
D15*
X205303Y237000D02*
D03*
X192603D02*
D03*
X179904D02*
D03*
X167204D02*
D03*
X205303Y189000D02*
D03*
X192603D02*
D03*
X179904D02*
D03*
X167204D02*
D03*
D16*
X168143Y282725D02*
D03*
X154643D02*
D03*
X139847Y21000D02*
D03*
X153347D02*
D03*
D17*
X190173Y68001D02*
D03*
X195254D02*
D03*
X200333D02*
D03*
Y83241D02*
D03*
X195254D02*
D03*
X190173D02*
D03*
D18*
X79275Y124361D02*
D03*
X70775D02*
D03*
X79275Y136657D02*
D03*
X70775D02*
D03*
D19*
X176732Y47002D02*
D03*
X195254D02*
D03*
D20*
X196775Y101702D02*
D03*
Y115702D02*
D03*
D21*
X161875Y85293D02*
D03*
Y66293D02*
D03*
D22*
X215919Y79241D02*
D03*
Y87241D02*
D03*
D23*
X217022Y66293D02*
D03*
Y52793D02*
D03*
X328000Y155625D02*
D03*
Y169125D02*
D03*
X-34502Y154860D02*
D03*
Y141360D02*
D03*
D24*
X152143Y137110D02*
D03*
X160143D02*
D03*
X171143Y258031D02*
D03*
X163143D02*
D03*
X131525Y254281D02*
D03*
X123525D02*
D03*
D25*
X176134Y99000D02*
D03*
Y115000D02*
D03*
D26*
X82025Y90741D02*
D03*
Y75741D02*
D03*
X102590Y90521D02*
D03*
Y75521D02*
D03*
D27*
X76525Y36500D02*
D03*
Y22500D02*
D03*
X93125Y36500D02*
D03*
Y22500D02*
D03*
D28*
X131372Y184746D02*
D03*
X124872D02*
D03*
X118372D02*
D03*
X111872D02*
D03*
X105372D02*
D03*
X98872D02*
D03*
X92372D02*
D03*
X85872D02*
D03*
Y241254D02*
D03*
X92372D02*
D03*
X98872D02*
D03*
X105372D02*
D03*
X111872D02*
D03*
X118372D02*
D03*
X124872D02*
D03*
D29*
X131372D02*
D03*
D30*
X133025Y267125D02*
D03*
X118025D02*
D03*
X130175Y159110D02*
D03*
X115175D02*
D03*
D31*
X52439Y244361D02*
D03*
Y204361D02*
D03*
Y164361D02*
D03*
Y124361D02*
D03*
Y84361D02*
D03*
X21439Y224361D02*
D03*
Y184361D02*
D03*
Y104361D02*
D03*
Y64361D02*
D03*
Y144361D02*
D03*
X272404Y244361D02*
D03*
Y204361D02*
D03*
Y164361D02*
D03*
Y124361D02*
D03*
Y84361D02*
D03*
X241404Y224361D02*
D03*
Y184361D02*
D03*
Y104361D02*
D03*
Y64361D02*
D03*
Y144361D02*
D03*
D43*
X161875Y49345D02*
X164218Y47002D01*
X176732D01*
X138622Y22225D02*
Y32000D01*
Y22225D02*
X139847Y21000D01*
X140269Y5421D02*
Y20579D01*
Y5421D02*
X140690Y5000D01*
X139847Y21000D02*
X140269Y20579D01*
X131468Y244175D02*
Y265568D01*
X131372Y241254D02*
X140525D01*
X130175Y159110D02*
Y165311D01*
X131372Y166508D02*
Y184746D01*
X130175Y165311D02*
X131372Y166508D01*
X136875Y36500D02*
Y44478D01*
X137175Y44778D01*
Y52793D01*
Y60539D01*
X142929Y66293D01*
X161875D01*
X196775Y115702D02*
X210716D01*
X210919Y115500D01*
X152143Y137110D02*
Y145584D01*
X150393Y147334D02*
X152143Y145584D01*
X150393Y147334D02*
Y147875D01*
X131372Y184746D02*
X137879D01*
X140875Y181750D01*
X153310Y289975D02*
Y303000D01*
Y284307D02*
Y289975D01*
X178385D02*
X191410Y303000D01*
X153310Y289975D02*
X178385D01*
X167204Y237000D02*
Y245592D01*
X171143Y249531D02*
Y258031D01*
X167204Y245592D02*
X171143Y249531D01*
X167204Y215305D02*
Y237000D01*
X167143Y215244D02*
X167204Y215305D01*
X328250Y155625D02*
X335685Y148190D01*
X328000Y155625D02*
X328250D01*
X335685Y148190D02*
X348000D01*
X-34752Y154860D02*
X-34502D01*
X-40701Y160810D02*
X-34752Y154860D01*
X-54000Y160810D02*
X-53998Y160812D01*
X-54000Y160810D02*
X-40701D01*
X131372Y241254D02*
Y244079D01*
X131468Y244175D01*
Y265568D02*
X133025Y267125D01*
X153310Y284307D02*
X154643Y282975D01*
Y282725D02*
Y282975D01*
X161875Y49345D02*
Y66293D01*
X216251Y65521D02*
X217022Y66293D01*
X216418Y79241D02*
X232000D01*
X216418D02*
X217022Y78638D01*
Y66293D02*
Y78638D01*
X215919Y79241D02*
X216418D01*
X232000D02*
X237120Y84361D01*
X256903D01*
D44*
X348000Y110090D02*
D03*
Y122790D02*
D03*
Y135490D02*
D03*
Y148190D02*
D03*
Y160890D02*
D03*
Y173590D02*
D03*
Y186290D02*
D03*
Y198990D02*
D03*
X-54000Y198910D02*
D03*
Y186210D02*
D03*
Y173510D02*
D03*
Y160810D02*
D03*
Y148110D02*
D03*
Y135410D02*
D03*
Y122710D02*
D03*
Y110010D02*
D03*
X102590Y5000D02*
D03*
X115290D02*
D03*
X127990D02*
D03*
X140690D02*
D03*
X153390D02*
D03*
X166090D02*
D03*
X178790D02*
D03*
X191490D02*
D03*
X191410Y303000D02*
D03*
X178710D02*
D03*
X166010D02*
D03*
X153310D02*
D03*
X140610D02*
D03*
X127910D02*
D03*
X115210D02*
D03*
X102510D02*
D03*
D45*
X36939Y104361D02*
D03*
Y64361D02*
D03*
Y84361D02*
D03*
Y164361D02*
D03*
Y124361D02*
D03*
Y144361D02*
D03*
Y224361D02*
D03*
Y184361D02*
D03*
Y204361D02*
D03*
Y244361D02*
D03*
X256903Y104361D02*
D03*
Y64361D02*
D03*
Y84361D02*
D03*
Y164361D02*
D03*
Y124361D02*
D03*
Y144361D02*
D03*
Y224361D02*
D03*
Y184361D02*
D03*
Y204361D02*
D03*
Y244361D02*
D03*
D46*
X60454Y218010D02*
D03*
X233941Y124000D02*
D03*
X229291Y247319D02*
D03*
X139559Y101629D02*
D03*
X208740Y21758D02*
D03*
X110958Y43685D02*
D03*
X68875Y270135D02*
D03*
X-16136Y194730D02*
D03*
X-5000Y142028D02*
D03*
Y114605D02*
D03*
D47*
X77525Y241254D02*
D03*
X222614Y182827D02*
D03*
X212325Y178044D02*
D03*
X161143Y115000D02*
D03*
X148595Y85293D02*
D03*
X156143Y260075D02*
D03*
X227195Y87611D02*
D03*
X163379Y20896D02*
D03*
X140525Y241254D02*
D03*
X100125Y145110D02*
D03*
X79275Y115702D02*
D03*
X124872Y170375D02*
D03*
X120743Y137642D02*
D03*
X133025Y124264D02*
D03*
X122675Y122790D02*
D03*
X112025Y136907D02*
D03*
X146597Y36500D02*
D03*
Y44478D02*
D03*
Y52793D02*
D03*
Y60539D02*
D03*
X136875Y36500D02*
D03*
Y44478D02*
D03*
X137175Y52793D02*
D03*
Y60539D02*
D03*
X76475Y12620D02*
D03*
X228315Y53041D02*
D03*
X210919Y115500D02*
D03*
X77525Y159375D02*
D03*
X172393Y145584D02*
D03*
X150393Y147875D02*
D03*
X140875Y181750D02*
D03*
X178385Y282621D02*
D03*
X167143Y215244D02*
D03*
X127119Y214361D02*
D03*
X186875Y170375D02*
D03*
X167622D02*
D03*
X205310Y215644D02*
D03*
X186254Y213000D02*
D03*
X219918Y224361D02*
D03*
X-22000Y136360D02*
D03*
X56895Y193000D02*
D03*
X102192Y218000D02*
D03*
X118125Y203089D02*
D03*
X152893Y208000D02*
D03*
X112875Y287725D02*
D03*
X83275Y145110D02*
D03*
X147827Y190502D02*
D03*
M02*
