G04*
G04 #@! TF.GenerationSoftware,Altium Limited,Altium Designer,24.0.1 (36)*
G04*
G04 Layer_Color=16711935*
%FSLAX44Y44*%
%MOMM*%
G71*
G04*
G04 #@! TF.SameCoordinates,BFD44B55-2052-4A58-B096-8A348341E0BB*
G04*
G04*
G04 #@! TF.FilePolarity,Positive*
G04*
G01*
G75*
%ADD64C,0.1000*%
D64*
X153875Y236175D02*
G03*
X151875Y238175I-2000J0D01*
G01*
X125875Y240175D02*
G03*
X123875Y238175I0J-2000D01*
G01*
X142875Y236175D02*
G03*
X140875Y238175I-2000J0D01*
G01*
X136875D02*
G03*
X134875Y236175I0J-2000D01*
G01*
X95025Y220075D02*
G03*
X98025Y217075I3000J0D01*
G01*
X115175Y170375D02*
G03*
X110175Y165375I0J-5000D01*
G01*
X112875Y232175D02*
G03*
X114875Y230175I2000J0D01*
G01*
X100025Y217075D02*
G03*
X103025Y220075I0J3000D01*
G01*
X140622Y170375D02*
G03*
X139622Y171375I-1000J0D01*
G01*
X114875Y238175D02*
G03*
X112875Y236175I0J-2000D01*
G01*
X173875Y227675D02*
G03*
X175875Y229675I0J2000D01*
G01*
X197875Y236175D02*
G03*
X195875Y238175I-2000J0D01*
G01*
X98025Y226075D02*
G03*
X95025Y223075I0J-3000D01*
G01*
X93125Y184875D02*
G03*
X95125Y182875I2000J0D01*
G01*
X118875Y230175D02*
G03*
X120875Y232175I0J2000D01*
G01*
X201425Y270175D02*
G03*
X204425Y267175I3000J0D01*
G01*
X151875Y227675D02*
G03*
X153875Y229675I0J2000D01*
G01*
X178875Y232175D02*
G03*
X180875Y230175I2000J0D01*
G01*
X189875Y232175D02*
G03*
X191875Y230175I2000J0D01*
G01*
X180875Y238175D02*
G03*
X178875Y236175I0J-2000D01*
G01*
X156875Y232175D02*
G03*
X158875Y230175I2000J0D01*
G01*
X184875D02*
G03*
X186875Y232175I0J2000D01*
G01*
X120875Y236175D02*
G03*
X118875Y238175I-2000J0D01*
G01*
X129875Y232175D02*
G03*
X131875Y234175I0J2000D01*
G01*
X103025Y223075D02*
G03*
X100025Y226075I-3000J0D01*
G01*
X166622Y171375D02*
G03*
X165622Y170375I0J-1000D01*
G01*
X195875Y230175D02*
G03*
X197875Y232175I0J2000D01*
G01*
X131875Y238175D02*
G03*
X129875Y240175I-2000J0D01*
G01*
X147875Y238175D02*
G03*
X145875Y236175I0J-2000D01*
G01*
X186875D02*
G03*
X184875Y238175I-2000J0D01*
G01*
X158875D02*
G03*
X156875Y236175I0J-2000D01*
G01*
X169875Y238175D02*
G03*
X167875Y236175I0J-2000D01*
G01*
X105175Y156375D02*
G03*
X110175Y161375I0J5000D01*
G01*
X145875Y229675D02*
G03*
X147875Y227675I2000J0D01*
G01*
X191225Y268175D02*
G03*
X192225Y267175I1000J0D01*
G01*
X116025Y258075D02*
G03*
X110025Y264075I-6000J0D01*
G01*
X167875Y229675D02*
G03*
X169875Y227675I2000J0D01*
G01*
X99525Y264075D02*
G03*
X95525Y260075I0J-4000D01*
G01*
X162875Y230175D02*
G03*
X164875Y232175I0J2000D01*
G01*
X196775Y159375D02*
G03*
X199775Y156375I3000J0D01*
G01*
X99125Y190875D02*
G03*
X97125Y192875I-2000J0D01*
G01*
X196775Y165375D02*
G03*
X191775Y170375I-5000J0D01*
G01*
X123875Y234175D02*
G03*
X125875Y232175I2000J0D01*
G01*
X95525Y248075D02*
G03*
X101525Y242075I6000J0D01*
G01*
X134875Y232175D02*
G03*
X136875Y230175I2000J0D01*
G01*
X164875Y236175D02*
G03*
X162875Y238175I-2000J0D01*
G01*
X95125Y192875D02*
G03*
X93125Y190875I0J-2000D01*
G01*
X110025Y242075D02*
G03*
X116025Y248075I0J6000D01*
G01*
X167622Y170375D02*
G03*
X166622Y171375I-1000J0D01*
G01*
X192425Y267175D02*
G03*
X195425Y270175I0J3000D01*
G01*
X191875Y238175D02*
G03*
X189875Y236175I0J-2000D01*
G01*
X140875Y230175D02*
G03*
X142875Y232175I0J2000D01*
G01*
X175875Y236175D02*
G03*
X173875Y238175I-2000J0D01*
G01*
X97125Y182875D02*
G03*
X99125Y184875I0J2000D01*
G01*
X139622Y171375D02*
G03*
X138622Y170375I0J-1000D01*
G01*
X175254Y202000D02*
G03*
X175254Y202000I-5000J0D01*
G01*
X169875Y227675D02*
X173875D01*
X170175Y161450D02*
Y162331D01*
X204425Y267175D02*
X205475D01*
X115175Y170375D02*
X138622D01*
X148175Y164246D02*
Y166375D01*
X192175Y156875D02*
Y160684D01*
X159175Y162331D02*
Y164246D01*
X189875Y232175D02*
Y236175D01*
X191225Y269175D02*
X195254D01*
X151575Y166375D02*
X159175D01*
X134875Y232175D02*
Y236175D01*
X205475Y267175D02*
X207675D01*
X137175Y156875D02*
Y160684D01*
X195575Y162331D02*
Y164246D01*
X148175Y160684D02*
Y161450D01*
X167622Y170375D02*
X191775D01*
X173575Y161450D02*
Y162331D01*
X115175Y156875D02*
X118575D01*
X180875Y230175D02*
X184875D01*
X137175Y162331D02*
Y164246D01*
X129575Y166375D02*
X137175D01*
X173575Y164246D02*
Y166375D01*
X181175Y162331D02*
Y164246D01*
X140575Y162331D02*
Y164246D01*
X131875Y234175D02*
Y238175D01*
X159175Y156875D02*
Y160684D01*
X164875Y232175D02*
Y236175D01*
X151575Y160684D02*
Y161450D01*
X195425Y270175D02*
Y270375D01*
X151575Y161450D02*
Y162331D01*
X195575Y166375D02*
X196674D01*
X119225Y270135D02*
X119525D01*
X151575Y162331D02*
Y164246D01*
X88175Y156375D02*
Y267175D01*
X90375D02*
X91225D01*
X159175Y161450D02*
Y162331D01*
X115175Y161450D02*
Y162331D01*
X195575Y160684D02*
Y161450D01*
X162575D02*
Y162331D01*
X118575D02*
Y164246D01*
X181175Y161450D02*
Y162331D01*
X140575Y161450D02*
Y162331D01*
X115175Y156875D02*
Y160684D01*
X137175Y164246D02*
Y166375D01*
X95125Y192875D02*
X97125D01*
X118575Y156875D02*
Y160684D01*
X199775Y156375D02*
X205475D01*
X173575Y166375D02*
X181175D01*
X192225Y267175D02*
X192425D01*
X140575Y166375D02*
X148175D01*
X197875Y232175D02*
Y236175D01*
X178875Y232175D02*
Y236175D01*
X95525Y248075D02*
Y260075D01*
X126175Y156875D02*
Y160684D01*
X173575D02*
Y161450D01*
X91225Y270375D02*
X119225D01*
X181175Y156875D02*
X184575D01*
Y161450D02*
Y162331D01*
X114875Y238175D02*
X118875D01*
X170175Y160684D02*
Y161450D01*
X158875Y230175D02*
X162875D01*
X184575Y166375D02*
X192175D01*
X119525Y270135D02*
Y270375D01*
X205475Y156375D02*
X207675D01*
X181175Y160684D02*
Y161450D01*
X110175Y161375D02*
Y165375D01*
X140575Y160684D02*
Y161450D01*
X195575Y156875D02*
Y160684D01*
X186875Y232175D02*
Y236175D01*
X201425Y270375D02*
X206475D01*
X207675Y156375D02*
Y267175D01*
X137175Y161450D02*
Y162331D01*
X159175Y164246D02*
Y166375D01*
X126175Y164246D02*
Y166375D01*
X118575Y160684D02*
Y161450D01*
X173575Y156875D02*
Y160684D01*
X158875Y238175D02*
X162875D01*
X118575Y161450D02*
Y162331D01*
X88175Y156375D02*
X90375D01*
X170175Y156875D02*
X173575D01*
X145875Y229675D02*
Y236175D01*
X129575Y162331D02*
Y164246D01*
X148175Y161450D02*
Y162331D01*
X170175Y164246D02*
Y166375D01*
X112875Y232175D02*
Y236175D01*
X95125Y182875D02*
X97125D01*
X191875Y230175D02*
X195875D01*
X159175Y160684D02*
Y161450D01*
X136875Y230175D02*
X140875D01*
X91225Y267175D02*
Y270375D01*
X129575Y161450D02*
Y162331D01*
X206475Y267175D02*
Y270375D01*
X115175Y162331D02*
Y164246D01*
X95025Y220075D02*
Y223075D01*
X162575Y162331D02*
Y164246D01*
X148175Y156875D02*
X151575D01*
X123875Y234175D02*
Y238175D01*
X184575Y160684D02*
Y161450D01*
X115175Y164246D02*
Y166375D01*
X191225Y268175D02*
Y270375D01*
X192175Y156875D02*
X195575D01*
X173575Y162331D02*
Y164246D01*
X120875Y232175D02*
Y236175D01*
X151575Y164246D02*
Y166375D01*
X136875Y238175D02*
X140875D01*
X110276Y166375D02*
X115175D01*
X119525Y270375D02*
X191225D01*
X103025Y220075D02*
Y223075D01*
X156875Y232175D02*
Y236175D01*
X192175Y162331D02*
Y164246D01*
X129575Y160684D02*
Y161450D01*
X151575Y156875D02*
Y160684D01*
X98025Y226075D02*
X100025D01*
X129575Y164246D02*
Y166375D01*
X162575Y156875D02*
Y160684D01*
X137175D02*
Y161450D01*
X180875Y238175D02*
X184875D01*
X99525Y264075D02*
X110025D01*
X201425Y270175D02*
Y270375D01*
X159175Y156875D02*
X162575D01*
X99125Y184875D02*
Y190875D01*
X184575Y156875D02*
Y160684D01*
X98025Y217075D02*
X100025D01*
X89375Y270375D02*
X91225D01*
X118575Y164246D02*
Y166375D01*
X184575Y164246D02*
Y166375D01*
X181175Y156875D02*
Y160684D01*
X119225Y268175D02*
Y270375D01*
X118575Y166375D02*
X126175D01*
X192175Y160684D02*
Y161450D01*
X114875Y230175D02*
X118875D01*
X196775Y159375D02*
Y165375D01*
X126175Y156875D02*
X129575D01*
X126175Y161450D02*
Y162331D01*
X115175Y160684D02*
Y161450D01*
X101525Y242075D02*
X110025D01*
X148175Y162331D02*
Y164246D01*
X93125Y184875D02*
Y190875D01*
X125875Y232175D02*
X129875D01*
X88175Y267175D02*
X90375D01*
X89375D02*
Y270375D01*
X162575Y164246D02*
Y166375D01*
X147875Y238175D02*
X151875D01*
X170175Y162331D02*
Y164246D01*
X137175Y156875D02*
X140575D01*
X175875Y229675D02*
Y236175D01*
X181175Y164246D02*
Y166375D01*
X153875Y229675D02*
Y236175D01*
X195575Y161450D02*
Y162331D01*
X140575Y164246D02*
Y166375D01*
X126175Y162331D02*
Y164246D01*
X169875Y238175D02*
X173875D01*
X195575Y164246D02*
Y166375D01*
X162575Y160684D02*
Y161450D01*
X195425Y270375D02*
X201425D01*
X170175Y156875D02*
Y160684D01*
X129575Y156875D02*
Y160684D01*
X191875Y238175D02*
X195875D01*
X162575Y166375D02*
X170175D01*
X125875Y240175D02*
X129875D01*
X167875Y229675D02*
Y236175D01*
X192175Y161450D02*
Y162331D01*
X90375Y156375D02*
X105175D01*
X148175Y156875D02*
Y160684D01*
X192175Y164246D02*
Y166375D01*
X126175Y160684D02*
Y161450D01*
X147875Y227675D02*
X151875D01*
X140575Y156875D02*
Y160684D01*
X142875Y232175D02*
Y236175D01*
X184575Y162331D02*
Y164246D01*
X140622Y170375D02*
X165622D01*
X116025Y248075D02*
Y258075D01*
X211254Y193000D02*
Y233000D01*
X161254Y193000D02*
Y233000D01*
X211254D01*
X161254Y193000D02*
X211254D01*
X186254Y68221D02*
X204254D01*
X186254Y83021D02*
X204254D01*
Y68221D02*
Y83021D01*
X186254Y68221D02*
Y83021D01*
X80275Y121611D02*
Y127111D01*
X69775Y121611D02*
Y127111D01*
Y121611D02*
X80275D01*
X69775Y127111D02*
X80275D01*
Y133907D02*
Y139407D01*
X69775Y133907D02*
Y139407D01*
Y133907D02*
X80275D01*
X69775Y139407D02*
X80275D01*
X191775Y99702D02*
X201775D01*
X191775Y117702D02*
X201775D01*
X191775Y99702D02*
Y117702D01*
X201775Y99702D02*
Y117702D01*
X171384Y98500D02*
Y115500D01*
X180884Y98500D02*
Y115500D01*
X171384Y98500D02*
X180884D01*
X171384Y115500D02*
X180884D01*
X72025Y38000D02*
X81025D01*
X72025Y21000D02*
X81025D01*
Y38000D01*
X72025Y21000D02*
Y38000D01*
X88625D02*
X97625D01*
X88625Y21000D02*
X97625D01*
Y38000D01*
X88625Y21000D02*
Y38000D01*
X116775Y262375D02*
X134275D01*
X116775Y271875D02*
X134275D01*
Y262375D02*
Y271875D01*
X116775Y262375D02*
Y271875D01*
X113925Y154360D02*
X131425D01*
X113925Y163860D02*
X131425D01*
Y154360D02*
Y163860D01*
X113925Y154360D02*
Y163860D01*
M02*
