G04*
G04 #@! TF.GenerationSoftware,Altium Limited,Altium Designer,24.0.1 (36)*
G04*
G04 Layer_Color=16711935*
%FSLAX44Y44*%
%MOMM*%
G71*
G04*
G04 #@! TF.SameCoordinates,BFD44B55-2052-4A58-B096-8A348341E0BB*
G04*
G04*
G04 #@! TF.FilePolarity,Negative*
G04*
G01*
G75*
%ADD39C,1.1000*%
%ADD40C,1.6000*%
%ADD41C,1.3700*%
%ADD42C,0.7000*%
%ADD58R,1.2700X1.9000*%
%ADD59R,0.8500X1.2000*%
%ADD60R,0.9500X1.2000*%
%ADD61R,1.6500X1.4500*%
%ADD62R,1.3000X1.1000*%
%ADD63R,2.0000X1.4500*%
D39*
X348000Y110090D02*
D03*
Y122790D02*
D03*
Y135490D02*
D03*
Y148190D02*
D03*
Y160890D02*
D03*
Y173590D02*
D03*
Y186290D02*
D03*
Y198990D02*
D03*
X-54000Y198910D02*
D03*
Y186210D02*
D03*
Y173510D02*
D03*
Y160810D02*
D03*
Y148110D02*
D03*
Y135410D02*
D03*
Y122710D02*
D03*
Y110010D02*
D03*
X102590Y5000D02*
D03*
X115290D02*
D03*
X127990D02*
D03*
X140690D02*
D03*
X153390D02*
D03*
X166090D02*
D03*
X178790D02*
D03*
X191490D02*
D03*
X191410Y303000D02*
D03*
X178710D02*
D03*
X166010D02*
D03*
X153310D02*
D03*
X140610D02*
D03*
X127910D02*
D03*
X115210D02*
D03*
X102510D02*
D03*
D40*
X36939Y104361D02*
D03*
Y64361D02*
D03*
Y84361D02*
D03*
Y164361D02*
D03*
Y124361D02*
D03*
Y144361D02*
D03*
Y224361D02*
D03*
Y184361D02*
D03*
Y204361D02*
D03*
Y244361D02*
D03*
X256903Y104361D02*
D03*
Y64361D02*
D03*
Y84361D02*
D03*
Y164361D02*
D03*
Y124361D02*
D03*
Y144361D02*
D03*
Y224361D02*
D03*
Y184361D02*
D03*
Y204361D02*
D03*
Y244361D02*
D03*
D41*
X60454Y218010D02*
D03*
X233941Y124000D02*
D03*
X229291Y247319D02*
D03*
X139559Y101629D02*
D03*
X208740Y21758D02*
D03*
X110958Y43685D02*
D03*
X68875Y270135D02*
D03*
X-16136Y194730D02*
D03*
X-5000Y142028D02*
D03*
Y114605D02*
D03*
D42*
X77525Y241254D02*
D03*
X222614Y182827D02*
D03*
X212325Y178044D02*
D03*
X161143Y115000D02*
D03*
X148595Y85293D02*
D03*
X156143Y260075D02*
D03*
X227195Y87611D02*
D03*
X163379Y20896D02*
D03*
X140525Y241254D02*
D03*
X100125Y145110D02*
D03*
X79275Y115702D02*
D03*
X124872Y170375D02*
D03*
X120743Y137642D02*
D03*
X133025Y124264D02*
D03*
X122675Y122790D02*
D03*
X112025Y136907D02*
D03*
X146597Y36500D02*
D03*
Y44478D02*
D03*
Y52793D02*
D03*
Y60539D02*
D03*
X136875Y36500D02*
D03*
Y44478D02*
D03*
X137175Y52793D02*
D03*
Y60539D02*
D03*
X76475Y12620D02*
D03*
X228315Y53041D02*
D03*
X210919Y115500D02*
D03*
X77525Y159375D02*
D03*
X172393Y145584D02*
D03*
X150393Y147875D02*
D03*
X140875Y181750D02*
D03*
X178385Y282621D02*
D03*
X167143Y215244D02*
D03*
X127119Y214361D02*
D03*
X186875Y170375D02*
D03*
X167622D02*
D03*
X205310Y215644D02*
D03*
X186254Y213000D02*
D03*
X219918Y224361D02*
D03*
X-22000Y136360D02*
D03*
X56895Y193000D02*
D03*
X102192Y218000D02*
D03*
X118125Y203089D02*
D03*
X152893Y208000D02*
D03*
X112875Y287725D02*
D03*
X83275Y145110D02*
D03*
X147827Y190502D02*
D03*
D58*
X205475Y162375D02*
D03*
D59*
X193375Y158875D02*
D03*
D60*
X182875D02*
D03*
X171875D02*
D03*
X160875D02*
D03*
X149875D02*
D03*
X138875D02*
D03*
X127875D02*
D03*
X116875D02*
D03*
D61*
X92275Y160125D02*
D03*
D62*
X90525Y257375D02*
D03*
Y220375D02*
D03*
D63*
X125525Y267125D02*
D03*
X185225D02*
D03*
M02*
