G04*
G04 #@! TF.GenerationSoftware,Altium Limited,Altium Designer,24.0.1 (36)*
G04*
G04 Layer_Color=16711935*
%FSLAX44Y44*%
%MOMM*%
G71*
G04*
G04 #@! TF.SameCoordinates,BFD44B55-2052-4A58-B096-8A348341E0BB*
G04*
G04*
G04 #@! TF.FilePolarity,Positive*
G04*
G01*
G75*
%ADD11C,0.2000*%
D11*
X152893Y278225D02*
X169893D01*
X152893D02*
Y287225D01*
X169893D01*
Y278225D02*
Y287225D01*
X195993Y40752D02*
Y53252D01*
X175993D02*
X195993D01*
X175993Y40752D02*
Y53252D01*
Y40752D02*
X195993D01*
X154875Y65043D02*
X168875D01*
Y86543D01*
X154875D02*
X168875D01*
X154875Y65043D02*
Y86543D01*
X213169Y88491D02*
X218668D01*
X213169Y77991D02*
Y88491D01*
Y77991D02*
X218668D01*
Y88491D01*
X212522Y51043D02*
X221522D01*
Y68043D01*
X212522D02*
X221522D01*
X212522Y51043D02*
Y68043D01*
X161393Y134360D02*
Y139860D01*
X150893D02*
X161393D01*
X150893Y134360D02*
Y139860D01*
Y134360D02*
X161393D01*
X77525Y74741D02*
X86525D01*
Y91741D01*
X77525D02*
X86525D01*
X77525Y74741D02*
Y91741D01*
X98090Y74521D02*
X107090D01*
Y91521D01*
X98090D02*
X107090D01*
X98090Y74521D02*
Y91521D01*
X161893Y255281D02*
Y260781D01*
Y255281D02*
X172393D01*
Y260781D01*
X161893D02*
X172393D01*
X323500Y170875D02*
X332500D01*
X323500Y153875D02*
Y170875D01*
Y153875D02*
X332500D01*
Y170875D01*
X-39002Y139610D02*
X-30001D01*
Y156610D01*
X-39002D02*
X-30001D01*
X-39002Y139610D02*
Y156610D01*
X155097Y16500D02*
Y25500D01*
X138097D02*
X155097D01*
X138097Y16500D02*
Y25500D01*
Y16500D02*
X155097D01*
X83622Y235000D02*
X133622D01*
X83622Y191000D02*
Y235000D01*
Y191000D02*
X133622D01*
Y235000D01*
X122275Y251531D02*
Y257031D01*
Y251531D02*
X132775D01*
Y257031D01*
X122275D02*
X132775D01*
M02*
